%TF.GenerationSoftware,KiCad,Pcbnew,(6.0.7-1)-1*%
%TF.CreationDate,2023-01-10T14:37:08-05:00*%
%TF.ProjectId,LiIonUtilityBoard,4c69496f-6e55-4746-996c-697479426f61,rev?*%
%TF.SameCoordinates,Original*%
%TF.FileFunction,Drillmap*%
%TF.FilePolarity,Positive*%
%FSLAX45Y45*%
G04 Gerber Fmt 4.5, Leading zero omitted, Abs format (unit mm)*
G04 Created by KiCad (PCBNEW (6.0.7-1)-1) date 2023-01-10 14:37:08*
%MOMM*%
%LPD*%
G01*
G04 APERTURE LIST*
%ADD10C,0.100000*%
%ADD11C,0.200000*%
%ADD12C,0.030000*%
%ADD13C,0.040000*%
%ADD14C,0.060000*%
%ADD15C,0.130000*%
%ADD16C,0.180000*%
G04 APERTURE END LIST*
D10*
X8600000Y-4600000D02*
X18200000Y-4600000D01*
X18200000Y-4600000D02*
X18200000Y-8600000D01*
X18200000Y-8600000D02*
X8600000Y-8600000D01*
X8600000Y-8600000D02*
X8600000Y-4600000D01*
D11*
D12*
X8900400Y-7198600D02*
X8930400Y-7228600D01*
X8930400Y-7198600D02*
X8900400Y-7228600D01*
X9665000Y-6390000D02*
X9695000Y-6420000D01*
X9695000Y-6390000D02*
X9665000Y-6420000D01*
X10043400Y-4785600D02*
X10073400Y-4815600D01*
X10073400Y-4785600D02*
X10043400Y-4815600D01*
X10043400Y-4988800D02*
X10073400Y-5018800D01*
X10073400Y-4988800D02*
X10043400Y-5018800D01*
X10627600Y-5344400D02*
X10657600Y-5374400D01*
X10657600Y-5344400D02*
X10627600Y-5374400D01*
X10627600Y-5446000D02*
X10657600Y-5476000D01*
X10657600Y-5446000D02*
X10627600Y-5476000D01*
X10729200Y-7808200D02*
X10759200Y-7838200D01*
X10759200Y-7808200D02*
X10729200Y-7838200D01*
X10881600Y-5268200D02*
X10911600Y-5298200D01*
X10911600Y-5268200D02*
X10881600Y-5298200D01*
X11034000Y-4912600D02*
X11064000Y-4942600D01*
X11064000Y-4912600D02*
X11034000Y-4942600D01*
X11288000Y-8011400D02*
X11318000Y-8041400D01*
X11318000Y-8011400D02*
X11288000Y-8041400D01*
X11293200Y-5266200D02*
X11323200Y-5296200D01*
X11323200Y-5266200D02*
X11293200Y-5296200D01*
X11313200Y-5165000D02*
X11343200Y-5195000D01*
X11343200Y-5165000D02*
X11313200Y-5195000D01*
X11364200Y-5954000D02*
X11394200Y-5984000D01*
X11394200Y-5954000D02*
X11364200Y-5984000D01*
X11415000Y-5776200D02*
X11445000Y-5806200D01*
X11445000Y-5776200D02*
X11415000Y-5806200D01*
X11440400Y-7401800D02*
X11470400Y-7431800D01*
X11470400Y-7401800D02*
X11440400Y-7431800D01*
X11505000Y-5165000D02*
X11535000Y-5195000D01*
X11535000Y-5165000D02*
X11505000Y-5195000D01*
X11516600Y-5776200D02*
X11546600Y-5806200D01*
X11546600Y-5776200D02*
X11516600Y-5806200D01*
X11545000Y-5965000D02*
X11575000Y-5995000D01*
X11575000Y-5965000D02*
X11545000Y-5995000D01*
X11545000Y-6065000D02*
X11575000Y-6095000D01*
X11575000Y-6065000D02*
X11545000Y-6095000D01*
X11545000Y-6165000D02*
X11575000Y-6195000D01*
X11575000Y-6165000D02*
X11545000Y-6195000D01*
X11603200Y-5151200D02*
X11633200Y-5181200D01*
X11633200Y-5151200D02*
X11603200Y-5181200D01*
X11618200Y-6309600D02*
X11648200Y-6339600D01*
X11648200Y-6309600D02*
X11618200Y-6339600D01*
X11645000Y-5965000D02*
X11675000Y-5995000D01*
X11675000Y-5965000D02*
X11645000Y-5995000D01*
X11645000Y-6065000D02*
X11675000Y-6095000D01*
X11675000Y-6065000D02*
X11645000Y-6095000D01*
X11645000Y-6165000D02*
X11675000Y-6195000D01*
X11675000Y-6165000D02*
X11645000Y-6195000D01*
X11694400Y-6665200D02*
X11724400Y-6695200D01*
X11724400Y-6665200D02*
X11694400Y-6695200D01*
X11719800Y-6233400D02*
X11749800Y-6263400D01*
X11749800Y-6233400D02*
X11719800Y-6263400D01*
X11745000Y-5965000D02*
X11775000Y-5995000D01*
X11775000Y-5965000D02*
X11745000Y-5995000D01*
X11745000Y-6065000D02*
X11775000Y-6095000D01*
X11775000Y-6065000D02*
X11745000Y-6095000D01*
X11872200Y-6792200D02*
X11902200Y-6822200D01*
X11902200Y-6792200D02*
X11872200Y-6822200D01*
X11948600Y-5344400D02*
X11978600Y-5374400D01*
X11978600Y-5344400D02*
X11948600Y-5374400D01*
X11948600Y-5446000D02*
X11978600Y-5476000D01*
X11978600Y-5446000D02*
X11948600Y-5476000D01*
X15555200Y-7249400D02*
X15585200Y-7279400D01*
X15585200Y-7249400D02*
X15555200Y-7279400D01*
X15885400Y-7249400D02*
X15915400Y-7279400D01*
X15915400Y-7249400D02*
X15885400Y-7279400D01*
X16291800Y-7122400D02*
X16321800Y-7152400D01*
X16321800Y-7122400D02*
X16291800Y-7152400D01*
X16317200Y-7020800D02*
X16347200Y-7050800D01*
X16347200Y-7020800D02*
X16317200Y-7050800D01*
X16444200Y-7249400D02*
X16474200Y-7279400D01*
X16474200Y-7249400D02*
X16444200Y-7279400D01*
X16444200Y-7353100D02*
X16474200Y-7383100D01*
X16474200Y-7353100D02*
X16444200Y-7383100D01*
X16445000Y-7556300D02*
X16475000Y-7586300D01*
X16475000Y-7556300D02*
X16445000Y-7586300D01*
X16525000Y-7556300D02*
X16555000Y-7586300D01*
X16555000Y-7556300D02*
X16525000Y-7586300D01*
X16596600Y-6995400D02*
X16626600Y-7025400D01*
X16626600Y-6995400D02*
X16596600Y-7025400D01*
X16605000Y-7556300D02*
X16635000Y-7586300D01*
X16635000Y-7556300D02*
X16605000Y-7586300D01*
D13*
X8720000Y-4700000D02*
G75*
G03*
X8720000Y-4700000I-20000J0D01*
G01*
X8720000Y-4975000D02*
G75*
G03*
X8720000Y-4975000I-20000J0D01*
G01*
X8720000Y-5250000D02*
G75*
G03*
X8720000Y-5250000I-20000J0D01*
G01*
X8720000Y-5525000D02*
G75*
G03*
X8720000Y-5525000I-20000J0D01*
G01*
X8720000Y-5800000D02*
G75*
G03*
X8720000Y-5800000I-20000J0D01*
G01*
X8720000Y-7440000D02*
G75*
G03*
X8720000Y-7440000I-20000J0D01*
G01*
X8720000Y-7715000D02*
G75*
G03*
X8720000Y-7715000I-20000J0D01*
G01*
X8720000Y-7990000D02*
G75*
G03*
X8720000Y-7990000I-20000J0D01*
G01*
X8720000Y-8265000D02*
G75*
G03*
X8720000Y-8265000I-20000J0D01*
G01*
X9020000Y-4700000D02*
G75*
G03*
X9020000Y-4700000I-20000J0D01*
G01*
X9020000Y-4975000D02*
G75*
G03*
X9020000Y-4975000I-20000J0D01*
G01*
X9020000Y-5250000D02*
G75*
G03*
X9020000Y-5250000I-20000J0D01*
G01*
X9020000Y-5525000D02*
G75*
G03*
X9020000Y-5525000I-20000J0D01*
G01*
X9020000Y-5800000D02*
G75*
G03*
X9020000Y-5800000I-20000J0D01*
G01*
X9020000Y-7440000D02*
G75*
G03*
X9020000Y-7440000I-20000J0D01*
G01*
X9020000Y-7715000D02*
G75*
G03*
X9020000Y-7715000I-20000J0D01*
G01*
X9020000Y-7990000D02*
G75*
G03*
X9020000Y-7990000I-20000J0D01*
G01*
X9020000Y-8265000D02*
G75*
G03*
X9020000Y-8265000I-20000J0D01*
G01*
X9320000Y-4700000D02*
G75*
G03*
X9320000Y-4700000I-20000J0D01*
G01*
X9320000Y-4975000D02*
G75*
G03*
X9320000Y-4975000I-20000J0D01*
G01*
X9320000Y-5250000D02*
G75*
G03*
X9320000Y-5250000I-20000J0D01*
G01*
X9320000Y-5525000D02*
G75*
G03*
X9320000Y-5525000I-20000J0D01*
G01*
X9320000Y-5800000D02*
G75*
G03*
X9320000Y-5800000I-20000J0D01*
G01*
X9740000Y-8480000D02*
G75*
G03*
X9740000Y-8480000I-20000J0D01*
G01*
X10040000Y-8480000D02*
G75*
G03*
X10040000Y-8480000I-20000J0D01*
G01*
X10340000Y-8480000D02*
G75*
G03*
X10340000Y-8480000I-20000J0D01*
G01*
X10640000Y-8480000D02*
G75*
G03*
X10640000Y-8480000I-20000J0D01*
G01*
X10940000Y-8480000D02*
G75*
G03*
X10940000Y-8480000I-20000J0D01*
G01*
X11227093Y-5561239D02*
G75*
G03*
X11227093Y-5561239I-20000J0D01*
G01*
X11240000Y-8480000D02*
G75*
G03*
X11240000Y-8480000I-20000J0D01*
G01*
X11460000Y-5280000D02*
G75*
G03*
X11460000Y-5280000I-20000J0D01*
G01*
X11540000Y-8480000D02*
G75*
G03*
X11540000Y-8480000I-20000J0D01*
G01*
X11560000Y-4860000D02*
G75*
G03*
X11560000Y-4860000I-20000J0D01*
G01*
X11560000Y-4960000D02*
G75*
G03*
X11560000Y-4960000I-20000J0D01*
G01*
X11560000Y-5060000D02*
G75*
G03*
X11560000Y-5060000I-20000J0D01*
G01*
X11560000Y-5280000D02*
G75*
G03*
X11560000Y-5280000I-20000J0D01*
G01*
X11840000Y-8480000D02*
G75*
G03*
X11840000Y-8480000I-20000J0D01*
G01*
X12140000Y-8480000D02*
G75*
G03*
X12140000Y-8480000I-20000J0D01*
G01*
X12380000Y-4700000D02*
G75*
G03*
X12380000Y-4700000I-20000J0D01*
G01*
X12380000Y-5000000D02*
G75*
G03*
X12380000Y-5000000I-20000J0D01*
G01*
X12380000Y-5340000D02*
G75*
G03*
X12380000Y-5340000I-20000J0D01*
G01*
X12380000Y-5615000D02*
G75*
G03*
X12380000Y-5615000I-20000J0D01*
G01*
X12380000Y-5890000D02*
G75*
G03*
X12380000Y-5890000I-20000J0D01*
G01*
X12380000Y-6165000D02*
G75*
G03*
X12380000Y-6165000I-20000J0D01*
G01*
X12380000Y-6440000D02*
G75*
G03*
X12380000Y-6440000I-20000J0D01*
G01*
X12380000Y-6715000D02*
G75*
G03*
X12380000Y-6715000I-20000J0D01*
G01*
X12380000Y-7380000D02*
G75*
G03*
X12380000Y-7380000I-20000J0D01*
G01*
X12380000Y-7655000D02*
G75*
G03*
X12380000Y-7655000I-20000J0D01*
G01*
X12380000Y-8205000D02*
G75*
G03*
X12380000Y-8205000I-20000J0D01*
G01*
X12440000Y-8480000D02*
G75*
G03*
X12440000Y-8480000I-20000J0D01*
G01*
X12680000Y-4700000D02*
G75*
G03*
X12680000Y-4700000I-20000J0D01*
G01*
X12680000Y-5000000D02*
G75*
G03*
X12680000Y-5000000I-20000J0D01*
G01*
X12680000Y-5340000D02*
G75*
G03*
X12680000Y-5340000I-20000J0D01*
G01*
X12680000Y-5615000D02*
G75*
G03*
X12680000Y-5615000I-20000J0D01*
G01*
X12680000Y-5890000D02*
G75*
G03*
X12680000Y-5890000I-20000J0D01*
G01*
X12680000Y-6165000D02*
G75*
G03*
X12680000Y-6165000I-20000J0D01*
G01*
X12680000Y-6440000D02*
G75*
G03*
X12680000Y-6440000I-20000J0D01*
G01*
X12680000Y-6715000D02*
G75*
G03*
X12680000Y-6715000I-20000J0D01*
G01*
X12680000Y-7380000D02*
G75*
G03*
X12680000Y-7380000I-20000J0D01*
G01*
X12680000Y-7655000D02*
G75*
G03*
X12680000Y-7655000I-20000J0D01*
G01*
X12680000Y-7930000D02*
G75*
G03*
X12680000Y-7930000I-20000J0D01*
G01*
X12680000Y-8205000D02*
G75*
G03*
X12680000Y-8205000I-20000J0D01*
G01*
X12680000Y-8480000D02*
G75*
G03*
X12680000Y-8480000I-20000J0D01*
G01*
X12980000Y-4700000D02*
G75*
G03*
X12980000Y-4700000I-20000J0D01*
G01*
X12980000Y-5000000D02*
G75*
G03*
X12980000Y-5000000I-20000J0D01*
G01*
X12980000Y-5340000D02*
G75*
G03*
X12980000Y-5340000I-20000J0D01*
G01*
X12980000Y-5615000D02*
G75*
G03*
X12980000Y-5615000I-20000J0D01*
G01*
X12980000Y-5890000D02*
G75*
G03*
X12980000Y-5890000I-20000J0D01*
G01*
X12980000Y-6165000D02*
G75*
G03*
X12980000Y-6165000I-20000J0D01*
G01*
X12980000Y-6440000D02*
G75*
G03*
X12980000Y-6440000I-20000J0D01*
G01*
X12980000Y-6715000D02*
G75*
G03*
X12980000Y-6715000I-20000J0D01*
G01*
X12980000Y-7380000D02*
G75*
G03*
X12980000Y-7380000I-20000J0D01*
G01*
X12980000Y-7655000D02*
G75*
G03*
X12980000Y-7655000I-20000J0D01*
G01*
X12980000Y-7930000D02*
G75*
G03*
X12980000Y-7930000I-20000J0D01*
G01*
X12980000Y-8205000D02*
G75*
G03*
X12980000Y-8205000I-20000J0D01*
G01*
X12980000Y-8480000D02*
G75*
G03*
X12980000Y-8480000I-20000J0D01*
G01*
X13280000Y-4700000D02*
G75*
G03*
X13280000Y-4700000I-20000J0D01*
G01*
X13280000Y-5000000D02*
G75*
G03*
X13280000Y-5000000I-20000J0D01*
G01*
X13280000Y-5340000D02*
G75*
G03*
X13280000Y-5340000I-20000J0D01*
G01*
X13280000Y-5615000D02*
G75*
G03*
X13280000Y-5615000I-20000J0D01*
G01*
X13280000Y-5890000D02*
G75*
G03*
X13280000Y-5890000I-20000J0D01*
G01*
X13280000Y-6165000D02*
G75*
G03*
X13280000Y-6165000I-20000J0D01*
G01*
X13280000Y-6440000D02*
G75*
G03*
X13280000Y-6440000I-20000J0D01*
G01*
X13280000Y-6715000D02*
G75*
G03*
X13280000Y-6715000I-20000J0D01*
G01*
X13280000Y-7380000D02*
G75*
G03*
X13280000Y-7380000I-20000J0D01*
G01*
X13280000Y-7655000D02*
G75*
G03*
X13280000Y-7655000I-20000J0D01*
G01*
X13280000Y-7930000D02*
G75*
G03*
X13280000Y-7930000I-20000J0D01*
G01*
X13280000Y-8205000D02*
G75*
G03*
X13280000Y-8205000I-20000J0D01*
G01*
X13280000Y-8480000D02*
G75*
G03*
X13280000Y-8480000I-20000J0D01*
G01*
X13580000Y-4700000D02*
G75*
G03*
X13580000Y-4700000I-20000J0D01*
G01*
X13580000Y-5000000D02*
G75*
G03*
X13580000Y-5000000I-20000J0D01*
G01*
X13580000Y-5340000D02*
G75*
G03*
X13580000Y-5340000I-20000J0D01*
G01*
X13580000Y-5615000D02*
G75*
G03*
X13580000Y-5615000I-20000J0D01*
G01*
X13580000Y-5890000D02*
G75*
G03*
X13580000Y-5890000I-20000J0D01*
G01*
X13580000Y-6165000D02*
G75*
G03*
X13580000Y-6165000I-20000J0D01*
G01*
X13580000Y-6440000D02*
G75*
G03*
X13580000Y-6440000I-20000J0D01*
G01*
X13580000Y-6715000D02*
G75*
G03*
X13580000Y-6715000I-20000J0D01*
G01*
X13580000Y-7380000D02*
G75*
G03*
X13580000Y-7380000I-20000J0D01*
G01*
X13580000Y-7655000D02*
G75*
G03*
X13580000Y-7655000I-20000J0D01*
G01*
X13580000Y-7930000D02*
G75*
G03*
X13580000Y-7930000I-20000J0D01*
G01*
X13580000Y-8205000D02*
G75*
G03*
X13580000Y-8205000I-20000J0D01*
G01*
X13580000Y-8480000D02*
G75*
G03*
X13580000Y-8480000I-20000J0D01*
G01*
X13880000Y-4700000D02*
G75*
G03*
X13880000Y-4700000I-20000J0D01*
G01*
X13880000Y-5000000D02*
G75*
G03*
X13880000Y-5000000I-20000J0D01*
G01*
X13880000Y-5340000D02*
G75*
G03*
X13880000Y-5340000I-20000J0D01*
G01*
X13880000Y-5615000D02*
G75*
G03*
X13880000Y-5615000I-20000J0D01*
G01*
X13880000Y-5890000D02*
G75*
G03*
X13880000Y-5890000I-20000J0D01*
G01*
X13880000Y-6165000D02*
G75*
G03*
X13880000Y-6165000I-20000J0D01*
G01*
X13880000Y-6440000D02*
G75*
G03*
X13880000Y-6440000I-20000J0D01*
G01*
X13880000Y-6715000D02*
G75*
G03*
X13880000Y-6715000I-20000J0D01*
G01*
X13880000Y-7380000D02*
G75*
G03*
X13880000Y-7380000I-20000J0D01*
G01*
X13880000Y-7655000D02*
G75*
G03*
X13880000Y-7655000I-20000J0D01*
G01*
X13880000Y-7930000D02*
G75*
G03*
X13880000Y-7930000I-20000J0D01*
G01*
X13880000Y-8205000D02*
G75*
G03*
X13880000Y-8205000I-20000J0D01*
G01*
X13880000Y-8480000D02*
G75*
G03*
X13880000Y-8480000I-20000J0D01*
G01*
X14180000Y-4700000D02*
G75*
G03*
X14180000Y-4700000I-20000J0D01*
G01*
X14180000Y-5000000D02*
G75*
G03*
X14180000Y-5000000I-20000J0D01*
G01*
X14180000Y-5340000D02*
G75*
G03*
X14180000Y-5340000I-20000J0D01*
G01*
X14180000Y-5615000D02*
G75*
G03*
X14180000Y-5615000I-20000J0D01*
G01*
X14180000Y-5890000D02*
G75*
G03*
X14180000Y-5890000I-20000J0D01*
G01*
X14180000Y-6165000D02*
G75*
G03*
X14180000Y-6165000I-20000J0D01*
G01*
X14180000Y-6440000D02*
G75*
G03*
X14180000Y-6440000I-20000J0D01*
G01*
X14180000Y-6715000D02*
G75*
G03*
X14180000Y-6715000I-20000J0D01*
G01*
X14180000Y-7380000D02*
G75*
G03*
X14180000Y-7380000I-20000J0D01*
G01*
X14180000Y-7655000D02*
G75*
G03*
X14180000Y-7655000I-20000J0D01*
G01*
X14180000Y-7930000D02*
G75*
G03*
X14180000Y-7930000I-20000J0D01*
G01*
X14180000Y-8205000D02*
G75*
G03*
X14180000Y-8205000I-20000J0D01*
G01*
X14180000Y-8480000D02*
G75*
G03*
X14180000Y-8480000I-20000J0D01*
G01*
X14480000Y-4700000D02*
G75*
G03*
X14480000Y-4700000I-20000J0D01*
G01*
X14480000Y-5000000D02*
G75*
G03*
X14480000Y-5000000I-20000J0D01*
G01*
X14480000Y-5340000D02*
G75*
G03*
X14480000Y-5340000I-20000J0D01*
G01*
X14480000Y-5615000D02*
G75*
G03*
X14480000Y-5615000I-20000J0D01*
G01*
X14480000Y-5890000D02*
G75*
G03*
X14480000Y-5890000I-20000J0D01*
G01*
X14480000Y-6165000D02*
G75*
G03*
X14480000Y-6165000I-20000J0D01*
G01*
X14480000Y-6440000D02*
G75*
G03*
X14480000Y-6440000I-20000J0D01*
G01*
X14480000Y-6715000D02*
G75*
G03*
X14480000Y-6715000I-20000J0D01*
G01*
X14480000Y-7380000D02*
G75*
G03*
X14480000Y-7380000I-20000J0D01*
G01*
X14480000Y-7655000D02*
G75*
G03*
X14480000Y-7655000I-20000J0D01*
G01*
X14480000Y-7930000D02*
G75*
G03*
X14480000Y-7930000I-20000J0D01*
G01*
X14480000Y-8205000D02*
G75*
G03*
X14480000Y-8205000I-20000J0D01*
G01*
X14480000Y-8480000D02*
G75*
G03*
X14480000Y-8480000I-20000J0D01*
G01*
X14780000Y-4700000D02*
G75*
G03*
X14780000Y-4700000I-20000J0D01*
G01*
X14780000Y-5000000D02*
G75*
G03*
X14780000Y-5000000I-20000J0D01*
G01*
X14780000Y-5340000D02*
G75*
G03*
X14780000Y-5340000I-20000J0D01*
G01*
X14780000Y-5615000D02*
G75*
G03*
X14780000Y-5615000I-20000J0D01*
G01*
X14780000Y-5890000D02*
G75*
G03*
X14780000Y-5890000I-20000J0D01*
G01*
X14780000Y-6165000D02*
G75*
G03*
X14780000Y-6165000I-20000J0D01*
G01*
X14780000Y-6440000D02*
G75*
G03*
X14780000Y-6440000I-20000J0D01*
G01*
X14780000Y-6715000D02*
G75*
G03*
X14780000Y-6715000I-20000J0D01*
G01*
X14780000Y-7380000D02*
G75*
G03*
X14780000Y-7380000I-20000J0D01*
G01*
X14780000Y-7655000D02*
G75*
G03*
X14780000Y-7655000I-20000J0D01*
G01*
X14780000Y-7930000D02*
G75*
G03*
X14780000Y-7930000I-20000J0D01*
G01*
X14780000Y-8205000D02*
G75*
G03*
X14780000Y-8205000I-20000J0D01*
G01*
X14780000Y-8480000D02*
G75*
G03*
X14780000Y-8480000I-20000J0D01*
G01*
X15080000Y-4700000D02*
G75*
G03*
X15080000Y-4700000I-20000J0D01*
G01*
X15080000Y-5000000D02*
G75*
G03*
X15080000Y-5000000I-20000J0D01*
G01*
X15080000Y-5340000D02*
G75*
G03*
X15080000Y-5340000I-20000J0D01*
G01*
X15080000Y-5615000D02*
G75*
G03*
X15080000Y-5615000I-20000J0D01*
G01*
X15080000Y-5890000D02*
G75*
G03*
X15080000Y-5890000I-20000J0D01*
G01*
X15080000Y-6165000D02*
G75*
G03*
X15080000Y-6165000I-20000J0D01*
G01*
X15080000Y-6440000D02*
G75*
G03*
X15080000Y-6440000I-20000J0D01*
G01*
X15080000Y-6715000D02*
G75*
G03*
X15080000Y-6715000I-20000J0D01*
G01*
X15080000Y-7380000D02*
G75*
G03*
X15080000Y-7380000I-20000J0D01*
G01*
X15080000Y-7655000D02*
G75*
G03*
X15080000Y-7655000I-20000J0D01*
G01*
X15080000Y-7930000D02*
G75*
G03*
X15080000Y-7930000I-20000J0D01*
G01*
X15080000Y-8205000D02*
G75*
G03*
X15080000Y-8205000I-20000J0D01*
G01*
X15080000Y-8480000D02*
G75*
G03*
X15080000Y-8480000I-20000J0D01*
G01*
X15380000Y-4700000D02*
G75*
G03*
X15380000Y-4700000I-20000J0D01*
G01*
X15380000Y-5000000D02*
G75*
G03*
X15380000Y-5000000I-20000J0D01*
G01*
X15380000Y-5340000D02*
G75*
G03*
X15380000Y-5340000I-20000J0D01*
G01*
X15380000Y-5615000D02*
G75*
G03*
X15380000Y-5615000I-20000J0D01*
G01*
X15380000Y-5890000D02*
G75*
G03*
X15380000Y-5890000I-20000J0D01*
G01*
X15380000Y-6165000D02*
G75*
G03*
X15380000Y-6165000I-20000J0D01*
G01*
X15380000Y-6440000D02*
G75*
G03*
X15380000Y-6440000I-20000J0D01*
G01*
X15380000Y-6715000D02*
G75*
G03*
X15380000Y-6715000I-20000J0D01*
G01*
X15380000Y-7380000D02*
G75*
G03*
X15380000Y-7380000I-20000J0D01*
G01*
X15380000Y-7655000D02*
G75*
G03*
X15380000Y-7655000I-20000J0D01*
G01*
X15380000Y-7930000D02*
G75*
G03*
X15380000Y-7930000I-20000J0D01*
G01*
X15380000Y-8205000D02*
G75*
G03*
X15380000Y-8205000I-20000J0D01*
G01*
X15380000Y-8480000D02*
G75*
G03*
X15380000Y-8480000I-20000J0D01*
G01*
X15680000Y-4700000D02*
G75*
G03*
X15680000Y-4700000I-20000J0D01*
G01*
X15680000Y-5000000D02*
G75*
G03*
X15680000Y-5000000I-20000J0D01*
G01*
X15680000Y-5340000D02*
G75*
G03*
X15680000Y-5340000I-20000J0D01*
G01*
X15680000Y-5615000D02*
G75*
G03*
X15680000Y-5615000I-20000J0D01*
G01*
X15680000Y-5890000D02*
G75*
G03*
X15680000Y-5890000I-20000J0D01*
G01*
X15680000Y-6165000D02*
G75*
G03*
X15680000Y-6165000I-20000J0D01*
G01*
X15680000Y-6440000D02*
G75*
G03*
X15680000Y-6440000I-20000J0D01*
G01*
X15680000Y-6715000D02*
G75*
G03*
X15680000Y-6715000I-20000J0D01*
G01*
X15680000Y-7380000D02*
G75*
G03*
X15680000Y-7380000I-20000J0D01*
G01*
X15680000Y-7655000D02*
G75*
G03*
X15680000Y-7655000I-20000J0D01*
G01*
X15680000Y-7930000D02*
G75*
G03*
X15680000Y-7930000I-20000J0D01*
G01*
X15680000Y-8205000D02*
G75*
G03*
X15680000Y-8205000I-20000J0D01*
G01*
X15680000Y-8480000D02*
G75*
G03*
X15680000Y-8480000I-20000J0D01*
G01*
X15980000Y-4700000D02*
G75*
G03*
X15980000Y-4700000I-20000J0D01*
G01*
X15980000Y-5000000D02*
G75*
G03*
X15980000Y-5000000I-20000J0D01*
G01*
X15980000Y-8205000D02*
G75*
G03*
X15980000Y-8205000I-20000J0D01*
G01*
X15980000Y-8480000D02*
G75*
G03*
X15980000Y-8480000I-20000J0D01*
G01*
X16280000Y-4700000D02*
G75*
G03*
X16280000Y-4700000I-20000J0D01*
G01*
X16280000Y-5000000D02*
G75*
G03*
X16280000Y-5000000I-20000J0D01*
G01*
X16280000Y-8205000D02*
G75*
G03*
X16280000Y-8205000I-20000J0D01*
G01*
X16280000Y-8480000D02*
G75*
G03*
X16280000Y-8480000I-20000J0D01*
G01*
X16580000Y-4700000D02*
G75*
G03*
X16580000Y-4700000I-20000J0D01*
G01*
X16580000Y-5000000D02*
G75*
G03*
X16580000Y-5000000I-20000J0D01*
G01*
X16580000Y-8205000D02*
G75*
G03*
X16580000Y-8205000I-20000J0D01*
G01*
X16580000Y-8480000D02*
G75*
G03*
X16580000Y-8480000I-20000J0D01*
G01*
X16880000Y-4700000D02*
G75*
G03*
X16880000Y-4700000I-20000J0D01*
G01*
X16880000Y-5000000D02*
G75*
G03*
X16880000Y-5000000I-20000J0D01*
G01*
X16880000Y-8205000D02*
G75*
G03*
X16880000Y-8205000I-20000J0D01*
G01*
X16880000Y-8480000D02*
G75*
G03*
X16880000Y-8480000I-20000J0D01*
G01*
X17180000Y-4700000D02*
G75*
G03*
X17180000Y-4700000I-20000J0D01*
G01*
X17180000Y-5000000D02*
G75*
G03*
X17180000Y-5000000I-20000J0D01*
G01*
X17180000Y-8205000D02*
G75*
G03*
X17180000Y-8205000I-20000J0D01*
G01*
X17180000Y-8480000D02*
G75*
G03*
X17180000Y-8480000I-20000J0D01*
G01*
X17480000Y-4700000D02*
G75*
G03*
X17480000Y-4700000I-20000J0D01*
G01*
X17480000Y-5000000D02*
G75*
G03*
X17480000Y-5000000I-20000J0D01*
G01*
X17480000Y-5180000D02*
G75*
G03*
X17480000Y-5180000I-20000J0D01*
G01*
X17480000Y-5455000D02*
G75*
G03*
X17480000Y-5455000I-20000J0D01*
G01*
X17480000Y-5730000D02*
G75*
G03*
X17480000Y-5730000I-20000J0D01*
G01*
X17480000Y-7430000D02*
G75*
G03*
X17480000Y-7430000I-20000J0D01*
G01*
X17480000Y-7705000D02*
G75*
G03*
X17480000Y-7705000I-20000J0D01*
G01*
X17480000Y-7980000D02*
G75*
G03*
X17480000Y-7980000I-20000J0D01*
G01*
X17480000Y-8205000D02*
G75*
G03*
X17480000Y-8205000I-20000J0D01*
G01*
X17480000Y-8480000D02*
G75*
G03*
X17480000Y-8480000I-20000J0D01*
G01*
X17780000Y-4700000D02*
G75*
G03*
X17780000Y-4700000I-20000J0D01*
G01*
X17780000Y-5000000D02*
G75*
G03*
X17780000Y-5000000I-20000J0D01*
G01*
X17780000Y-5180000D02*
G75*
G03*
X17780000Y-5180000I-20000J0D01*
G01*
X17780000Y-5455000D02*
G75*
G03*
X17780000Y-5455000I-20000J0D01*
G01*
X17780000Y-5730000D02*
G75*
G03*
X17780000Y-5730000I-20000J0D01*
G01*
X17780000Y-7430000D02*
G75*
G03*
X17780000Y-7430000I-20000J0D01*
G01*
X17780000Y-7705000D02*
G75*
G03*
X17780000Y-7705000I-20000J0D01*
G01*
X17780000Y-7980000D02*
G75*
G03*
X17780000Y-7980000I-20000J0D01*
G01*
X17780000Y-8205000D02*
G75*
G03*
X17780000Y-8205000I-20000J0D01*
G01*
X17780000Y-8480000D02*
G75*
G03*
X17780000Y-8480000I-20000J0D01*
G01*
X18080000Y-4700000D02*
G75*
G03*
X18080000Y-4700000I-20000J0D01*
G01*
X18080000Y-5000000D02*
G75*
G03*
X18080000Y-5000000I-20000J0D01*
G01*
X18080000Y-5180000D02*
G75*
G03*
X18080000Y-5180000I-20000J0D01*
G01*
X18080000Y-5455000D02*
G75*
G03*
X18080000Y-5455000I-20000J0D01*
G01*
X18080000Y-5730000D02*
G75*
G03*
X18080000Y-5730000I-20000J0D01*
G01*
X18080000Y-7430000D02*
G75*
G03*
X18080000Y-7430000I-20000J0D01*
G01*
X18080000Y-7705000D02*
G75*
G03*
X18080000Y-7705000I-20000J0D01*
G01*
X18080000Y-7980000D02*
G75*
G03*
X18080000Y-7980000I-20000J0D01*
G01*
X18080000Y-8205000D02*
G75*
G03*
X18080000Y-8205000I-20000J0D01*
G01*
X18080000Y-8480000D02*
G75*
G03*
X18080000Y-8480000I-20000J0D01*
G01*
X9067500Y-6282500D02*
X9067500Y-6322500D01*
X9047500Y-6302500D02*
X9087500Y-6302500D01*
X9067500Y-6367500D02*
X9067500Y-6407500D01*
X9047500Y-6387500D02*
X9087500Y-6387500D01*
X9067500Y-6452500D02*
X9067500Y-6492500D01*
X9047500Y-6472500D02*
X9087500Y-6472500D01*
X9067500Y-6537500D02*
X9067500Y-6577500D01*
X9047500Y-6557500D02*
X9087500Y-6557500D01*
X9067500Y-6622500D02*
X9067500Y-6662500D01*
X9047500Y-6642500D02*
X9087500Y-6642500D01*
X9067500Y-6707500D02*
X9067500Y-6747500D01*
X9047500Y-6727500D02*
X9087500Y-6727500D01*
X9067500Y-6792500D02*
X9067500Y-6832500D01*
X9047500Y-6812500D02*
X9087500Y-6812500D01*
X9067500Y-6877500D02*
X9067500Y-6917500D01*
X9047500Y-6897500D02*
X9087500Y-6897500D01*
X9202500Y-6282500D02*
X9202500Y-6322500D01*
X9182500Y-6302500D02*
X9222500Y-6302500D01*
X9202500Y-6367500D02*
X9202500Y-6407500D01*
X9182500Y-6387500D02*
X9222500Y-6387500D01*
X9202500Y-6452500D02*
X9202500Y-6492500D01*
X9182500Y-6472500D02*
X9222500Y-6472500D01*
X9202500Y-6537500D02*
X9202500Y-6577500D01*
X9182500Y-6557500D02*
X9222500Y-6557500D01*
X9202500Y-6622500D02*
X9202500Y-6662500D01*
X9182500Y-6642500D02*
X9222500Y-6642500D01*
X9202500Y-6707500D02*
X9202500Y-6747500D01*
X9182500Y-6727500D02*
X9222500Y-6727500D01*
X9202500Y-6792500D02*
X9202500Y-6832500D01*
X9182500Y-6812500D02*
X9222500Y-6812500D01*
X9202500Y-6877500D02*
X9202500Y-6917500D01*
X9182500Y-6897500D02*
X9222500Y-6897500D01*
D14*
X8787713Y-6188713D02*
X8787713Y-6146287D01*
X8745287Y-6146287D01*
X8745287Y-6188713D01*
X8787713Y-6188713D01*
D11*
X8806500Y-6137500D02*
X8726500Y-6137500D01*
X8806500Y-6197500D02*
X8726500Y-6197500D01*
X8726500Y-6137500D02*
G75*
G03*
X8726500Y-6197500I0J-30000D01*
G01*
X8806500Y-6197500D02*
G75*
G03*
X8806500Y-6137500I0J30000D01*
G01*
D14*
X8787713Y-7053713D02*
X8787713Y-7011287D01*
X8745287Y-7011287D01*
X8745287Y-7053713D01*
X8787713Y-7053713D01*
D11*
X8806500Y-7002500D02*
X8726500Y-7002500D01*
X8806500Y-7062500D02*
X8726500Y-7062500D01*
X8726500Y-7002500D02*
G75*
G03*
X8726500Y-7062500I0J-30000D01*
G01*
X8806500Y-7062500D02*
G75*
G03*
X8806500Y-7002500I0J30000D01*
G01*
D14*
X9125713Y-6188713D02*
X9125713Y-6146287D01*
X9083287Y-6146287D01*
X9083287Y-6188713D01*
X9125713Y-6188713D01*
D11*
X9179500Y-6137500D02*
X9029500Y-6137500D01*
X9179500Y-6197500D02*
X9029500Y-6197500D01*
X9029500Y-6137500D02*
G75*
G03*
X9029500Y-6197500I0J-30000D01*
G01*
X9179500Y-6197500D02*
G75*
G03*
X9179500Y-6137500I0J30000D01*
G01*
D14*
X9125713Y-7053713D02*
X9125713Y-7011287D01*
X9083287Y-7011287D01*
X9083287Y-7053713D01*
X9125713Y-7053713D01*
D11*
X9179500Y-7002500D02*
X9029500Y-7002500D01*
X9179500Y-7062500D02*
X9029500Y-7062500D01*
X9029500Y-7002500D02*
G75*
G03*
X9029500Y-7062500I0J-30000D01*
G01*
X9179500Y-7062500D02*
G75*
G03*
X9179500Y-7002500I0J30000D01*
G01*
D10*
X9347200Y-8026100D02*
X9397200Y-7976100D01*
X9347200Y-7926100D01*
X9297200Y-7976100D01*
X9347200Y-8026100D01*
X9347200Y-8280100D02*
X9397200Y-8230100D01*
X9347200Y-8180100D01*
X9297200Y-8230100D01*
X9347200Y-8280100D01*
D15*
X17668750Y-6035000D02*
X17798750Y-6165000D01*
X17798750Y-6035000D02*
X17668750Y-6165000D01*
X17798750Y-6100000D02*
G75*
G03*
X17798750Y-6100000I-65000J0D01*
G01*
X17668750Y-6535000D02*
X17798750Y-6665000D01*
X17798750Y-6535000D02*
X17668750Y-6665000D01*
X17798750Y-6600000D02*
G75*
G03*
X17798750Y-6600000I-65000J0D01*
G01*
X17668750Y-7035000D02*
X17798750Y-7165000D01*
X17798750Y-7035000D02*
X17668750Y-7165000D01*
X17798750Y-7100000D02*
G75*
G03*
X17798750Y-7100000I-65000J0D01*
G01*
D16*
X9740000Y-5545000D02*
X9920000Y-5725000D01*
X9920000Y-5545000D02*
X9740000Y-5725000D01*
X9830000Y-5545000D02*
X9830000Y-5725000D01*
X9740000Y-5635000D02*
X9920000Y-5635000D01*
X9740000Y-7475000D02*
X9920000Y-7655000D01*
X9920000Y-7475000D02*
X9740000Y-7655000D01*
X9830000Y-7475000D02*
X9830000Y-7655000D01*
X9740000Y-7565000D02*
X9920000Y-7565000D01*
X16880000Y-5545000D02*
X17060000Y-5725000D01*
X17060000Y-5545000D02*
X16880000Y-5725000D01*
X16970000Y-5545000D02*
X16970000Y-5725000D01*
X16880000Y-5635000D02*
X17060000Y-5635000D01*
X16880000Y-7475000D02*
X17060000Y-7655000D01*
X17060000Y-7475000D02*
X16880000Y-7655000D01*
X16970000Y-7475000D02*
X16970000Y-7655000D01*
X16880000Y-7565000D02*
X17060000Y-7565000D01*
D11*
X8852619Y-8915476D02*
X8852619Y-8715476D01*
X8900238Y-8715476D01*
X8928810Y-8725000D01*
X8947857Y-8744048D01*
X8957381Y-8763095D01*
X8966905Y-8801190D01*
X8966905Y-8829762D01*
X8957381Y-8867857D01*
X8947857Y-8886905D01*
X8928810Y-8905952D01*
X8900238Y-8915476D01*
X8852619Y-8915476D01*
X9052619Y-8915476D02*
X9052619Y-8782143D01*
X9052619Y-8820238D02*
X9062143Y-8801190D01*
X9071667Y-8791667D01*
X9090714Y-8782143D01*
X9109762Y-8782143D01*
X9176429Y-8915476D02*
X9176429Y-8782143D01*
X9176429Y-8715476D02*
X9166905Y-8725000D01*
X9176429Y-8734524D01*
X9185952Y-8725000D01*
X9176429Y-8715476D01*
X9176429Y-8734524D01*
X9300238Y-8915476D02*
X9281190Y-8905952D01*
X9271667Y-8886905D01*
X9271667Y-8715476D01*
X9405000Y-8915476D02*
X9385952Y-8905952D01*
X9376429Y-8886905D01*
X9376429Y-8715476D01*
X9633571Y-8915476D02*
X9633571Y-8715476D01*
X9700238Y-8858333D01*
X9766905Y-8715476D01*
X9766905Y-8915476D01*
X9947857Y-8915476D02*
X9947857Y-8810714D01*
X9938333Y-8791667D01*
X9919286Y-8782143D01*
X9881190Y-8782143D01*
X9862143Y-8791667D01*
X9947857Y-8905952D02*
X9928810Y-8915476D01*
X9881190Y-8915476D01*
X9862143Y-8905952D01*
X9852619Y-8886905D01*
X9852619Y-8867857D01*
X9862143Y-8848810D01*
X9881190Y-8839286D01*
X9928810Y-8839286D01*
X9947857Y-8829762D01*
X10043095Y-8782143D02*
X10043095Y-8982143D01*
X10043095Y-8791667D02*
X10062143Y-8782143D01*
X10100238Y-8782143D01*
X10119286Y-8791667D01*
X10128810Y-8801190D01*
X10138333Y-8820238D01*
X10138333Y-8877381D01*
X10128810Y-8896429D01*
X10119286Y-8905952D01*
X10100238Y-8915476D01*
X10062143Y-8915476D01*
X10043095Y-8905952D01*
X10224048Y-8896429D02*
X10233571Y-8905952D01*
X10224048Y-8915476D01*
X10214524Y-8905952D01*
X10224048Y-8896429D01*
X10224048Y-8915476D01*
X10224048Y-8791667D02*
X10233571Y-8801190D01*
X10224048Y-8810714D01*
X10214524Y-8801190D01*
X10224048Y-8791667D01*
X10224048Y-8810714D01*
D12*
X8565000Y-9230000D02*
X8595000Y-9260000D01*
X8595000Y-9230000D02*
X8565000Y-9260000D01*
D11*
X8890714Y-9135476D02*
X8909762Y-9135476D01*
X8928810Y-9145000D01*
X8938333Y-9154524D01*
X8947857Y-9173571D01*
X8957381Y-9211667D01*
X8957381Y-9259286D01*
X8947857Y-9297381D01*
X8938333Y-9316429D01*
X8928810Y-9325952D01*
X8909762Y-9335476D01*
X8890714Y-9335476D01*
X8871667Y-9325952D01*
X8862143Y-9316429D01*
X8852619Y-9297381D01*
X8843095Y-9259286D01*
X8843095Y-9211667D01*
X8852619Y-9173571D01*
X8862143Y-9154524D01*
X8871667Y-9145000D01*
X8890714Y-9135476D01*
X9043095Y-9316429D02*
X9052619Y-9325952D01*
X9043095Y-9335476D01*
X9033571Y-9325952D01*
X9043095Y-9316429D01*
X9043095Y-9335476D01*
X9119286Y-9135476D02*
X9243095Y-9135476D01*
X9176429Y-9211667D01*
X9205000Y-9211667D01*
X9224048Y-9221190D01*
X9233571Y-9230714D01*
X9243095Y-9249762D01*
X9243095Y-9297381D01*
X9233571Y-9316429D01*
X9224048Y-9325952D01*
X9205000Y-9335476D01*
X9147857Y-9335476D01*
X9128810Y-9325952D01*
X9119286Y-9316429D01*
X9366905Y-9135476D02*
X9385952Y-9135476D01*
X9405000Y-9145000D01*
X9414524Y-9154524D01*
X9424048Y-9173571D01*
X9433571Y-9211667D01*
X9433571Y-9259286D01*
X9424048Y-9297381D01*
X9414524Y-9316429D01*
X9405000Y-9325952D01*
X9385952Y-9335476D01*
X9366905Y-9335476D01*
X9347857Y-9325952D01*
X9338333Y-9316429D01*
X9328810Y-9297381D01*
X9319286Y-9259286D01*
X9319286Y-9211667D01*
X9328810Y-9173571D01*
X9338333Y-9154524D01*
X9347857Y-9145000D01*
X9366905Y-9135476D01*
X9557381Y-9135476D02*
X9576429Y-9135476D01*
X9595476Y-9145000D01*
X9605000Y-9154524D01*
X9614524Y-9173571D01*
X9624048Y-9211667D01*
X9624048Y-9259286D01*
X9614524Y-9297381D01*
X9605000Y-9316429D01*
X9595476Y-9325952D01*
X9576429Y-9335476D01*
X9557381Y-9335476D01*
X9538333Y-9325952D01*
X9528810Y-9316429D01*
X9519286Y-9297381D01*
X9509762Y-9259286D01*
X9509762Y-9211667D01*
X9519286Y-9173571D01*
X9528810Y-9154524D01*
X9538333Y-9145000D01*
X9557381Y-9135476D01*
X9709762Y-9335476D02*
X9709762Y-9202143D01*
X9709762Y-9221190D02*
X9719286Y-9211667D01*
X9738333Y-9202143D01*
X9766905Y-9202143D01*
X9785952Y-9211667D01*
X9795476Y-9230714D01*
X9795476Y-9335476D01*
X9795476Y-9230714D02*
X9805000Y-9211667D01*
X9824048Y-9202143D01*
X9852619Y-9202143D01*
X9871667Y-9211667D01*
X9881190Y-9230714D01*
X9881190Y-9335476D01*
X9976429Y-9335476D02*
X9976429Y-9202143D01*
X9976429Y-9221190D02*
X9985952Y-9211667D01*
X10005000Y-9202143D01*
X10033571Y-9202143D01*
X10052619Y-9211667D01*
X10062143Y-9230714D01*
X10062143Y-9335476D01*
X10062143Y-9230714D02*
X10071667Y-9211667D01*
X10090714Y-9202143D01*
X10119286Y-9202143D01*
X10138333Y-9211667D01*
X10147857Y-9230714D01*
X10147857Y-9335476D01*
X10538333Y-9125952D02*
X10366905Y-9383095D01*
X10795476Y-9135476D02*
X10814524Y-9135476D01*
X10833571Y-9145000D01*
X10843095Y-9154524D01*
X10852619Y-9173571D01*
X10862143Y-9211667D01*
X10862143Y-9259286D01*
X10852619Y-9297381D01*
X10843095Y-9316429D01*
X10833571Y-9325952D01*
X10814524Y-9335476D01*
X10795476Y-9335476D01*
X10776429Y-9325952D01*
X10766905Y-9316429D01*
X10757381Y-9297381D01*
X10747857Y-9259286D01*
X10747857Y-9211667D01*
X10757381Y-9173571D01*
X10766905Y-9154524D01*
X10776429Y-9145000D01*
X10795476Y-9135476D01*
X10947857Y-9316429D02*
X10957381Y-9325952D01*
X10947857Y-9335476D01*
X10938333Y-9325952D01*
X10947857Y-9316429D01*
X10947857Y-9335476D01*
X11081190Y-9135476D02*
X11100238Y-9135476D01*
X11119286Y-9145000D01*
X11128810Y-9154524D01*
X11138333Y-9173571D01*
X11147857Y-9211667D01*
X11147857Y-9259286D01*
X11138333Y-9297381D01*
X11128810Y-9316429D01*
X11119286Y-9325952D01*
X11100238Y-9335476D01*
X11081190Y-9335476D01*
X11062143Y-9325952D01*
X11052619Y-9316429D01*
X11043095Y-9297381D01*
X11033571Y-9259286D01*
X11033571Y-9211667D01*
X11043095Y-9173571D01*
X11052619Y-9154524D01*
X11062143Y-9145000D01*
X11081190Y-9135476D01*
X11338333Y-9335476D02*
X11224048Y-9335476D01*
X11281190Y-9335476D02*
X11281190Y-9135476D01*
X11262143Y-9164048D01*
X11243095Y-9183095D01*
X11224048Y-9192619D01*
X11528809Y-9335476D02*
X11414524Y-9335476D01*
X11471667Y-9335476D02*
X11471667Y-9135476D01*
X11452619Y-9164048D01*
X11433571Y-9183095D01*
X11414524Y-9192619D01*
X11643095Y-9221190D02*
X11624048Y-9211667D01*
X11614524Y-9202143D01*
X11605000Y-9183095D01*
X11605000Y-9173571D01*
X11614524Y-9154524D01*
X11624048Y-9145000D01*
X11643095Y-9135476D01*
X11681190Y-9135476D01*
X11700238Y-9145000D01*
X11709762Y-9154524D01*
X11719286Y-9173571D01*
X11719286Y-9183095D01*
X11709762Y-9202143D01*
X11700238Y-9211667D01*
X11681190Y-9221190D01*
X11643095Y-9221190D01*
X11624048Y-9230714D01*
X11614524Y-9240238D01*
X11605000Y-9259286D01*
X11605000Y-9297381D01*
X11614524Y-9316429D01*
X11624048Y-9325952D01*
X11643095Y-9335476D01*
X11681190Y-9335476D01*
X11700238Y-9325952D01*
X11709762Y-9316429D01*
X11719286Y-9297381D01*
X11719286Y-9259286D01*
X11709762Y-9240238D01*
X11700238Y-9230714D01*
X11681190Y-9221190D01*
X11795476Y-9135476D02*
X11795476Y-9173571D01*
X11871667Y-9135476D02*
X11871667Y-9173571D01*
X12166905Y-9411667D02*
X12157381Y-9402143D01*
X12138333Y-9373571D01*
X12128809Y-9354524D01*
X12119286Y-9325952D01*
X12109762Y-9278333D01*
X12109762Y-9240238D01*
X12119286Y-9192619D01*
X12128809Y-9164048D01*
X12138333Y-9145000D01*
X12157381Y-9116429D01*
X12166905Y-9106905D01*
X12328809Y-9202143D02*
X12328809Y-9335476D01*
X12281190Y-9125952D02*
X12233571Y-9268810D01*
X12357381Y-9268810D01*
X12424048Y-9154524D02*
X12433571Y-9145000D01*
X12452619Y-9135476D01*
X12500238Y-9135476D01*
X12519286Y-9145000D01*
X12528809Y-9154524D01*
X12538333Y-9173571D01*
X12538333Y-9192619D01*
X12528809Y-9221190D01*
X12414524Y-9335476D01*
X12538333Y-9335476D01*
X12776428Y-9335476D02*
X12776428Y-9135476D01*
X12862143Y-9335476D02*
X12862143Y-9230714D01*
X12852619Y-9211667D01*
X12833571Y-9202143D01*
X12805000Y-9202143D01*
X12785952Y-9211667D01*
X12776428Y-9221190D01*
X12985952Y-9335476D02*
X12966905Y-9325952D01*
X12957381Y-9316429D01*
X12947857Y-9297381D01*
X12947857Y-9240238D01*
X12957381Y-9221190D01*
X12966905Y-9211667D01*
X12985952Y-9202143D01*
X13014524Y-9202143D01*
X13033571Y-9211667D01*
X13043095Y-9221190D01*
X13052619Y-9240238D01*
X13052619Y-9297381D01*
X13043095Y-9316429D01*
X13033571Y-9325952D01*
X13014524Y-9335476D01*
X12985952Y-9335476D01*
X13166905Y-9335476D02*
X13147857Y-9325952D01*
X13138333Y-9306905D01*
X13138333Y-9135476D01*
X13319286Y-9325952D02*
X13300238Y-9335476D01*
X13262143Y-9335476D01*
X13243095Y-9325952D01*
X13233571Y-9306905D01*
X13233571Y-9230714D01*
X13243095Y-9211667D01*
X13262143Y-9202143D01*
X13300238Y-9202143D01*
X13319286Y-9211667D01*
X13328809Y-9230714D01*
X13328809Y-9249762D01*
X13233571Y-9268810D01*
X13405000Y-9325952D02*
X13424048Y-9335476D01*
X13462143Y-9335476D01*
X13481190Y-9325952D01*
X13490714Y-9306905D01*
X13490714Y-9297381D01*
X13481190Y-9278333D01*
X13462143Y-9268810D01*
X13433571Y-9268810D01*
X13414524Y-9259286D01*
X13405000Y-9240238D01*
X13405000Y-9230714D01*
X13414524Y-9211667D01*
X13433571Y-9202143D01*
X13462143Y-9202143D01*
X13481190Y-9211667D01*
X13557381Y-9411667D02*
X13566905Y-9402143D01*
X13585952Y-9373571D01*
X13595476Y-9354524D01*
X13605000Y-9325952D01*
X13614524Y-9278333D01*
X13614524Y-9240238D01*
X13605000Y-9192619D01*
X13595476Y-9164048D01*
X13585952Y-9145000D01*
X13566905Y-9116429D01*
X13557381Y-9106905D01*
D13*
X8595000Y-9509000D02*
G75*
G03*
X8595000Y-9509000I-20000J0D01*
G01*
D11*
X8890714Y-9399476D02*
X8909762Y-9399476D01*
X8928810Y-9409000D01*
X8938333Y-9418524D01*
X8947857Y-9437571D01*
X8957381Y-9475667D01*
X8957381Y-9523286D01*
X8947857Y-9561381D01*
X8938333Y-9580429D01*
X8928810Y-9589952D01*
X8909762Y-9599476D01*
X8890714Y-9599476D01*
X8871667Y-9589952D01*
X8862143Y-9580429D01*
X8852619Y-9561381D01*
X8843095Y-9523286D01*
X8843095Y-9475667D01*
X8852619Y-9437571D01*
X8862143Y-9418524D01*
X8871667Y-9409000D01*
X8890714Y-9399476D01*
X9043095Y-9580429D02*
X9052619Y-9589952D01*
X9043095Y-9599476D01*
X9033571Y-9589952D01*
X9043095Y-9580429D01*
X9043095Y-9599476D01*
X9224048Y-9466143D02*
X9224048Y-9599476D01*
X9176429Y-9389952D02*
X9128810Y-9532810D01*
X9252619Y-9532810D01*
X9366905Y-9399476D02*
X9385952Y-9399476D01*
X9405000Y-9409000D01*
X9414524Y-9418524D01*
X9424048Y-9437571D01*
X9433571Y-9475667D01*
X9433571Y-9523286D01*
X9424048Y-9561381D01*
X9414524Y-9580429D01*
X9405000Y-9589952D01*
X9385952Y-9599476D01*
X9366905Y-9599476D01*
X9347857Y-9589952D01*
X9338333Y-9580429D01*
X9328810Y-9561381D01*
X9319286Y-9523286D01*
X9319286Y-9475667D01*
X9328810Y-9437571D01*
X9338333Y-9418524D01*
X9347857Y-9409000D01*
X9366905Y-9399476D01*
X9557381Y-9399476D02*
X9576429Y-9399476D01*
X9595476Y-9409000D01*
X9605000Y-9418524D01*
X9614524Y-9437571D01*
X9624048Y-9475667D01*
X9624048Y-9523286D01*
X9614524Y-9561381D01*
X9605000Y-9580429D01*
X9595476Y-9589952D01*
X9576429Y-9599476D01*
X9557381Y-9599476D01*
X9538333Y-9589952D01*
X9528810Y-9580429D01*
X9519286Y-9561381D01*
X9509762Y-9523286D01*
X9509762Y-9475667D01*
X9519286Y-9437571D01*
X9528810Y-9418524D01*
X9538333Y-9409000D01*
X9557381Y-9399476D01*
X9709762Y-9599476D02*
X9709762Y-9466143D01*
X9709762Y-9485190D02*
X9719286Y-9475667D01*
X9738333Y-9466143D01*
X9766905Y-9466143D01*
X9785952Y-9475667D01*
X9795476Y-9494714D01*
X9795476Y-9599476D01*
X9795476Y-9494714D02*
X9805000Y-9475667D01*
X9824048Y-9466143D01*
X9852619Y-9466143D01*
X9871667Y-9475667D01*
X9881190Y-9494714D01*
X9881190Y-9599476D01*
X9976429Y-9599476D02*
X9976429Y-9466143D01*
X9976429Y-9485190D02*
X9985952Y-9475667D01*
X10005000Y-9466143D01*
X10033571Y-9466143D01*
X10052619Y-9475667D01*
X10062143Y-9494714D01*
X10062143Y-9599476D01*
X10062143Y-9494714D02*
X10071667Y-9475667D01*
X10090714Y-9466143D01*
X10119286Y-9466143D01*
X10138333Y-9475667D01*
X10147857Y-9494714D01*
X10147857Y-9599476D01*
X10538333Y-9389952D02*
X10366905Y-9647095D01*
X10795476Y-9399476D02*
X10814524Y-9399476D01*
X10833571Y-9409000D01*
X10843095Y-9418524D01*
X10852619Y-9437571D01*
X10862143Y-9475667D01*
X10862143Y-9523286D01*
X10852619Y-9561381D01*
X10843095Y-9580429D01*
X10833571Y-9589952D01*
X10814524Y-9599476D01*
X10795476Y-9599476D01*
X10776429Y-9589952D01*
X10766905Y-9580429D01*
X10757381Y-9561381D01*
X10747857Y-9523286D01*
X10747857Y-9475667D01*
X10757381Y-9437571D01*
X10766905Y-9418524D01*
X10776429Y-9409000D01*
X10795476Y-9399476D01*
X10947857Y-9580429D02*
X10957381Y-9589952D01*
X10947857Y-9599476D01*
X10938333Y-9589952D01*
X10947857Y-9580429D01*
X10947857Y-9599476D01*
X11081190Y-9399476D02*
X11100238Y-9399476D01*
X11119286Y-9409000D01*
X11128810Y-9418524D01*
X11138333Y-9437571D01*
X11147857Y-9475667D01*
X11147857Y-9523286D01*
X11138333Y-9561381D01*
X11128810Y-9580429D01*
X11119286Y-9589952D01*
X11100238Y-9599476D01*
X11081190Y-9599476D01*
X11062143Y-9589952D01*
X11052619Y-9580429D01*
X11043095Y-9561381D01*
X11033571Y-9523286D01*
X11033571Y-9475667D01*
X11043095Y-9437571D01*
X11052619Y-9418524D01*
X11062143Y-9409000D01*
X11081190Y-9399476D01*
X11338333Y-9599476D02*
X11224048Y-9599476D01*
X11281190Y-9599476D02*
X11281190Y-9399476D01*
X11262143Y-9428048D01*
X11243095Y-9447095D01*
X11224048Y-9456619D01*
X11519286Y-9399476D02*
X11424048Y-9399476D01*
X11414524Y-9494714D01*
X11424048Y-9485190D01*
X11443095Y-9475667D01*
X11490714Y-9475667D01*
X11509762Y-9485190D01*
X11519286Y-9494714D01*
X11528809Y-9513762D01*
X11528809Y-9561381D01*
X11519286Y-9580429D01*
X11509762Y-9589952D01*
X11490714Y-9599476D01*
X11443095Y-9599476D01*
X11424048Y-9589952D01*
X11414524Y-9580429D01*
X11595476Y-9399476D02*
X11728809Y-9399476D01*
X11643095Y-9599476D01*
X11795476Y-9399476D02*
X11795476Y-9437571D01*
X11871667Y-9399476D02*
X11871667Y-9437571D01*
X12166905Y-9675667D02*
X12157381Y-9666143D01*
X12138333Y-9637571D01*
X12128809Y-9618524D01*
X12119286Y-9589952D01*
X12109762Y-9542333D01*
X12109762Y-9504238D01*
X12119286Y-9456619D01*
X12128809Y-9428048D01*
X12138333Y-9409000D01*
X12157381Y-9380429D01*
X12166905Y-9370905D01*
X12233571Y-9418524D02*
X12243095Y-9409000D01*
X12262143Y-9399476D01*
X12309762Y-9399476D01*
X12328809Y-9409000D01*
X12338333Y-9418524D01*
X12347857Y-9437571D01*
X12347857Y-9456619D01*
X12338333Y-9485190D01*
X12224048Y-9599476D01*
X12347857Y-9599476D01*
X12519286Y-9466143D02*
X12519286Y-9599476D01*
X12471667Y-9389952D02*
X12424048Y-9532810D01*
X12547857Y-9532810D01*
X12605000Y-9399476D02*
X12728809Y-9399476D01*
X12662143Y-9475667D01*
X12690714Y-9475667D01*
X12709762Y-9485190D01*
X12719286Y-9494714D01*
X12728809Y-9513762D01*
X12728809Y-9561381D01*
X12719286Y-9580429D01*
X12709762Y-9589952D01*
X12690714Y-9599476D01*
X12633571Y-9599476D01*
X12614524Y-9589952D01*
X12605000Y-9580429D01*
X12966905Y-9599476D02*
X12966905Y-9399476D01*
X13052619Y-9599476D02*
X13052619Y-9494714D01*
X13043095Y-9475667D01*
X13024048Y-9466143D01*
X12995476Y-9466143D01*
X12976428Y-9475667D01*
X12966905Y-9485190D01*
X13176428Y-9599476D02*
X13157381Y-9589952D01*
X13147857Y-9580429D01*
X13138333Y-9561381D01*
X13138333Y-9504238D01*
X13147857Y-9485190D01*
X13157381Y-9475667D01*
X13176428Y-9466143D01*
X13205000Y-9466143D01*
X13224048Y-9475667D01*
X13233571Y-9485190D01*
X13243095Y-9504238D01*
X13243095Y-9561381D01*
X13233571Y-9580429D01*
X13224048Y-9589952D01*
X13205000Y-9599476D01*
X13176428Y-9599476D01*
X13357381Y-9599476D02*
X13338333Y-9589952D01*
X13328809Y-9570905D01*
X13328809Y-9399476D01*
X13509762Y-9589952D02*
X13490714Y-9599476D01*
X13452619Y-9599476D01*
X13433571Y-9589952D01*
X13424048Y-9570905D01*
X13424048Y-9494714D01*
X13433571Y-9475667D01*
X13452619Y-9466143D01*
X13490714Y-9466143D01*
X13509762Y-9475667D01*
X13519286Y-9494714D01*
X13519286Y-9513762D01*
X13424048Y-9532810D01*
X13595476Y-9589952D02*
X13614524Y-9599476D01*
X13652619Y-9599476D01*
X13671667Y-9589952D01*
X13681190Y-9570905D01*
X13681190Y-9561381D01*
X13671667Y-9542333D01*
X13652619Y-9532810D01*
X13624048Y-9532810D01*
X13605000Y-9523286D01*
X13595476Y-9504238D01*
X13595476Y-9494714D01*
X13605000Y-9475667D01*
X13624048Y-9466143D01*
X13652619Y-9466143D01*
X13671667Y-9475667D01*
X13747857Y-9675667D02*
X13757381Y-9666143D01*
X13776428Y-9637571D01*
X13785952Y-9618524D01*
X13795476Y-9589952D01*
X13805000Y-9542333D01*
X13805000Y-9504238D01*
X13795476Y-9456619D01*
X13785952Y-9428048D01*
X13776428Y-9409000D01*
X13757381Y-9380429D01*
X13747857Y-9370905D01*
D13*
X8575000Y-9753000D02*
X8575000Y-9793000D01*
X8555000Y-9773000D02*
X8595000Y-9773000D01*
D11*
X8890714Y-9663476D02*
X8909762Y-9663476D01*
X8928810Y-9673000D01*
X8938333Y-9682524D01*
X8947857Y-9701571D01*
X8957381Y-9739667D01*
X8957381Y-9787286D01*
X8947857Y-9825381D01*
X8938333Y-9844429D01*
X8928810Y-9853952D01*
X8909762Y-9863476D01*
X8890714Y-9863476D01*
X8871667Y-9853952D01*
X8862143Y-9844429D01*
X8852619Y-9825381D01*
X8843095Y-9787286D01*
X8843095Y-9739667D01*
X8852619Y-9701571D01*
X8862143Y-9682524D01*
X8871667Y-9673000D01*
X8890714Y-9663476D01*
X9043095Y-9844429D02*
X9052619Y-9853952D01*
X9043095Y-9863476D01*
X9033571Y-9853952D01*
X9043095Y-9844429D01*
X9043095Y-9863476D01*
X9224048Y-9730143D02*
X9224048Y-9863476D01*
X9176429Y-9653952D02*
X9128810Y-9796810D01*
X9252619Y-9796810D01*
X9366905Y-9663476D02*
X9385952Y-9663476D01*
X9405000Y-9673000D01*
X9414524Y-9682524D01*
X9424048Y-9701571D01*
X9433571Y-9739667D01*
X9433571Y-9787286D01*
X9424048Y-9825381D01*
X9414524Y-9844429D01*
X9405000Y-9853952D01*
X9385952Y-9863476D01*
X9366905Y-9863476D01*
X9347857Y-9853952D01*
X9338333Y-9844429D01*
X9328810Y-9825381D01*
X9319286Y-9787286D01*
X9319286Y-9739667D01*
X9328810Y-9701571D01*
X9338333Y-9682524D01*
X9347857Y-9673000D01*
X9366905Y-9663476D01*
X9557381Y-9663476D02*
X9576429Y-9663476D01*
X9595476Y-9673000D01*
X9605000Y-9682524D01*
X9614524Y-9701571D01*
X9624048Y-9739667D01*
X9624048Y-9787286D01*
X9614524Y-9825381D01*
X9605000Y-9844429D01*
X9595476Y-9853952D01*
X9576429Y-9863476D01*
X9557381Y-9863476D01*
X9538333Y-9853952D01*
X9528810Y-9844429D01*
X9519286Y-9825381D01*
X9509762Y-9787286D01*
X9509762Y-9739667D01*
X9519286Y-9701571D01*
X9528810Y-9682524D01*
X9538333Y-9673000D01*
X9557381Y-9663476D01*
X9709762Y-9863476D02*
X9709762Y-9730143D01*
X9709762Y-9749190D02*
X9719286Y-9739667D01*
X9738333Y-9730143D01*
X9766905Y-9730143D01*
X9785952Y-9739667D01*
X9795476Y-9758714D01*
X9795476Y-9863476D01*
X9795476Y-9758714D02*
X9805000Y-9739667D01*
X9824048Y-9730143D01*
X9852619Y-9730143D01*
X9871667Y-9739667D01*
X9881190Y-9758714D01*
X9881190Y-9863476D01*
X9976429Y-9863476D02*
X9976429Y-9730143D01*
X9976429Y-9749190D02*
X9985952Y-9739667D01*
X10005000Y-9730143D01*
X10033571Y-9730143D01*
X10052619Y-9739667D01*
X10062143Y-9758714D01*
X10062143Y-9863476D01*
X10062143Y-9758714D02*
X10071667Y-9739667D01*
X10090714Y-9730143D01*
X10119286Y-9730143D01*
X10138333Y-9739667D01*
X10147857Y-9758714D01*
X10147857Y-9863476D01*
X10538333Y-9653952D02*
X10366905Y-9911095D01*
X10795476Y-9663476D02*
X10814524Y-9663476D01*
X10833571Y-9673000D01*
X10843095Y-9682524D01*
X10852619Y-9701571D01*
X10862143Y-9739667D01*
X10862143Y-9787286D01*
X10852619Y-9825381D01*
X10843095Y-9844429D01*
X10833571Y-9853952D01*
X10814524Y-9863476D01*
X10795476Y-9863476D01*
X10776429Y-9853952D01*
X10766905Y-9844429D01*
X10757381Y-9825381D01*
X10747857Y-9787286D01*
X10747857Y-9739667D01*
X10757381Y-9701571D01*
X10766905Y-9682524D01*
X10776429Y-9673000D01*
X10795476Y-9663476D01*
X10947857Y-9844429D02*
X10957381Y-9853952D01*
X10947857Y-9863476D01*
X10938333Y-9853952D01*
X10947857Y-9844429D01*
X10947857Y-9863476D01*
X11081190Y-9663476D02*
X11100238Y-9663476D01*
X11119286Y-9673000D01*
X11128810Y-9682524D01*
X11138333Y-9701571D01*
X11147857Y-9739667D01*
X11147857Y-9787286D01*
X11138333Y-9825381D01*
X11128810Y-9844429D01*
X11119286Y-9853952D01*
X11100238Y-9863476D01*
X11081190Y-9863476D01*
X11062143Y-9853952D01*
X11052619Y-9844429D01*
X11043095Y-9825381D01*
X11033571Y-9787286D01*
X11033571Y-9739667D01*
X11043095Y-9701571D01*
X11052619Y-9682524D01*
X11062143Y-9673000D01*
X11081190Y-9663476D01*
X11338333Y-9863476D02*
X11224048Y-9863476D01*
X11281190Y-9863476D02*
X11281190Y-9663476D01*
X11262143Y-9692048D01*
X11243095Y-9711095D01*
X11224048Y-9720619D01*
X11519286Y-9663476D02*
X11424048Y-9663476D01*
X11414524Y-9758714D01*
X11424048Y-9749190D01*
X11443095Y-9739667D01*
X11490714Y-9739667D01*
X11509762Y-9749190D01*
X11519286Y-9758714D01*
X11528809Y-9777762D01*
X11528809Y-9825381D01*
X11519286Y-9844429D01*
X11509762Y-9853952D01*
X11490714Y-9863476D01*
X11443095Y-9863476D01*
X11424048Y-9853952D01*
X11414524Y-9844429D01*
X11595476Y-9663476D02*
X11728809Y-9663476D01*
X11643095Y-9863476D01*
X11795476Y-9663476D02*
X11795476Y-9701571D01*
X11871667Y-9663476D02*
X11871667Y-9701571D01*
X12166905Y-9939667D02*
X12157381Y-9930143D01*
X12138333Y-9901571D01*
X12128809Y-9882524D01*
X12119286Y-9853952D01*
X12109762Y-9806333D01*
X12109762Y-9768238D01*
X12119286Y-9720619D01*
X12128809Y-9692048D01*
X12138333Y-9673000D01*
X12157381Y-9644429D01*
X12166905Y-9634905D01*
X12347857Y-9863476D02*
X12233571Y-9863476D01*
X12290714Y-9863476D02*
X12290714Y-9663476D01*
X12271667Y-9692048D01*
X12252619Y-9711095D01*
X12233571Y-9720619D01*
X12519286Y-9663476D02*
X12481190Y-9663476D01*
X12462143Y-9673000D01*
X12452619Y-9682524D01*
X12433571Y-9711095D01*
X12424048Y-9749190D01*
X12424048Y-9825381D01*
X12433571Y-9844429D01*
X12443095Y-9853952D01*
X12462143Y-9863476D01*
X12500238Y-9863476D01*
X12519286Y-9853952D01*
X12528809Y-9844429D01*
X12538333Y-9825381D01*
X12538333Y-9777762D01*
X12528809Y-9758714D01*
X12519286Y-9749190D01*
X12500238Y-9739667D01*
X12462143Y-9739667D01*
X12443095Y-9749190D01*
X12433571Y-9758714D01*
X12424048Y-9777762D01*
X12776428Y-9863476D02*
X12776428Y-9663476D01*
X12862143Y-9863476D02*
X12862143Y-9758714D01*
X12852619Y-9739667D01*
X12833571Y-9730143D01*
X12805000Y-9730143D01*
X12785952Y-9739667D01*
X12776428Y-9749190D01*
X12985952Y-9863476D02*
X12966905Y-9853952D01*
X12957381Y-9844429D01*
X12947857Y-9825381D01*
X12947857Y-9768238D01*
X12957381Y-9749190D01*
X12966905Y-9739667D01*
X12985952Y-9730143D01*
X13014524Y-9730143D01*
X13033571Y-9739667D01*
X13043095Y-9749190D01*
X13052619Y-9768238D01*
X13052619Y-9825381D01*
X13043095Y-9844429D01*
X13033571Y-9853952D01*
X13014524Y-9863476D01*
X12985952Y-9863476D01*
X13166905Y-9863476D02*
X13147857Y-9853952D01*
X13138333Y-9834905D01*
X13138333Y-9663476D01*
X13319286Y-9853952D02*
X13300238Y-9863476D01*
X13262143Y-9863476D01*
X13243095Y-9853952D01*
X13233571Y-9834905D01*
X13233571Y-9758714D01*
X13243095Y-9739667D01*
X13262143Y-9730143D01*
X13300238Y-9730143D01*
X13319286Y-9739667D01*
X13328809Y-9758714D01*
X13328809Y-9777762D01*
X13233571Y-9796810D01*
X13405000Y-9853952D02*
X13424048Y-9863476D01*
X13462143Y-9863476D01*
X13481190Y-9853952D01*
X13490714Y-9834905D01*
X13490714Y-9825381D01*
X13481190Y-9806333D01*
X13462143Y-9796810D01*
X13433571Y-9796810D01*
X13414524Y-9787286D01*
X13405000Y-9768238D01*
X13405000Y-9758714D01*
X13414524Y-9739667D01*
X13433571Y-9730143D01*
X13462143Y-9730143D01*
X13481190Y-9739667D01*
X13557381Y-9939667D02*
X13566905Y-9930143D01*
X13585952Y-9901571D01*
X13595476Y-9882524D01*
X13605000Y-9853952D01*
X13614524Y-9806333D01*
X13614524Y-9768238D01*
X13605000Y-9720619D01*
X13595476Y-9692048D01*
X13585952Y-9673000D01*
X13566905Y-9644429D01*
X13557381Y-9634905D01*
D14*
X8586213Y-10058213D02*
X8586213Y-10015787D01*
X8543787Y-10015787D01*
X8543787Y-10058213D01*
X8586213Y-10058213D01*
D11*
X8890714Y-9927476D02*
X8909762Y-9927476D01*
X8928810Y-9937000D01*
X8938333Y-9946524D01*
X8947857Y-9965571D01*
X8957381Y-10003667D01*
X8957381Y-10051286D01*
X8947857Y-10089381D01*
X8938333Y-10108429D01*
X8928810Y-10117952D01*
X8909762Y-10127476D01*
X8890714Y-10127476D01*
X8871667Y-10117952D01*
X8862143Y-10108429D01*
X8852619Y-10089381D01*
X8843095Y-10051286D01*
X8843095Y-10003667D01*
X8852619Y-9965571D01*
X8862143Y-9946524D01*
X8871667Y-9937000D01*
X8890714Y-9927476D01*
X9043095Y-10108429D02*
X9052619Y-10117952D01*
X9043095Y-10127476D01*
X9033571Y-10117952D01*
X9043095Y-10108429D01*
X9043095Y-10127476D01*
X9224048Y-9927476D02*
X9185952Y-9927476D01*
X9166905Y-9937000D01*
X9157381Y-9946524D01*
X9138333Y-9975095D01*
X9128810Y-10013190D01*
X9128810Y-10089381D01*
X9138333Y-10108429D01*
X9147857Y-10117952D01*
X9166905Y-10127476D01*
X9205000Y-10127476D01*
X9224048Y-10117952D01*
X9233571Y-10108429D01*
X9243095Y-10089381D01*
X9243095Y-10041762D01*
X9233571Y-10022714D01*
X9224048Y-10013190D01*
X9205000Y-10003667D01*
X9166905Y-10003667D01*
X9147857Y-10013190D01*
X9138333Y-10022714D01*
X9128810Y-10041762D01*
X9366905Y-9927476D02*
X9385952Y-9927476D01*
X9405000Y-9937000D01*
X9414524Y-9946524D01*
X9424048Y-9965571D01*
X9433571Y-10003667D01*
X9433571Y-10051286D01*
X9424048Y-10089381D01*
X9414524Y-10108429D01*
X9405000Y-10117952D01*
X9385952Y-10127476D01*
X9366905Y-10127476D01*
X9347857Y-10117952D01*
X9338333Y-10108429D01*
X9328810Y-10089381D01*
X9319286Y-10051286D01*
X9319286Y-10003667D01*
X9328810Y-9965571D01*
X9338333Y-9946524D01*
X9347857Y-9937000D01*
X9366905Y-9927476D01*
X9557381Y-9927476D02*
X9576429Y-9927476D01*
X9595476Y-9937000D01*
X9605000Y-9946524D01*
X9614524Y-9965571D01*
X9624048Y-10003667D01*
X9624048Y-10051286D01*
X9614524Y-10089381D01*
X9605000Y-10108429D01*
X9595476Y-10117952D01*
X9576429Y-10127476D01*
X9557381Y-10127476D01*
X9538333Y-10117952D01*
X9528810Y-10108429D01*
X9519286Y-10089381D01*
X9509762Y-10051286D01*
X9509762Y-10003667D01*
X9519286Y-9965571D01*
X9528810Y-9946524D01*
X9538333Y-9937000D01*
X9557381Y-9927476D01*
X9709762Y-10127476D02*
X9709762Y-9994143D01*
X9709762Y-10013190D02*
X9719286Y-10003667D01*
X9738333Y-9994143D01*
X9766905Y-9994143D01*
X9785952Y-10003667D01*
X9795476Y-10022714D01*
X9795476Y-10127476D01*
X9795476Y-10022714D02*
X9805000Y-10003667D01*
X9824048Y-9994143D01*
X9852619Y-9994143D01*
X9871667Y-10003667D01*
X9881190Y-10022714D01*
X9881190Y-10127476D01*
X9976429Y-10127476D02*
X9976429Y-9994143D01*
X9976429Y-10013190D02*
X9985952Y-10003667D01*
X10005000Y-9994143D01*
X10033571Y-9994143D01*
X10052619Y-10003667D01*
X10062143Y-10022714D01*
X10062143Y-10127476D01*
X10062143Y-10022714D02*
X10071667Y-10003667D01*
X10090714Y-9994143D01*
X10119286Y-9994143D01*
X10138333Y-10003667D01*
X10147857Y-10022714D01*
X10147857Y-10127476D01*
X10538333Y-9917952D02*
X10366905Y-10175095D01*
X10795476Y-9927476D02*
X10814524Y-9927476D01*
X10833571Y-9937000D01*
X10843095Y-9946524D01*
X10852619Y-9965571D01*
X10862143Y-10003667D01*
X10862143Y-10051286D01*
X10852619Y-10089381D01*
X10843095Y-10108429D01*
X10833571Y-10117952D01*
X10814524Y-10127476D01*
X10795476Y-10127476D01*
X10776429Y-10117952D01*
X10766905Y-10108429D01*
X10757381Y-10089381D01*
X10747857Y-10051286D01*
X10747857Y-10003667D01*
X10757381Y-9965571D01*
X10766905Y-9946524D01*
X10776429Y-9937000D01*
X10795476Y-9927476D01*
X10947857Y-10108429D02*
X10957381Y-10117952D01*
X10947857Y-10127476D01*
X10938333Y-10117952D01*
X10947857Y-10108429D01*
X10947857Y-10127476D01*
X11081190Y-9927476D02*
X11100238Y-9927476D01*
X11119286Y-9937000D01*
X11128810Y-9946524D01*
X11138333Y-9965571D01*
X11147857Y-10003667D01*
X11147857Y-10051286D01*
X11138333Y-10089381D01*
X11128810Y-10108429D01*
X11119286Y-10117952D01*
X11100238Y-10127476D01*
X11081190Y-10127476D01*
X11062143Y-10117952D01*
X11052619Y-10108429D01*
X11043095Y-10089381D01*
X11033571Y-10051286D01*
X11033571Y-10003667D01*
X11043095Y-9965571D01*
X11052619Y-9946524D01*
X11062143Y-9937000D01*
X11081190Y-9927476D01*
X11224048Y-9946524D02*
X11233571Y-9937000D01*
X11252619Y-9927476D01*
X11300238Y-9927476D01*
X11319286Y-9937000D01*
X11328809Y-9946524D01*
X11338333Y-9965571D01*
X11338333Y-9984619D01*
X11328809Y-10013190D01*
X11214524Y-10127476D01*
X11338333Y-10127476D01*
X11405000Y-9927476D02*
X11528809Y-9927476D01*
X11462143Y-10003667D01*
X11490714Y-10003667D01*
X11509762Y-10013190D01*
X11519286Y-10022714D01*
X11528809Y-10041762D01*
X11528809Y-10089381D01*
X11519286Y-10108429D01*
X11509762Y-10117952D01*
X11490714Y-10127476D01*
X11433571Y-10127476D01*
X11414524Y-10117952D01*
X11405000Y-10108429D01*
X11700238Y-9927476D02*
X11662143Y-9927476D01*
X11643095Y-9937000D01*
X11633571Y-9946524D01*
X11614524Y-9975095D01*
X11605000Y-10013190D01*
X11605000Y-10089381D01*
X11614524Y-10108429D01*
X11624048Y-10117952D01*
X11643095Y-10127476D01*
X11681190Y-10127476D01*
X11700238Y-10117952D01*
X11709762Y-10108429D01*
X11719286Y-10089381D01*
X11719286Y-10041762D01*
X11709762Y-10022714D01*
X11700238Y-10013190D01*
X11681190Y-10003667D01*
X11643095Y-10003667D01*
X11624048Y-10013190D01*
X11614524Y-10022714D01*
X11605000Y-10041762D01*
X11795476Y-9927476D02*
X11795476Y-9965571D01*
X11871667Y-9927476D02*
X11871667Y-9965571D01*
X12166905Y-10203667D02*
X12157381Y-10194143D01*
X12138333Y-10165571D01*
X12128809Y-10146524D01*
X12119286Y-10117952D01*
X12109762Y-10070333D01*
X12109762Y-10032238D01*
X12119286Y-9984619D01*
X12128809Y-9956048D01*
X12138333Y-9937000D01*
X12157381Y-9908429D01*
X12166905Y-9898905D01*
X12281190Y-9927476D02*
X12300238Y-9927476D01*
X12319286Y-9937000D01*
X12328809Y-9946524D01*
X12338333Y-9965571D01*
X12347857Y-10003667D01*
X12347857Y-10051286D01*
X12338333Y-10089381D01*
X12328809Y-10108429D01*
X12319286Y-10117952D01*
X12300238Y-10127476D01*
X12281190Y-10127476D01*
X12262143Y-10117952D01*
X12252619Y-10108429D01*
X12243095Y-10089381D01*
X12233571Y-10051286D01*
X12233571Y-10003667D01*
X12243095Y-9965571D01*
X12252619Y-9946524D01*
X12262143Y-9937000D01*
X12281190Y-9927476D01*
X12585952Y-10127476D02*
X12585952Y-9927476D01*
X12671667Y-10127476D02*
X12671667Y-10022714D01*
X12662143Y-10003667D01*
X12643095Y-9994143D01*
X12614524Y-9994143D01*
X12595476Y-10003667D01*
X12585952Y-10013190D01*
X12795476Y-10127476D02*
X12776428Y-10117952D01*
X12766905Y-10108429D01*
X12757381Y-10089381D01*
X12757381Y-10032238D01*
X12766905Y-10013190D01*
X12776428Y-10003667D01*
X12795476Y-9994143D01*
X12824048Y-9994143D01*
X12843095Y-10003667D01*
X12852619Y-10013190D01*
X12862143Y-10032238D01*
X12862143Y-10089381D01*
X12852619Y-10108429D01*
X12843095Y-10117952D01*
X12824048Y-10127476D01*
X12795476Y-10127476D01*
X12976428Y-10127476D02*
X12957381Y-10117952D01*
X12947857Y-10098905D01*
X12947857Y-9927476D01*
X13128809Y-10117952D02*
X13109762Y-10127476D01*
X13071667Y-10127476D01*
X13052619Y-10117952D01*
X13043095Y-10098905D01*
X13043095Y-10022714D01*
X13052619Y-10003667D01*
X13071667Y-9994143D01*
X13109762Y-9994143D01*
X13128809Y-10003667D01*
X13138333Y-10022714D01*
X13138333Y-10041762D01*
X13043095Y-10060810D01*
X13214524Y-10117952D02*
X13233571Y-10127476D01*
X13271667Y-10127476D01*
X13290714Y-10117952D01*
X13300238Y-10098905D01*
X13300238Y-10089381D01*
X13290714Y-10070333D01*
X13271667Y-10060810D01*
X13243095Y-10060810D01*
X13224048Y-10051286D01*
X13214524Y-10032238D01*
X13214524Y-10022714D01*
X13224048Y-10003667D01*
X13243095Y-9994143D01*
X13271667Y-9994143D01*
X13290714Y-10003667D01*
X13538333Y-10051286D02*
X13690714Y-10051286D01*
X13614524Y-10127476D02*
X13614524Y-9975095D01*
X14024048Y-9994143D02*
X14024048Y-10127476D01*
X13976428Y-9917952D02*
X13928809Y-10060810D01*
X14052619Y-10060810D01*
X14271667Y-10117952D02*
X14290714Y-10127476D01*
X14328809Y-10127476D01*
X14347857Y-10117952D01*
X14357381Y-10098905D01*
X14357381Y-10089381D01*
X14347857Y-10070333D01*
X14328809Y-10060810D01*
X14300238Y-10060810D01*
X14281190Y-10051286D01*
X14271667Y-10032238D01*
X14271667Y-10022714D01*
X14281190Y-10003667D01*
X14300238Y-9994143D01*
X14328809Y-9994143D01*
X14347857Y-10003667D01*
X14471667Y-10127476D02*
X14452619Y-10117952D01*
X14443095Y-10098905D01*
X14443095Y-9927476D01*
X14576428Y-10127476D02*
X14557381Y-10117952D01*
X14547857Y-10108429D01*
X14538333Y-10089381D01*
X14538333Y-10032238D01*
X14547857Y-10013190D01*
X14557381Y-10003667D01*
X14576428Y-9994143D01*
X14605000Y-9994143D01*
X14624048Y-10003667D01*
X14633571Y-10013190D01*
X14643095Y-10032238D01*
X14643095Y-10089381D01*
X14633571Y-10108429D01*
X14624048Y-10117952D01*
X14605000Y-10127476D01*
X14576428Y-10127476D01*
X14700238Y-9994143D02*
X14776428Y-9994143D01*
X14728809Y-9927476D02*
X14728809Y-10098905D01*
X14738333Y-10117952D01*
X14757381Y-10127476D01*
X14776428Y-10127476D01*
X14833571Y-10117952D02*
X14852619Y-10127476D01*
X14890714Y-10127476D01*
X14909762Y-10117952D01*
X14919286Y-10098905D01*
X14919286Y-10089381D01*
X14909762Y-10070333D01*
X14890714Y-10060810D01*
X14862143Y-10060810D01*
X14843095Y-10051286D01*
X14833571Y-10032238D01*
X14833571Y-10022714D01*
X14843095Y-10003667D01*
X14862143Y-9994143D01*
X14890714Y-9994143D01*
X14909762Y-10003667D01*
X14985952Y-10203667D02*
X14995476Y-10194143D01*
X15014524Y-10165571D01*
X15024048Y-10146524D01*
X15033571Y-10117952D01*
X15043095Y-10070333D01*
X15043095Y-10032238D01*
X15033571Y-9984619D01*
X15024048Y-9956048D01*
X15014524Y-9937000D01*
X14995476Y-9908429D01*
X14985952Y-9898905D01*
D10*
X8545000Y-10351000D02*
X8595000Y-10301000D01*
X8545000Y-10251000D01*
X8495000Y-10301000D01*
X8545000Y-10351000D01*
D11*
X8957381Y-10391476D02*
X8843095Y-10391476D01*
X8900238Y-10391476D02*
X8900238Y-10191476D01*
X8881190Y-10220048D01*
X8862143Y-10239095D01*
X8843095Y-10248619D01*
X9043095Y-10372429D02*
X9052619Y-10381952D01*
X9043095Y-10391476D01*
X9033571Y-10381952D01*
X9043095Y-10372429D01*
X9043095Y-10391476D01*
X9176429Y-10191476D02*
X9195476Y-10191476D01*
X9214524Y-10201000D01*
X9224048Y-10210524D01*
X9233571Y-10229571D01*
X9243095Y-10267667D01*
X9243095Y-10315286D01*
X9233571Y-10353381D01*
X9224048Y-10372429D01*
X9214524Y-10381952D01*
X9195476Y-10391476D01*
X9176429Y-10391476D01*
X9157381Y-10381952D01*
X9147857Y-10372429D01*
X9138333Y-10353381D01*
X9128810Y-10315286D01*
X9128810Y-10267667D01*
X9138333Y-10229571D01*
X9147857Y-10210524D01*
X9157381Y-10201000D01*
X9176429Y-10191476D01*
X9366905Y-10191476D02*
X9385952Y-10191476D01*
X9405000Y-10201000D01*
X9414524Y-10210524D01*
X9424048Y-10229571D01*
X9433571Y-10267667D01*
X9433571Y-10315286D01*
X9424048Y-10353381D01*
X9414524Y-10372429D01*
X9405000Y-10381952D01*
X9385952Y-10391476D01*
X9366905Y-10391476D01*
X9347857Y-10381952D01*
X9338333Y-10372429D01*
X9328810Y-10353381D01*
X9319286Y-10315286D01*
X9319286Y-10267667D01*
X9328810Y-10229571D01*
X9338333Y-10210524D01*
X9347857Y-10201000D01*
X9366905Y-10191476D01*
X9557381Y-10191476D02*
X9576429Y-10191476D01*
X9595476Y-10201000D01*
X9605000Y-10210524D01*
X9614524Y-10229571D01*
X9624048Y-10267667D01*
X9624048Y-10315286D01*
X9614524Y-10353381D01*
X9605000Y-10372429D01*
X9595476Y-10381952D01*
X9576429Y-10391476D01*
X9557381Y-10391476D01*
X9538333Y-10381952D01*
X9528810Y-10372429D01*
X9519286Y-10353381D01*
X9509762Y-10315286D01*
X9509762Y-10267667D01*
X9519286Y-10229571D01*
X9528810Y-10210524D01*
X9538333Y-10201000D01*
X9557381Y-10191476D01*
X9709762Y-10391476D02*
X9709762Y-10258143D01*
X9709762Y-10277190D02*
X9719286Y-10267667D01*
X9738333Y-10258143D01*
X9766905Y-10258143D01*
X9785952Y-10267667D01*
X9795476Y-10286714D01*
X9795476Y-10391476D01*
X9795476Y-10286714D02*
X9805000Y-10267667D01*
X9824048Y-10258143D01*
X9852619Y-10258143D01*
X9871667Y-10267667D01*
X9881190Y-10286714D01*
X9881190Y-10391476D01*
X9976429Y-10391476D02*
X9976429Y-10258143D01*
X9976429Y-10277190D02*
X9985952Y-10267667D01*
X10005000Y-10258143D01*
X10033571Y-10258143D01*
X10052619Y-10267667D01*
X10062143Y-10286714D01*
X10062143Y-10391476D01*
X10062143Y-10286714D02*
X10071667Y-10267667D01*
X10090714Y-10258143D01*
X10119286Y-10258143D01*
X10138333Y-10267667D01*
X10147857Y-10286714D01*
X10147857Y-10391476D01*
X10538333Y-10181952D02*
X10366905Y-10439095D01*
X10795476Y-10191476D02*
X10814524Y-10191476D01*
X10833571Y-10201000D01*
X10843095Y-10210524D01*
X10852619Y-10229571D01*
X10862143Y-10267667D01*
X10862143Y-10315286D01*
X10852619Y-10353381D01*
X10843095Y-10372429D01*
X10833571Y-10381952D01*
X10814524Y-10391476D01*
X10795476Y-10391476D01*
X10776429Y-10381952D01*
X10766905Y-10372429D01*
X10757381Y-10353381D01*
X10747857Y-10315286D01*
X10747857Y-10267667D01*
X10757381Y-10229571D01*
X10766905Y-10210524D01*
X10776429Y-10201000D01*
X10795476Y-10191476D01*
X10947857Y-10372429D02*
X10957381Y-10381952D01*
X10947857Y-10391476D01*
X10938333Y-10381952D01*
X10947857Y-10372429D01*
X10947857Y-10391476D01*
X11081190Y-10191476D02*
X11100238Y-10191476D01*
X11119286Y-10201000D01*
X11128810Y-10210524D01*
X11138333Y-10229571D01*
X11147857Y-10267667D01*
X11147857Y-10315286D01*
X11138333Y-10353381D01*
X11128810Y-10372429D01*
X11119286Y-10381952D01*
X11100238Y-10391476D01*
X11081190Y-10391476D01*
X11062143Y-10381952D01*
X11052619Y-10372429D01*
X11043095Y-10353381D01*
X11033571Y-10315286D01*
X11033571Y-10267667D01*
X11043095Y-10229571D01*
X11052619Y-10210524D01*
X11062143Y-10201000D01*
X11081190Y-10191476D01*
X11214524Y-10191476D02*
X11338333Y-10191476D01*
X11271667Y-10267667D01*
X11300238Y-10267667D01*
X11319286Y-10277190D01*
X11328809Y-10286714D01*
X11338333Y-10305762D01*
X11338333Y-10353381D01*
X11328809Y-10372429D01*
X11319286Y-10381952D01*
X11300238Y-10391476D01*
X11243095Y-10391476D01*
X11224048Y-10381952D01*
X11214524Y-10372429D01*
X11433571Y-10391476D02*
X11471667Y-10391476D01*
X11490714Y-10381952D01*
X11500238Y-10372429D01*
X11519286Y-10343857D01*
X11528809Y-10305762D01*
X11528809Y-10229571D01*
X11519286Y-10210524D01*
X11509762Y-10201000D01*
X11490714Y-10191476D01*
X11452619Y-10191476D01*
X11433571Y-10201000D01*
X11424048Y-10210524D01*
X11414524Y-10229571D01*
X11414524Y-10277190D01*
X11424048Y-10296238D01*
X11433571Y-10305762D01*
X11452619Y-10315286D01*
X11490714Y-10315286D01*
X11509762Y-10305762D01*
X11519286Y-10296238D01*
X11528809Y-10277190D01*
X11700238Y-10258143D02*
X11700238Y-10391476D01*
X11652619Y-10181952D02*
X11605000Y-10324810D01*
X11728809Y-10324810D01*
X11795476Y-10191476D02*
X11795476Y-10229571D01*
X11871667Y-10191476D02*
X11871667Y-10229571D01*
X12166905Y-10467667D02*
X12157381Y-10458143D01*
X12138333Y-10429571D01*
X12128809Y-10410524D01*
X12119286Y-10381952D01*
X12109762Y-10334333D01*
X12109762Y-10296238D01*
X12119286Y-10248619D01*
X12128809Y-10220048D01*
X12138333Y-10201000D01*
X12157381Y-10172429D01*
X12166905Y-10162905D01*
X12233571Y-10210524D02*
X12243095Y-10201000D01*
X12262143Y-10191476D01*
X12309762Y-10191476D01*
X12328809Y-10201000D01*
X12338333Y-10210524D01*
X12347857Y-10229571D01*
X12347857Y-10248619D01*
X12338333Y-10277190D01*
X12224048Y-10391476D01*
X12347857Y-10391476D01*
X12585952Y-10391476D02*
X12585952Y-10191476D01*
X12671667Y-10391476D02*
X12671667Y-10286714D01*
X12662143Y-10267667D01*
X12643095Y-10258143D01*
X12614524Y-10258143D01*
X12595476Y-10267667D01*
X12585952Y-10277190D01*
X12795476Y-10391476D02*
X12776428Y-10381952D01*
X12766905Y-10372429D01*
X12757381Y-10353381D01*
X12757381Y-10296238D01*
X12766905Y-10277190D01*
X12776428Y-10267667D01*
X12795476Y-10258143D01*
X12824048Y-10258143D01*
X12843095Y-10267667D01*
X12852619Y-10277190D01*
X12862143Y-10296238D01*
X12862143Y-10353381D01*
X12852619Y-10372429D01*
X12843095Y-10381952D01*
X12824048Y-10391476D01*
X12795476Y-10391476D01*
X12976428Y-10391476D02*
X12957381Y-10381952D01*
X12947857Y-10362905D01*
X12947857Y-10191476D01*
X13128809Y-10381952D02*
X13109762Y-10391476D01*
X13071667Y-10391476D01*
X13052619Y-10381952D01*
X13043095Y-10362905D01*
X13043095Y-10286714D01*
X13052619Y-10267667D01*
X13071667Y-10258143D01*
X13109762Y-10258143D01*
X13128809Y-10267667D01*
X13138333Y-10286714D01*
X13138333Y-10305762D01*
X13043095Y-10324810D01*
X13214524Y-10381952D02*
X13233571Y-10391476D01*
X13271667Y-10391476D01*
X13290714Y-10381952D01*
X13300238Y-10362905D01*
X13300238Y-10353381D01*
X13290714Y-10334333D01*
X13271667Y-10324810D01*
X13243095Y-10324810D01*
X13224048Y-10315286D01*
X13214524Y-10296238D01*
X13214524Y-10286714D01*
X13224048Y-10267667D01*
X13243095Y-10258143D01*
X13271667Y-10258143D01*
X13290714Y-10267667D01*
X13366905Y-10467667D02*
X13376428Y-10458143D01*
X13395476Y-10429571D01*
X13405000Y-10410524D01*
X13414524Y-10381952D01*
X13424048Y-10334333D01*
X13424048Y-10296238D01*
X13414524Y-10248619D01*
X13405000Y-10220048D01*
X13395476Y-10201000D01*
X13376428Y-10172429D01*
X13366905Y-10162905D01*
D15*
X8465000Y-10500000D02*
X8595000Y-10630000D01*
X8595000Y-10500000D02*
X8465000Y-10630000D01*
X8595000Y-10565000D02*
G75*
G03*
X8595000Y-10565000I-65000J0D01*
G01*
D11*
X8957381Y-10655476D02*
X8843095Y-10655476D01*
X8900238Y-10655476D02*
X8900238Y-10455476D01*
X8881190Y-10484048D01*
X8862143Y-10503095D01*
X8843095Y-10512619D01*
X9043095Y-10636429D02*
X9052619Y-10645952D01*
X9043095Y-10655476D01*
X9033571Y-10645952D01*
X9043095Y-10636429D01*
X9043095Y-10655476D01*
X9119286Y-10455476D02*
X9243095Y-10455476D01*
X9176429Y-10531667D01*
X9205000Y-10531667D01*
X9224048Y-10541190D01*
X9233571Y-10550714D01*
X9243095Y-10569762D01*
X9243095Y-10617381D01*
X9233571Y-10636429D01*
X9224048Y-10645952D01*
X9205000Y-10655476D01*
X9147857Y-10655476D01*
X9128810Y-10645952D01*
X9119286Y-10636429D01*
X9366905Y-10455476D02*
X9385952Y-10455476D01*
X9405000Y-10465000D01*
X9414524Y-10474524D01*
X9424048Y-10493571D01*
X9433571Y-10531667D01*
X9433571Y-10579286D01*
X9424048Y-10617381D01*
X9414524Y-10636429D01*
X9405000Y-10645952D01*
X9385952Y-10655476D01*
X9366905Y-10655476D01*
X9347857Y-10645952D01*
X9338333Y-10636429D01*
X9328810Y-10617381D01*
X9319286Y-10579286D01*
X9319286Y-10531667D01*
X9328810Y-10493571D01*
X9338333Y-10474524D01*
X9347857Y-10465000D01*
X9366905Y-10455476D01*
X9557381Y-10455476D02*
X9576429Y-10455476D01*
X9595476Y-10465000D01*
X9605000Y-10474524D01*
X9614524Y-10493571D01*
X9624048Y-10531667D01*
X9624048Y-10579286D01*
X9614524Y-10617381D01*
X9605000Y-10636429D01*
X9595476Y-10645952D01*
X9576429Y-10655476D01*
X9557381Y-10655476D01*
X9538333Y-10645952D01*
X9528810Y-10636429D01*
X9519286Y-10617381D01*
X9509762Y-10579286D01*
X9509762Y-10531667D01*
X9519286Y-10493571D01*
X9528810Y-10474524D01*
X9538333Y-10465000D01*
X9557381Y-10455476D01*
X9709762Y-10655476D02*
X9709762Y-10522143D01*
X9709762Y-10541190D02*
X9719286Y-10531667D01*
X9738333Y-10522143D01*
X9766905Y-10522143D01*
X9785952Y-10531667D01*
X9795476Y-10550714D01*
X9795476Y-10655476D01*
X9795476Y-10550714D02*
X9805000Y-10531667D01*
X9824048Y-10522143D01*
X9852619Y-10522143D01*
X9871667Y-10531667D01*
X9881190Y-10550714D01*
X9881190Y-10655476D01*
X9976429Y-10655476D02*
X9976429Y-10522143D01*
X9976429Y-10541190D02*
X9985952Y-10531667D01*
X10005000Y-10522143D01*
X10033571Y-10522143D01*
X10052619Y-10531667D01*
X10062143Y-10550714D01*
X10062143Y-10655476D01*
X10062143Y-10550714D02*
X10071667Y-10531667D01*
X10090714Y-10522143D01*
X10119286Y-10522143D01*
X10138333Y-10531667D01*
X10147857Y-10550714D01*
X10147857Y-10655476D01*
X10538333Y-10445952D02*
X10366905Y-10703095D01*
X10795476Y-10455476D02*
X10814524Y-10455476D01*
X10833571Y-10465000D01*
X10843095Y-10474524D01*
X10852619Y-10493571D01*
X10862143Y-10531667D01*
X10862143Y-10579286D01*
X10852619Y-10617381D01*
X10843095Y-10636429D01*
X10833571Y-10645952D01*
X10814524Y-10655476D01*
X10795476Y-10655476D01*
X10776429Y-10645952D01*
X10766905Y-10636429D01*
X10757381Y-10617381D01*
X10747857Y-10579286D01*
X10747857Y-10531667D01*
X10757381Y-10493571D01*
X10766905Y-10474524D01*
X10776429Y-10465000D01*
X10795476Y-10455476D01*
X10947857Y-10636429D02*
X10957381Y-10645952D01*
X10947857Y-10655476D01*
X10938333Y-10645952D01*
X10947857Y-10636429D01*
X10947857Y-10655476D01*
X11081190Y-10455476D02*
X11100238Y-10455476D01*
X11119286Y-10465000D01*
X11128810Y-10474524D01*
X11138333Y-10493571D01*
X11147857Y-10531667D01*
X11147857Y-10579286D01*
X11138333Y-10617381D01*
X11128810Y-10636429D01*
X11119286Y-10645952D01*
X11100238Y-10655476D01*
X11081190Y-10655476D01*
X11062143Y-10645952D01*
X11052619Y-10636429D01*
X11043095Y-10617381D01*
X11033571Y-10579286D01*
X11033571Y-10531667D01*
X11043095Y-10493571D01*
X11052619Y-10474524D01*
X11062143Y-10465000D01*
X11081190Y-10455476D01*
X11328809Y-10455476D02*
X11233571Y-10455476D01*
X11224048Y-10550714D01*
X11233571Y-10541190D01*
X11252619Y-10531667D01*
X11300238Y-10531667D01*
X11319286Y-10541190D01*
X11328809Y-10550714D01*
X11338333Y-10569762D01*
X11338333Y-10617381D01*
X11328809Y-10636429D01*
X11319286Y-10645952D01*
X11300238Y-10655476D01*
X11252619Y-10655476D01*
X11233571Y-10645952D01*
X11224048Y-10636429D01*
X11528809Y-10655476D02*
X11414524Y-10655476D01*
X11471667Y-10655476D02*
X11471667Y-10455476D01*
X11452619Y-10484048D01*
X11433571Y-10503095D01*
X11414524Y-10512619D01*
X11605000Y-10474524D02*
X11614524Y-10465000D01*
X11633571Y-10455476D01*
X11681190Y-10455476D01*
X11700238Y-10465000D01*
X11709762Y-10474524D01*
X11719286Y-10493571D01*
X11719286Y-10512619D01*
X11709762Y-10541190D01*
X11595476Y-10655476D01*
X11719286Y-10655476D01*
X11795476Y-10455476D02*
X11795476Y-10493571D01*
X11871667Y-10455476D02*
X11871667Y-10493571D01*
X12166905Y-10731667D02*
X12157381Y-10722143D01*
X12138333Y-10693571D01*
X12128809Y-10674524D01*
X12119286Y-10645952D01*
X12109762Y-10598333D01*
X12109762Y-10560238D01*
X12119286Y-10512619D01*
X12128809Y-10484048D01*
X12138333Y-10465000D01*
X12157381Y-10436429D01*
X12166905Y-10426905D01*
X12224048Y-10455476D02*
X12347857Y-10455476D01*
X12281190Y-10531667D01*
X12309762Y-10531667D01*
X12328809Y-10541190D01*
X12338333Y-10550714D01*
X12347857Y-10569762D01*
X12347857Y-10617381D01*
X12338333Y-10636429D01*
X12328809Y-10645952D01*
X12309762Y-10655476D01*
X12252619Y-10655476D01*
X12233571Y-10645952D01*
X12224048Y-10636429D01*
X12585952Y-10655476D02*
X12585952Y-10455476D01*
X12671667Y-10655476D02*
X12671667Y-10550714D01*
X12662143Y-10531667D01*
X12643095Y-10522143D01*
X12614524Y-10522143D01*
X12595476Y-10531667D01*
X12585952Y-10541190D01*
X12795476Y-10655476D02*
X12776428Y-10645952D01*
X12766905Y-10636429D01*
X12757381Y-10617381D01*
X12757381Y-10560238D01*
X12766905Y-10541190D01*
X12776428Y-10531667D01*
X12795476Y-10522143D01*
X12824048Y-10522143D01*
X12843095Y-10531667D01*
X12852619Y-10541190D01*
X12862143Y-10560238D01*
X12862143Y-10617381D01*
X12852619Y-10636429D01*
X12843095Y-10645952D01*
X12824048Y-10655476D01*
X12795476Y-10655476D01*
X12976428Y-10655476D02*
X12957381Y-10645952D01*
X12947857Y-10626905D01*
X12947857Y-10455476D01*
X13128809Y-10645952D02*
X13109762Y-10655476D01*
X13071667Y-10655476D01*
X13052619Y-10645952D01*
X13043095Y-10626905D01*
X13043095Y-10550714D01*
X13052619Y-10531667D01*
X13071667Y-10522143D01*
X13109762Y-10522143D01*
X13128809Y-10531667D01*
X13138333Y-10550714D01*
X13138333Y-10569762D01*
X13043095Y-10588810D01*
X13214524Y-10645952D02*
X13233571Y-10655476D01*
X13271667Y-10655476D01*
X13290714Y-10645952D01*
X13300238Y-10626905D01*
X13300238Y-10617381D01*
X13290714Y-10598333D01*
X13271667Y-10588810D01*
X13243095Y-10588810D01*
X13224048Y-10579286D01*
X13214524Y-10560238D01*
X13214524Y-10550714D01*
X13224048Y-10531667D01*
X13243095Y-10522143D01*
X13271667Y-10522143D01*
X13290714Y-10531667D01*
X13366905Y-10731667D02*
X13376428Y-10722143D01*
X13395476Y-10693571D01*
X13405000Y-10674524D01*
X13414524Y-10645952D01*
X13424048Y-10598333D01*
X13424048Y-10560238D01*
X13414524Y-10512619D01*
X13405000Y-10484048D01*
X13395476Y-10465000D01*
X13376428Y-10436429D01*
X13366905Y-10426905D01*
D16*
X8415000Y-10739000D02*
X8595000Y-10919000D01*
X8595000Y-10739000D02*
X8415000Y-10919000D01*
X8505000Y-10739000D02*
X8505000Y-10919000D01*
X8415000Y-10829000D02*
X8595000Y-10829000D01*
D11*
X8957381Y-10919476D02*
X8843095Y-10919476D01*
X8900238Y-10919476D02*
X8900238Y-10719476D01*
X8881190Y-10748048D01*
X8862143Y-10767095D01*
X8843095Y-10776619D01*
X9043095Y-10900429D02*
X9052619Y-10909952D01*
X9043095Y-10919476D01*
X9033571Y-10909952D01*
X9043095Y-10900429D01*
X9043095Y-10919476D01*
X9166905Y-10805190D02*
X9147857Y-10795667D01*
X9138333Y-10786143D01*
X9128810Y-10767095D01*
X9128810Y-10757571D01*
X9138333Y-10738524D01*
X9147857Y-10729000D01*
X9166905Y-10719476D01*
X9205000Y-10719476D01*
X9224048Y-10729000D01*
X9233571Y-10738524D01*
X9243095Y-10757571D01*
X9243095Y-10767095D01*
X9233571Y-10786143D01*
X9224048Y-10795667D01*
X9205000Y-10805190D01*
X9166905Y-10805190D01*
X9147857Y-10814714D01*
X9138333Y-10824238D01*
X9128810Y-10843286D01*
X9128810Y-10881381D01*
X9138333Y-10900429D01*
X9147857Y-10909952D01*
X9166905Y-10919476D01*
X9205000Y-10919476D01*
X9224048Y-10909952D01*
X9233571Y-10900429D01*
X9243095Y-10881381D01*
X9243095Y-10843286D01*
X9233571Y-10824238D01*
X9224048Y-10814714D01*
X9205000Y-10805190D01*
X9366905Y-10719476D02*
X9385952Y-10719476D01*
X9405000Y-10729000D01*
X9414524Y-10738524D01*
X9424048Y-10757571D01*
X9433571Y-10795667D01*
X9433571Y-10843286D01*
X9424048Y-10881381D01*
X9414524Y-10900429D01*
X9405000Y-10909952D01*
X9385952Y-10919476D01*
X9366905Y-10919476D01*
X9347857Y-10909952D01*
X9338333Y-10900429D01*
X9328810Y-10881381D01*
X9319286Y-10843286D01*
X9319286Y-10795667D01*
X9328810Y-10757571D01*
X9338333Y-10738524D01*
X9347857Y-10729000D01*
X9366905Y-10719476D01*
X9557381Y-10719476D02*
X9576429Y-10719476D01*
X9595476Y-10729000D01*
X9605000Y-10738524D01*
X9614524Y-10757571D01*
X9624048Y-10795667D01*
X9624048Y-10843286D01*
X9614524Y-10881381D01*
X9605000Y-10900429D01*
X9595476Y-10909952D01*
X9576429Y-10919476D01*
X9557381Y-10919476D01*
X9538333Y-10909952D01*
X9528810Y-10900429D01*
X9519286Y-10881381D01*
X9509762Y-10843286D01*
X9509762Y-10795667D01*
X9519286Y-10757571D01*
X9528810Y-10738524D01*
X9538333Y-10729000D01*
X9557381Y-10719476D01*
X9709762Y-10919476D02*
X9709762Y-10786143D01*
X9709762Y-10805190D02*
X9719286Y-10795667D01*
X9738333Y-10786143D01*
X9766905Y-10786143D01*
X9785952Y-10795667D01*
X9795476Y-10814714D01*
X9795476Y-10919476D01*
X9795476Y-10814714D02*
X9805000Y-10795667D01*
X9824048Y-10786143D01*
X9852619Y-10786143D01*
X9871667Y-10795667D01*
X9881190Y-10814714D01*
X9881190Y-10919476D01*
X9976429Y-10919476D02*
X9976429Y-10786143D01*
X9976429Y-10805190D02*
X9985952Y-10795667D01*
X10005000Y-10786143D01*
X10033571Y-10786143D01*
X10052619Y-10795667D01*
X10062143Y-10814714D01*
X10062143Y-10919476D01*
X10062143Y-10814714D02*
X10071667Y-10795667D01*
X10090714Y-10786143D01*
X10119286Y-10786143D01*
X10138333Y-10795667D01*
X10147857Y-10814714D01*
X10147857Y-10919476D01*
X10538333Y-10709952D02*
X10366905Y-10967095D01*
X10795476Y-10719476D02*
X10814524Y-10719476D01*
X10833571Y-10729000D01*
X10843095Y-10738524D01*
X10852619Y-10757571D01*
X10862143Y-10795667D01*
X10862143Y-10843286D01*
X10852619Y-10881381D01*
X10843095Y-10900429D01*
X10833571Y-10909952D01*
X10814524Y-10919476D01*
X10795476Y-10919476D01*
X10776429Y-10909952D01*
X10766905Y-10900429D01*
X10757381Y-10881381D01*
X10747857Y-10843286D01*
X10747857Y-10795667D01*
X10757381Y-10757571D01*
X10766905Y-10738524D01*
X10776429Y-10729000D01*
X10795476Y-10719476D01*
X10947857Y-10900429D02*
X10957381Y-10909952D01*
X10947857Y-10919476D01*
X10938333Y-10909952D01*
X10947857Y-10900429D01*
X10947857Y-10919476D01*
X11081190Y-10719476D02*
X11100238Y-10719476D01*
X11119286Y-10729000D01*
X11128810Y-10738524D01*
X11138333Y-10757571D01*
X11147857Y-10795667D01*
X11147857Y-10843286D01*
X11138333Y-10881381D01*
X11128810Y-10900429D01*
X11119286Y-10909952D01*
X11100238Y-10919476D01*
X11081190Y-10919476D01*
X11062143Y-10909952D01*
X11052619Y-10900429D01*
X11043095Y-10881381D01*
X11033571Y-10843286D01*
X11033571Y-10795667D01*
X11043095Y-10757571D01*
X11052619Y-10738524D01*
X11062143Y-10729000D01*
X11081190Y-10719476D01*
X11214524Y-10719476D02*
X11347857Y-10719476D01*
X11262143Y-10919476D01*
X11462143Y-10719476D02*
X11481190Y-10719476D01*
X11500238Y-10729000D01*
X11509762Y-10738524D01*
X11519286Y-10757571D01*
X11528809Y-10795667D01*
X11528809Y-10843286D01*
X11519286Y-10881381D01*
X11509762Y-10900429D01*
X11500238Y-10909952D01*
X11481190Y-10919476D01*
X11462143Y-10919476D01*
X11443095Y-10909952D01*
X11433571Y-10900429D01*
X11424048Y-10881381D01*
X11414524Y-10843286D01*
X11414524Y-10795667D01*
X11424048Y-10757571D01*
X11433571Y-10738524D01*
X11443095Y-10729000D01*
X11462143Y-10719476D01*
X11624048Y-10919476D02*
X11662143Y-10919476D01*
X11681190Y-10909952D01*
X11690714Y-10900429D01*
X11709762Y-10871857D01*
X11719286Y-10833762D01*
X11719286Y-10757571D01*
X11709762Y-10738524D01*
X11700238Y-10729000D01*
X11681190Y-10719476D01*
X11643095Y-10719476D01*
X11624048Y-10729000D01*
X11614524Y-10738524D01*
X11605000Y-10757571D01*
X11605000Y-10805190D01*
X11614524Y-10824238D01*
X11624048Y-10833762D01*
X11643095Y-10843286D01*
X11681190Y-10843286D01*
X11700238Y-10833762D01*
X11709762Y-10824238D01*
X11719286Y-10805190D01*
X11795476Y-10719476D02*
X11795476Y-10757571D01*
X11871667Y-10719476D02*
X11871667Y-10757571D01*
X12166905Y-10995667D02*
X12157381Y-10986143D01*
X12138333Y-10957571D01*
X12128809Y-10938524D01*
X12119286Y-10909952D01*
X12109762Y-10862333D01*
X12109762Y-10824238D01*
X12119286Y-10776619D01*
X12128809Y-10748048D01*
X12138333Y-10729000D01*
X12157381Y-10700429D01*
X12166905Y-10690905D01*
X12328809Y-10786143D02*
X12328809Y-10919476D01*
X12281190Y-10709952D02*
X12233571Y-10852810D01*
X12357381Y-10852810D01*
X12585952Y-10919476D02*
X12585952Y-10719476D01*
X12671667Y-10919476D02*
X12671667Y-10814714D01*
X12662143Y-10795667D01*
X12643095Y-10786143D01*
X12614524Y-10786143D01*
X12595476Y-10795667D01*
X12585952Y-10805190D01*
X12795476Y-10919476D02*
X12776428Y-10909952D01*
X12766905Y-10900429D01*
X12757381Y-10881381D01*
X12757381Y-10824238D01*
X12766905Y-10805190D01*
X12776428Y-10795667D01*
X12795476Y-10786143D01*
X12824048Y-10786143D01*
X12843095Y-10795667D01*
X12852619Y-10805190D01*
X12862143Y-10824238D01*
X12862143Y-10881381D01*
X12852619Y-10900429D01*
X12843095Y-10909952D01*
X12824048Y-10919476D01*
X12795476Y-10919476D01*
X12976428Y-10919476D02*
X12957381Y-10909952D01*
X12947857Y-10890905D01*
X12947857Y-10719476D01*
X13128809Y-10909952D02*
X13109762Y-10919476D01*
X13071667Y-10919476D01*
X13052619Y-10909952D01*
X13043095Y-10890905D01*
X13043095Y-10814714D01*
X13052619Y-10795667D01*
X13071667Y-10786143D01*
X13109762Y-10786143D01*
X13128809Y-10795667D01*
X13138333Y-10814714D01*
X13138333Y-10833762D01*
X13043095Y-10852810D01*
X13214524Y-10909952D02*
X13233571Y-10919476D01*
X13271667Y-10919476D01*
X13290714Y-10909952D01*
X13300238Y-10890905D01*
X13300238Y-10881381D01*
X13290714Y-10862333D01*
X13271667Y-10852810D01*
X13243095Y-10852810D01*
X13224048Y-10843286D01*
X13214524Y-10824238D01*
X13214524Y-10814714D01*
X13224048Y-10795667D01*
X13243095Y-10786143D01*
X13271667Y-10786143D01*
X13290714Y-10795667D01*
X13366905Y-10995667D02*
X13376428Y-10986143D01*
X13395476Y-10957571D01*
X13405000Y-10938524D01*
X13414524Y-10909952D01*
X13424048Y-10862333D01*
X13424048Y-10824238D01*
X13414524Y-10776619D01*
X13405000Y-10748048D01*
X13395476Y-10729000D01*
X13376428Y-10700429D01*
X13366905Y-10690905D01*
M02*
