%TF.GenerationSoftware,KiCad,Pcbnew,(6.0.7-1)-1*%
%TF.CreationDate,2023-01-10T14:36:04-05:00*%
%TF.ProjectId,LiIonUtilityBoard,4c69496f-6e55-4746-996c-697479426f61,rev?*%
%TF.SameCoordinates,Original*%
%TF.FileFunction,Copper,L1,Top*%
%TF.FilePolarity,Positive*%
%FSLAX46Y46*%
G04 Gerber Fmt 4.6, Leading zero omitted, Abs format (unit mm)*
G04 Created by KiCad (PCBNEW (6.0.7-1)-1) date 2023-01-10 14:36:04*
%MOMM*%
%LPD*%
G01*
G04 APERTURE LIST*
G04 Aperture macros list*
%AMRoundRect*
0 Rectangle with rounded corners*
0 $1 Rounding radius*
0 $2 $3 $4 $5 $6 $7 $8 $9 X,Y pos of 4 corners*
0 Add a 4 corners polygon primitive as box body*
4,1,4,$2,$3,$4,$5,$6,$7,$8,$9,$2,$3,0*
0 Add four circle primitives for the rounded corners*
1,1,$1+$1,$2,$3*
1,1,$1+$1,$4,$5*
1,1,$1+$1,$6,$7*
1,1,$1+$1,$8,$9*
0 Add four rect primitives between the rounded corners*
20,1,$1+$1,$2,$3,$4,$5,0*
20,1,$1+$1,$4,$5,$6,$7,0*
20,1,$1+$1,$6,$7,$8,$9,0*
20,1,$1+$1,$8,$9,$2,$3,0*%
%AMFreePoly0*
4,1,14,0.216536,0.103536,0.328536,-0.008465,0.330000,-0.012002,0.330000,-0.100000,0.328536,-0.103536,0.325000,-0.105000,-0.300000,-0.105000,-0.303536,-0.103536,-0.305000,-0.100000,-0.305000,0.100000,-0.303536,0.103536,-0.300000,0.105000,0.213000,0.105001,0.216536,0.103536,0.216536,0.103536,$1*%
%AMFreePoly1*
4,1,113,0.280476,0.104803,0.280981,0.104903,0.285496,0.104000,0.291000,0.104000,0.291476,0.103803,0.291981,0.103903,0.301981,0.101903,0.302379,0.101636,0.302857,0.101642,0.317857,0.095642,0.318015,0.095488,0.318236,0.095472,0.322052,0.093564,0.326857,0.091642,0.327342,0.091169,0.328000,0.091000,0.331798,0.088151,0.336573,0.085287,0.336735,0.085068,0.337000,0.085000,
0.341000,0.082000,0.341190,0.081679,0.341536,0.081536,0.345284,0.077787,0.349000,0.075000,0.349372,0.074372,0.350000,0.074000,0.352784,0.070288,0.356536,0.066535,0.356679,0.066190,0.357000,0.066000,0.360000,0.062000,0.360068,0.061734,0.360287,0.061572,0.363151,0.056799,0.366000,0.053000,0.366169,0.052342,0.366642,0.051857,0.368564,0.047052,0.370472,0.043236,
0.370488,0.043015,0.370642,0.042857,0.376642,0.027857,0.376636,0.027379,0.376903,0.026981,0.378903,0.016981,0.378803,0.016476,0.379000,0.016000,0.379000,0.010496,0.379903,0.005981,0.379803,0.005476,0.380000,0.005000,0.380000,-0.005000,0.379803,-0.005476,0.379903,-0.005981,0.379000,-0.010496,0.379000,-0.016000,0.378803,-0.016476,0.378903,-0.016981,0.376903,-0.026981,
0.376636,-0.027379,0.376642,-0.027857,0.370642,-0.042857,0.370488,-0.043015,0.370472,-0.043236,0.368564,-0.047052,0.366642,-0.051857,0.366169,-0.052342,0.366000,-0.053000,0.363151,-0.056799,0.360287,-0.061572,0.360068,-0.061734,0.360000,-0.062000,0.357000,-0.066000,0.356679,-0.066190,0.356536,-0.066535,0.352784,-0.070288,0.350000,-0.074000,0.349372,-0.074372,0.349000,-0.075000,
0.345284,-0.077787,0.341536,-0.081536,0.341190,-0.081679,0.341000,-0.082000,0.337000,-0.085000,0.336735,-0.085068,0.336573,-0.085287,0.331798,-0.088151,0.328000,-0.091000,0.327342,-0.091169,0.326857,-0.091642,0.322052,-0.093564,0.318236,-0.095472,0.318015,-0.095488,0.317857,-0.095642,0.302857,-0.101642,0.302379,-0.101636,0.301981,-0.101903,0.291981,-0.103903,0.291476,-0.103803,
0.291000,-0.104000,0.285496,-0.104000,0.280981,-0.104903,0.280476,-0.104803,0.280000,-0.105000,-0.300000,-0.105000,-0.303536,-0.103536,-0.305000,-0.100000,-0.305000,0.100000,-0.303536,0.103536,-0.300000,0.105000,0.280000,0.105000,0.280476,0.104803,0.280476,0.104803,$1*%
%AMFreePoly2*
4,1,14,0.328536,0.103536,0.330000,0.100000,0.330001,0.012000,0.328534,0.008463,0.216536,-0.103536,0.212998,-0.105000,-0.300000,-0.105000,-0.303536,-0.103536,-0.305000,-0.100000,-0.305000,0.100000,-0.303536,0.103536,-0.300000,0.105000,0.325000,0.105000,0.328536,0.103536,0.328536,0.103536,$1*%
%AMFreePoly3*
4,1,15,0.012002,0.330000,0.100000,0.330000,0.103536,0.328536,0.105000,0.325000,0.105000,-0.300000,0.103536,-0.303536,0.100000,-0.305000,-0.100000,-0.305000,-0.103536,-0.303536,-0.105000,-0.300000,-0.105001,0.213000,-0.103536,0.216536,0.008464,0.328536,0.012000,0.330001,0.012002,0.330000,0.012002,0.330000,$1*%
%AMFreePoly4*
4,1,113,0.005476,0.379803,0.005981,0.379903,0.010496,0.379000,0.016000,0.379000,0.016476,0.378803,0.016981,0.378903,0.026981,0.376903,0.027379,0.376636,0.027857,0.376642,0.042857,0.370642,0.043015,0.370488,0.043236,0.370472,0.047052,0.368564,0.051857,0.366642,0.052342,0.366169,0.053000,0.366000,0.056798,0.363151,0.061573,0.360287,0.061735,0.360068,0.062000,0.360000,
0.066000,0.357000,0.066190,0.356679,0.066536,0.356536,0.070284,0.352787,0.074000,0.350000,0.074372,0.349372,0.075000,0.349000,0.077784,0.345288,0.081536,0.341535,0.081679,0.341190,0.082000,0.341000,0.085000,0.337000,0.085068,0.336734,0.085287,0.336572,0.088151,0.331799,0.091000,0.328000,0.091169,0.327342,0.091642,0.326857,0.093564,0.322052,0.095472,0.318236,
0.095488,0.318015,0.095642,0.317857,0.101642,0.302857,0.101636,0.302379,0.101903,0.301981,0.103903,0.291981,0.103803,0.291476,0.104000,0.291000,0.104000,0.285496,0.104903,0.280981,0.104803,0.280476,0.105000,0.280000,0.105000,-0.300000,0.103536,-0.303536,0.100000,-0.305000,-0.100000,-0.305000,-0.103536,-0.303536,-0.105000,-0.300000,-0.105000,0.280000,-0.104803,0.280476,
-0.104903,0.280981,-0.104000,0.285496,-0.104000,0.291000,-0.103803,0.291476,-0.103903,0.291981,-0.101903,0.301981,-0.101636,0.302379,-0.101642,0.302857,-0.095642,0.317857,-0.095488,0.318015,-0.095472,0.318236,-0.093564,0.322052,-0.091642,0.326857,-0.091169,0.327342,-0.091000,0.328000,-0.088151,0.331798,-0.085287,0.336573,-0.085068,0.336735,-0.085000,0.337000,-0.082000,0.341000,
-0.081679,0.341190,-0.081536,0.341536,-0.077787,0.345284,-0.075000,0.349000,-0.074372,0.349372,-0.074000,0.350000,-0.070288,0.352784,-0.066535,0.356536,-0.066190,0.356679,-0.066000,0.357000,-0.062000,0.360000,-0.061734,0.360068,-0.061572,0.360287,-0.056799,0.363151,-0.053000,0.366000,-0.052342,0.366169,-0.051857,0.366642,-0.047052,0.368564,-0.043236,0.370472,-0.043015,0.370488,
-0.042857,0.370642,-0.027857,0.376642,-0.027379,0.376636,-0.026981,0.376903,-0.016981,0.378903,-0.016476,0.378803,-0.016000,0.379000,-0.010496,0.379000,-0.005981,0.379903,-0.005476,0.379803,-0.005000,0.380000,0.005000,0.380000,0.005476,0.379803,0.005476,0.379803,$1*%
%AMFreePoly5*
4,1,113,0.005476,1.029803,0.005981,1.029903,0.010496,1.029000,0.016000,1.029000,0.016476,1.028803,0.016981,1.028903,0.026981,1.026903,0.027379,1.026636,0.027857,1.026642,0.042857,1.020642,0.043015,1.020488,0.043236,1.020472,0.047052,1.018564,0.051857,1.016642,0.052342,1.016169,0.053000,1.016000,0.056798,1.013151,0.061573,1.010287,0.061735,1.010068,0.062000,1.010000,
0.066000,1.007000,0.066190,1.006679,0.066536,1.006536,0.070284,1.002787,0.074000,1.000000,0.074372,0.999372,0.075000,0.999000,0.077784,0.995288,0.081536,0.991535,0.081679,0.991190,0.082000,0.991000,0.085000,0.987000,0.085068,0.986734,0.085287,0.986572,0.088151,0.981799,0.091000,0.978000,0.091169,0.977342,0.091642,0.976857,0.093564,0.972052,0.095472,0.968236,
0.095488,0.968015,0.095642,0.967857,0.101642,0.952857,0.101636,0.952379,0.101903,0.951981,0.103903,0.941981,0.103803,0.941476,0.104000,0.941000,0.104000,0.935496,0.104903,0.930981,0.104803,0.930476,0.105000,0.930000,0.105000,-0.300000,0.103536,-0.303536,0.100000,-0.305000,-0.100000,-0.305000,-0.103536,-0.303536,-0.105000,-0.300000,-0.105000,0.930000,-0.104803,0.930476,
-0.104903,0.930981,-0.104000,0.935496,-0.104000,0.941000,-0.103803,0.941476,-0.103903,0.941981,-0.101903,0.951981,-0.101636,0.952379,-0.101642,0.952857,-0.095642,0.967857,-0.095488,0.968015,-0.095472,0.968236,-0.093564,0.972052,-0.091642,0.976857,-0.091169,0.977342,-0.091000,0.978000,-0.088151,0.981798,-0.085287,0.986573,-0.085068,0.986735,-0.085000,0.987000,-0.082000,0.991000,
-0.081679,0.991190,-0.081536,0.991536,-0.077787,0.995284,-0.075000,0.999000,-0.074372,0.999372,-0.074000,1.000000,-0.070288,1.002784,-0.066535,1.006536,-0.066190,1.006679,-0.066000,1.007000,-0.062000,1.010000,-0.061734,1.010068,-0.061572,1.010287,-0.056799,1.013151,-0.053000,1.016000,-0.052342,1.016169,-0.051857,1.016642,-0.047052,1.018564,-0.043236,1.020472,-0.043015,1.020488,
-0.042857,1.020642,-0.027857,1.026642,-0.027379,1.026636,-0.026981,1.026903,-0.016981,1.028903,-0.016476,1.028803,-0.016000,1.029000,-0.010496,1.029000,-0.005981,1.029903,-0.005476,1.029803,-0.005000,1.030000,0.005000,1.030000,0.005476,1.029803,0.005476,1.029803,$1*%
%AMFreePoly6*
4,1,14,-0.008464,0.328536,0.103536,0.216535,0.105000,0.212998,0.105000,-0.300000,0.103536,-0.303536,0.100000,-0.305000,-0.100000,-0.305000,-0.103536,-0.303536,-0.105000,-0.300000,-0.105000,0.325000,-0.103536,0.328536,-0.100000,0.330000,-0.012000,0.330001,-0.008464,0.328536,-0.008464,0.328536,$1*%
%AMFreePoly7*
4,1,118,0.303536,0.303536,0.305000,0.300000,0.305000,-0.300000,0.303536,-0.303536,0.300000,-0.305000,-0.188000,-0.305001,-0.191537,-0.303534,-0.353536,-0.141536,-0.355000,-0.137998,-0.355000,0.045000,-1.180000,0.045000,-1.180476,0.045197,-1.180981,0.045097,-1.185496,0.046000,-1.191000,0.046000,-1.191476,0.046197,-1.191981,0.046097,-1.201981,0.048097,-1.202379,0.048364,-1.202857,0.048358,
-1.217857,0.054358,-1.218015,0.054512,-1.218236,0.054528,-1.222052,0.056436,-1.226857,0.058358,-1.227342,0.058831,-1.228000,0.059000,-1.231799,0.061849,-1.236572,0.064713,-1.236734,0.064932,-1.237000,0.065000,-1.241000,0.068000,-1.241190,0.068321,-1.241535,0.068464,-1.245288,0.072216,-1.249000,0.075000,-1.249372,0.075628,-1.250000,0.076000,-1.252787,0.079716,-1.256536,0.083464,
-1.256679,0.083810,-1.257000,0.084000,-1.260000,0.088000,-1.260068,0.088265,-1.260287,0.088427,-1.263151,0.093202,-1.266000,0.097000,-1.266169,0.097658,-1.266642,0.098143,-1.268564,0.102948,-1.270472,0.106764,-1.270488,0.106985,-1.270642,0.107143,-1.276642,0.122143,-1.276636,0.122621,-1.276903,0.123019,-1.278903,0.133019,-1.278803,0.133524,-1.279000,0.134000,-1.279000,0.139504,
-1.279903,0.144019,-1.279803,0.144524,-1.280000,0.145000,-1.280000,0.205000,-1.279803,0.205476,-1.279903,0.205981,-1.279000,0.210496,-1.279000,0.216000,-1.278803,0.216476,-1.278903,0.216981,-1.276903,0.226981,-1.276636,0.227379,-1.276642,0.227857,-1.270642,0.242857,-1.270488,0.243015,-1.270472,0.243236,-1.268564,0.247052,-1.266642,0.251857,-1.266169,0.252342,-1.266000,0.253000,
-1.263151,0.256798,-1.260287,0.261573,-1.260068,0.261735,-1.260000,0.262000,-1.257000,0.266000,-1.256679,0.266190,-1.256536,0.266536,-1.252787,0.270284,-1.250000,0.274000,-1.249372,0.274372,-1.249000,0.275000,-1.245288,0.277784,-1.241535,0.281536,-1.241190,0.281679,-1.241000,0.282000,-1.237000,0.285000,-1.236734,0.285068,-1.236572,0.285287,-1.231799,0.288151,-1.228000,0.291000,
-1.227342,0.291169,-1.226857,0.291642,-1.222052,0.293564,-1.218236,0.295472,-1.218015,0.295488,-1.217857,0.295642,-1.202857,0.301642,-1.202379,0.301636,-1.201981,0.301903,-1.191981,0.303903,-1.191476,0.303803,-1.191000,0.304000,-1.185496,0.304000,-1.180981,0.304903,-1.180476,0.304803,-1.180000,0.305000,0.300000,0.305000,0.303536,0.303536,0.303536,0.303536,$1*%
%AMFreePoly8*
4,1,167,0.303536,0.303536,0.305000,0.300000,0.305000,-0.300000,0.303536,-0.303536,0.300000,-0.305000,-1.180000,-0.305000,-1.180476,-0.304803,-1.180981,-0.304903,-1.185496,-0.304000,-1.191000,-0.304000,-1.191476,-0.303803,-1.191981,-0.303903,-1.201981,-0.301903,-1.202379,-0.301636,-1.202857,-0.301642,-1.217857,-0.295642,-1.218015,-0.295488,-1.218236,-0.295472,-1.222052,-0.293564,-1.226857,-0.291642,
-1.227342,-0.291169,-1.228000,-0.291000,-1.231799,-0.288151,-1.236572,-0.285287,-1.236734,-0.285068,-1.237000,-0.285000,-1.241000,-0.282000,-1.241190,-0.281679,-1.241535,-0.281536,-1.245288,-0.277784,-1.249000,-0.275000,-1.249372,-0.274372,-1.250000,-0.274000,-1.252787,-0.270284,-1.256536,-0.266536,-1.256679,-0.266190,-1.257000,-0.266000,-1.260000,-0.262000,-1.260068,-0.261735,-1.260287,-0.261573,
-1.263151,-0.256798,-1.266000,-0.253000,-1.266169,-0.252342,-1.266642,-0.251857,-1.268564,-0.247052,-1.270472,-0.243236,-1.270488,-0.243015,-1.270642,-0.242857,-1.276642,-0.227857,-1.276636,-0.227379,-1.276903,-0.226981,-1.278903,-0.216981,-1.278803,-0.216476,-1.279000,-0.216000,-1.279000,-0.210496,-1.279903,-0.205981,-1.279803,-0.205476,-1.280000,-0.205000,-1.280000,-0.145000,-1.279803,-0.144524,
-1.279903,-0.144019,-1.279000,-0.139504,-1.279000,-0.134000,-1.278803,-0.133524,-1.278903,-0.133019,-1.276903,-0.123019,-1.276636,-0.122621,-1.276642,-0.122143,-1.270642,-0.107143,-1.270488,-0.106985,-1.270472,-0.106764,-1.268564,-0.102948,-1.266642,-0.098143,-1.266169,-0.097658,-1.266000,-0.097000,-1.263151,-0.093202,-1.260287,-0.088427,-1.260068,-0.088265,-1.260000,-0.088000,-1.257000,-0.084000,
-1.256679,-0.083810,-1.256536,-0.083464,-1.252787,-0.079716,-1.250000,-0.076000,-1.249372,-0.075628,-1.249000,-0.075000,-1.245288,-0.072216,-1.241535,-0.068464,-1.241190,-0.068321,-1.241000,-0.068000,-1.237000,-0.065000,-1.236734,-0.064932,-1.236572,-0.064713,-1.231799,-0.061849,-1.228000,-0.059000,-1.227342,-0.058831,-1.226857,-0.058358,-1.222052,-0.056436,-1.218236,-0.054528,-1.218015,-0.054512,
-1.217857,-0.054358,-1.202857,-0.048358,-1.202379,-0.048364,-1.201981,-0.048097,-1.191981,-0.046097,-1.191476,-0.046197,-1.191000,-0.046000,-1.185496,-0.046000,-1.180981,-0.045097,-1.180476,-0.045197,-1.180000,-0.045000,-0.355000,-0.045000,-0.355000,0.205000,-0.354803,0.205476,-0.354903,0.205981,-0.354000,0.210496,-0.354000,0.216000,-0.353803,0.216476,-0.353903,0.216981,-0.351903,0.226981,
-0.351636,0.227379,-0.351642,0.227857,-0.345642,0.242857,-0.345488,0.243015,-0.345472,0.243236,-0.343564,0.247052,-0.341642,0.251857,-0.341169,0.252342,-0.341000,0.253000,-0.338151,0.256798,-0.335287,0.261573,-0.335068,0.261735,-0.335000,0.262000,-0.332000,0.266000,-0.331679,0.266190,-0.331536,0.266536,-0.327787,0.270284,-0.325000,0.274000,-0.324372,0.274372,-0.324000,0.275000,
-0.320288,0.277784,-0.316535,0.281536,-0.316190,0.281679,-0.316000,0.282000,-0.312000,0.285000,-0.311734,0.285068,-0.311572,0.285287,-0.306799,0.288151,-0.303000,0.291000,-0.302342,0.291169,-0.301857,0.291642,-0.297052,0.293564,-0.293236,0.295472,-0.293015,0.295488,-0.292857,0.295642,-0.277857,0.301642,-0.277379,0.301636,-0.276981,0.301903,-0.266981,0.303903,-0.266476,0.303803,
-0.266000,0.304000,-0.260496,0.304000,-0.255981,0.304903,-0.255476,0.304803,-0.255000,0.305000,0.300000,0.305000,0.303536,0.303536,0.303536,0.303536,$1*%
%AMFreePoly9*
4,1,113,0.303536,0.103536,0.305000,0.100000,0.305000,-0.100000,0.303536,-0.103536,0.300000,-0.105000,-0.280000,-0.105000,-0.280476,-0.104803,-0.280981,-0.104903,-0.285496,-0.104000,-0.291000,-0.104000,-0.291476,-0.103803,-0.291981,-0.103903,-0.301981,-0.101903,-0.302379,-0.101636,-0.302857,-0.101642,-0.317857,-0.095642,-0.318015,-0.095488,-0.318236,-0.095472,-0.322052,-0.093564,-0.326857,-0.091642,
-0.327342,-0.091169,-0.328000,-0.091000,-0.331799,-0.088151,-0.336572,-0.085287,-0.336734,-0.085068,-0.337000,-0.085000,-0.341000,-0.082000,-0.341190,-0.081679,-0.341535,-0.081536,-0.345288,-0.077784,-0.349000,-0.075000,-0.349372,-0.074372,-0.350000,-0.074000,-0.352787,-0.070284,-0.356536,-0.066536,-0.356679,-0.066190,-0.357000,-0.066000,-0.360000,-0.062000,-0.360068,-0.061735,-0.360287,-0.061573,
-0.363151,-0.056798,-0.366000,-0.053000,-0.366169,-0.052342,-0.366642,-0.051857,-0.368564,-0.047052,-0.370472,-0.043236,-0.370488,-0.043015,-0.370642,-0.042857,-0.376642,-0.027857,-0.376636,-0.027379,-0.376903,-0.026981,-0.378903,-0.016981,-0.378803,-0.016476,-0.379000,-0.016000,-0.379000,-0.010496,-0.379903,-0.005981,-0.379803,-0.005476,-0.380000,-0.005000,-0.380000,0.005000,-0.379803,0.005476,
-0.379903,0.005981,-0.379000,0.010496,-0.379000,0.016000,-0.378803,0.016476,-0.378903,0.016981,-0.376903,0.026981,-0.376636,0.027379,-0.376642,0.027857,-0.370642,0.042857,-0.370488,0.043015,-0.370472,0.043236,-0.368564,0.047052,-0.366642,0.051857,-0.366169,0.052342,-0.366000,0.053000,-0.363151,0.056798,-0.360287,0.061573,-0.360068,0.061735,-0.360000,0.062000,-0.357000,0.066000,
-0.356679,0.066190,-0.356536,0.066536,-0.352787,0.070284,-0.350000,0.074000,-0.349372,0.074372,-0.349000,0.075000,-0.345288,0.077784,-0.341535,0.081536,-0.341190,0.081679,-0.341000,0.082000,-0.337000,0.085000,-0.336734,0.085068,-0.336572,0.085287,-0.331799,0.088151,-0.328000,0.091000,-0.327342,0.091169,-0.326857,0.091642,-0.322052,0.093564,-0.318236,0.095472,-0.318015,0.095488,
-0.317857,0.095642,-0.302857,0.101642,-0.302379,0.101636,-0.301981,0.101903,-0.291981,0.103903,-0.291476,0.103803,-0.291000,0.104000,-0.285496,0.104000,-0.280981,0.104903,-0.280476,0.104803,-0.280000,0.105000,0.300000,0.105000,0.303536,0.103536,0.303536,0.103536,$1*%
%AMFreePoly10*
4,1,68,-0.396464,0.803536,-0.395000,0.800000,-0.395000,0.352072,-0.147929,0.105000,0.300000,0.105000,0.303536,0.103536,0.305000,0.100000,0.305000,-0.100000,0.303536,-0.103536,0.300000,-0.105000,-0.505000,-0.105000,-0.505476,-0.104803,-0.505981,-0.104903,-0.510496,-0.104000,-0.516000,-0.104000,-0.516476,-0.103803,-0.516981,-0.103903,-0.526981,-0.101903,-0.527379,-0.101636,-0.527857,-0.101642,
-0.542857,-0.095642,-0.543015,-0.095488,-0.543236,-0.095472,-0.547052,-0.093564,-0.551857,-0.091642,-0.552342,-0.091169,-0.553000,-0.091000,-0.556799,-0.088151,-0.561572,-0.085287,-0.561734,-0.085068,-0.562000,-0.085000,-0.566000,-0.082000,-0.566190,-0.081679,-0.566535,-0.081536,-0.570288,-0.077784,-0.574000,-0.075000,-0.574372,-0.074372,-0.575000,-0.074000,-0.577787,-0.070284,-0.581536,-0.066536,
-0.581679,-0.066190,-0.582000,-0.066000,-0.585000,-0.062000,-0.585068,-0.061735,-0.585287,-0.061573,-0.588151,-0.056798,-0.591000,-0.053000,-0.591169,-0.052342,-0.591642,-0.051857,-0.593564,-0.047052,-0.595472,-0.043236,-0.595488,-0.043015,-0.595642,-0.042857,-0.601642,-0.027857,-0.601636,-0.027379,-0.601903,-0.026981,-0.603903,-0.016981,-0.603803,-0.016476,-0.604000,-0.016000,-0.604000,-0.010496,
-0.604903,-0.005981,-0.604803,-0.005476,-0.605000,-0.005000,-0.605000,0.800000,-0.603536,0.803536,-0.600000,0.805000,-0.400000,0.805000,-0.396464,0.803536,-0.396464,0.803536,$1*%
%AMFreePoly11*
4,1,113,0.303536,0.303536,0.305000,0.300000,0.305000,-0.680000,0.304803,-0.680476,0.304903,-0.680981,0.304000,-0.685496,0.304000,-0.691000,0.303803,-0.691476,0.303903,-0.691981,0.301903,-0.701981,0.301636,-0.702379,0.301642,-0.702857,0.295642,-0.717857,0.295488,-0.718015,0.295472,-0.718236,0.293564,-0.722052,0.291642,-0.726857,0.291169,-0.727342,0.291000,-0.728000,0.288151,-0.731799,
0.285287,-0.736572,0.285068,-0.736734,0.285000,-0.737000,0.282000,-0.741000,0.281679,-0.741190,0.281536,-0.741535,0.277784,-0.745288,0.275000,-0.749000,0.274372,-0.749372,0.274000,-0.750000,0.270284,-0.752787,0.266536,-0.756536,0.266190,-0.756679,0.266000,-0.757000,0.262000,-0.760000,0.261735,-0.760068,0.261573,-0.760287,0.256798,-0.763151,0.253000,-0.766000,0.252342,-0.766169,
0.251857,-0.766642,0.247052,-0.768564,0.243236,-0.770472,0.243015,-0.770488,0.242857,-0.770642,0.227857,-0.776642,0.227379,-0.776636,0.226981,-0.776903,0.216981,-0.778903,0.216476,-0.778803,0.216000,-0.779000,0.210496,-0.779000,0.205981,-0.779903,0.205476,-0.779803,0.205000,-0.780000,-0.205000,-0.780000,-0.205476,-0.779803,-0.205981,-0.779903,-0.210496,-0.779000,-0.216000,-0.779000,
-0.216476,-0.778803,-0.216981,-0.778903,-0.226981,-0.776903,-0.227379,-0.776636,-0.227857,-0.776642,-0.242857,-0.770642,-0.243015,-0.770488,-0.243236,-0.770472,-0.247052,-0.768564,-0.251857,-0.766642,-0.252342,-0.766169,-0.253000,-0.766000,-0.256799,-0.763151,-0.261572,-0.760287,-0.261734,-0.760068,-0.262000,-0.760000,-0.266000,-0.757000,-0.266190,-0.756679,-0.266535,-0.756536,-0.270288,-0.752784,
-0.274000,-0.750000,-0.274372,-0.749372,-0.275000,-0.749000,-0.277787,-0.745284,-0.281536,-0.741536,-0.281679,-0.741190,-0.282000,-0.741000,-0.285000,-0.737000,-0.285068,-0.736735,-0.285287,-0.736573,-0.288151,-0.731798,-0.291000,-0.728000,-0.291169,-0.727342,-0.291642,-0.726857,-0.293564,-0.722052,-0.295472,-0.718236,-0.295488,-0.718015,-0.295642,-0.717857,-0.301642,-0.702857,-0.301636,-0.702379,
-0.301903,-0.701981,-0.303903,-0.691981,-0.303803,-0.691476,-0.304000,-0.691000,-0.304000,-0.685496,-0.304903,-0.680981,-0.304803,-0.680476,-0.305000,-0.680000,-0.305000,0.300000,-0.303536,0.303536,-0.300000,0.305000,0.300000,0.305000,0.303536,0.303536,0.303536,0.303536,$1*%
%AMFreePoly12*
4,1,113,0.103536,0.303536,0.105000,0.300000,0.105000,-0.680000,0.104803,-0.680476,0.104903,-0.680981,0.104000,-0.685496,0.104000,-0.691000,0.103803,-0.691476,0.103903,-0.691981,0.101903,-0.701981,0.101636,-0.702379,0.101642,-0.702857,0.095642,-0.717857,0.095488,-0.718015,0.095472,-0.718236,0.093564,-0.722052,0.091642,-0.726857,0.091169,-0.727342,0.091000,-0.728000,0.088151,-0.731799,
0.085287,-0.736572,0.085068,-0.736734,0.085000,-0.737000,0.082000,-0.741000,0.081679,-0.741190,0.081536,-0.741535,0.077784,-0.745288,0.075000,-0.749000,0.074372,-0.749372,0.074000,-0.750000,0.070284,-0.752787,0.066536,-0.756536,0.066190,-0.756679,0.066000,-0.757000,0.062000,-0.760000,0.061735,-0.760068,0.061573,-0.760287,0.056798,-0.763151,0.053000,-0.766000,0.052342,-0.766169,
0.051857,-0.766642,0.047052,-0.768564,0.043236,-0.770472,0.043015,-0.770488,0.042857,-0.770642,0.027857,-0.776642,0.027379,-0.776636,0.026981,-0.776903,0.016981,-0.778903,0.016476,-0.778803,0.016000,-0.779000,0.010496,-0.779000,0.005981,-0.779903,0.005476,-0.779803,0.005000,-0.780000,-0.005000,-0.780000,-0.005476,-0.779803,-0.005981,-0.779903,-0.010496,-0.779000,-0.016000,-0.779000,
-0.016476,-0.778803,-0.016981,-0.778903,-0.026981,-0.776903,-0.027379,-0.776636,-0.027857,-0.776642,-0.042857,-0.770642,-0.043015,-0.770488,-0.043236,-0.770472,-0.047052,-0.768564,-0.051857,-0.766642,-0.052342,-0.766169,-0.053000,-0.766000,-0.056799,-0.763151,-0.061572,-0.760287,-0.061734,-0.760068,-0.062000,-0.760000,-0.066000,-0.757000,-0.066190,-0.756679,-0.066535,-0.756536,-0.070288,-0.752784,
-0.074000,-0.750000,-0.074372,-0.749372,-0.075000,-0.749000,-0.077787,-0.745284,-0.081536,-0.741536,-0.081679,-0.741190,-0.082000,-0.741000,-0.085000,-0.737000,-0.085068,-0.736735,-0.085287,-0.736573,-0.088151,-0.731798,-0.091000,-0.728000,-0.091169,-0.727342,-0.091642,-0.726857,-0.093564,-0.722052,-0.095472,-0.718236,-0.095488,-0.718015,-0.095642,-0.717857,-0.101642,-0.702857,-0.101636,-0.702379,
-0.101903,-0.701981,-0.103903,-0.691981,-0.103803,-0.691476,-0.104000,-0.691000,-0.104000,-0.685496,-0.104903,-0.680981,-0.104803,-0.680476,-0.105000,-0.680000,-0.105000,0.300000,-0.103536,0.303536,-0.100000,0.305000,0.100000,0.305000,0.103536,0.303536,0.103536,0.303536,$1*%
%AMFreePoly13*
4,1,118,0.303536,0.303536,0.305000,0.300000,0.305000,-0.680000,0.304803,-0.680476,0.304903,-0.680981,0.304000,-0.685496,0.304000,-0.691000,0.303803,-0.691476,0.303903,-0.691981,0.301903,-0.701981,0.301636,-0.702379,0.301642,-0.702857,0.295642,-0.717857,0.295488,-0.718015,0.295472,-0.718236,0.293564,-0.722052,0.291642,-0.726857,0.291169,-0.727342,0.291000,-0.728000,0.288151,-0.731799,
0.285287,-0.736572,0.285068,-0.736734,0.285000,-0.737000,0.282000,-0.741000,0.281679,-0.741190,0.281536,-0.741535,0.277784,-0.745288,0.275000,-0.749000,0.274372,-0.749372,0.274000,-0.750000,0.270284,-0.752787,0.266536,-0.756536,0.266190,-0.756679,0.266000,-0.757000,0.262000,-0.760000,0.261735,-0.760068,0.261573,-0.760287,0.256798,-0.763151,0.253000,-0.766000,0.252342,-0.766169,
0.251857,-0.766642,0.247052,-0.768564,0.243236,-0.770472,0.243015,-0.770488,0.242857,-0.770642,0.227857,-0.776642,0.227379,-0.776636,0.226981,-0.776903,0.216981,-0.778903,0.216476,-0.778803,0.216000,-0.779000,0.210496,-0.779000,0.205981,-0.779903,0.205476,-0.779803,0.205000,-0.780000,0.145000,-0.780000,0.144524,-0.779803,0.144019,-0.779903,0.139504,-0.779000,0.134000,-0.779000,
0.133524,-0.778803,0.133019,-0.778903,0.123019,-0.776903,0.122621,-0.776636,0.122143,-0.776642,0.107143,-0.770642,0.106985,-0.770488,0.106764,-0.770472,0.102948,-0.768564,0.098143,-0.766642,0.097658,-0.766169,0.097000,-0.766000,0.093201,-0.763151,0.088428,-0.760287,0.088266,-0.760068,0.088000,-0.760000,0.084000,-0.757000,0.083810,-0.756679,0.083465,-0.756536,0.079712,-0.752784,
0.076000,-0.750000,0.075628,-0.749372,0.075000,-0.749000,0.072213,-0.745284,0.068464,-0.741536,0.068321,-0.741190,0.068000,-0.741000,0.065000,-0.737000,0.064932,-0.736735,0.064713,-0.736573,0.061849,-0.731798,0.059000,-0.728000,0.058831,-0.727342,0.058358,-0.726857,0.056436,-0.722052,0.054528,-0.718236,0.054512,-0.718015,0.054358,-0.717857,0.048358,-0.702857,0.048364,-0.702379,
0.048097,-0.701981,0.046097,-0.691981,0.046197,-0.691476,0.046000,-0.691000,0.046000,-0.685496,0.045097,-0.680981,0.045197,-0.680476,0.045000,-0.680000,0.045000,-0.305000,-0.188000,-0.305001,-0.191537,-0.303534,-0.303536,-0.191536,-0.305000,-0.187998,-0.305000,0.300000,-0.303536,0.303536,-0.300000,0.305000,0.300000,0.305000,0.303536,0.303536,0.303536,0.303536,$1*%
G04 Aperture macros list end*
%TA.AperFunction,SMDPad,CuDef*%
%ADD10RoundRect,0.250000X-0.550000X1.250000X-0.550000X-1.250000X0.550000X-1.250000X0.550000X1.250000X0*%
%TD*%
%TA.AperFunction,SMDPad,CuDef*%
%ADD11RoundRect,0.218750X-0.218750X-0.256250X0.218750X-0.256250X0.218750X0.256250X-0.218750X0.256250X0*%
%TD*%
%TA.AperFunction,SMDPad,CuDef*%
%ADD12R,0.580000X0.300000*%
%TD*%
%TA.AperFunction,SMDPad,CuDef*%
%ADD13R,0.580000X0.250000*%
%TD*%
%TA.AperFunction,SMDPad,CuDef*%
%ADD14R,0.350000X0.630000*%
%TD*%
%TA.AperFunction,SMDPad,CuDef*%
%ADD15RoundRect,0.140000X0.140000X0.170000X-0.140000X0.170000X-0.140000X-0.170000X0.140000X-0.170000X0*%
%TD*%
%TA.AperFunction,SMDPad,CuDef*%
%ADD16RoundRect,0.135000X-0.135000X-0.185000X0.135000X-0.185000X0.135000X0.185000X-0.135000X0.185000X0*%
%TD*%
%TA.AperFunction,SMDPad,CuDef*%
%ADD17RoundRect,0.225000X0.250000X-0.225000X0.250000X0.225000X-0.250000X0.225000X-0.250000X-0.225000X0*%
%TD*%
%TA.AperFunction,SMDPad,CuDef*%
%ADD18R,1.000000X1.500000*%
%TD*%
%TA.AperFunction,SMDPad,CuDef*%
%ADD19RoundRect,0.225000X-0.225000X-0.250000X0.225000X-0.250000X0.225000X0.250000X-0.225000X0.250000X0*%
%TD*%
%TA.AperFunction,SMDPad,CuDef*%
%ADD20RoundRect,0.225000X-0.250000X0.225000X-0.250000X-0.225000X0.250000X-0.225000X0.250000X0.225000X0*%
%TD*%
%TA.AperFunction,SMDPad,CuDef*%
%ADD21RoundRect,0.250000X0.375000X0.850000X-0.375000X0.850000X-0.375000X-0.850000X0.375000X-0.850000X0*%
%TD*%
%TA.AperFunction,SMDPad,CuDef*%
%ADD22RoundRect,0.135000X0.135000X0.185000X-0.135000X0.185000X-0.135000X-0.185000X0.135000X-0.185000X0*%
%TD*%
%TA.AperFunction,SMDPad,CuDef*%
%ADD23RoundRect,0.250000X-0.250000X-0.475000X0.250000X-0.475000X0.250000X0.475000X-0.250000X0.475000X0*%
%TD*%
%TA.AperFunction,SMDPad,CuDef*%
%ADD24RoundRect,0.140000X-0.170000X0.140000X-0.170000X-0.140000X0.170000X-0.140000X0.170000X0.140000X0*%
%TD*%
%TA.AperFunction,SMDPad,CuDef*%
%ADD25FreePoly0,0.000000*%
%TD*%
%TA.AperFunction,SMDPad,CuDef*%
%ADD26FreePoly1,0.000000*%
%TD*%
%TA.AperFunction,SMDPad,CuDef*%
%ADD27FreePoly2,0.000000*%
%TD*%
%TA.AperFunction,SMDPad,CuDef*%
%ADD28FreePoly3,0.000000*%
%TD*%
%TA.AperFunction,SMDPad,CuDef*%
%ADD29FreePoly4,0.000000*%
%TD*%
%TA.AperFunction,SMDPad,CuDef*%
%ADD30FreePoly5,0.000000*%
%TD*%
%TA.AperFunction,SMDPad,CuDef*%
%ADD31FreePoly6,0.000000*%
%TD*%
%TA.AperFunction,SMDPad,CuDef*%
%ADD32FreePoly7,0.000000*%
%TD*%
%TA.AperFunction,SMDPad,CuDef*%
%ADD33FreePoly8,0.000000*%
%TD*%
%TA.AperFunction,SMDPad,CuDef*%
%ADD34FreePoly9,0.000000*%
%TD*%
%TA.AperFunction,SMDPad,CuDef*%
%ADD35FreePoly10,0.000000*%
%TD*%
%TA.AperFunction,SMDPad,CuDef*%
%ADD36FreePoly11,0.000000*%
%TD*%
%TA.AperFunction,SMDPad,CuDef*%
%ADD37FreePoly12,0.000000*%
%TD*%
%TA.AperFunction,SMDPad,CuDef*%
%ADD38FreePoly13,0.000000*%
%TD*%
%TA.AperFunction,SMDPad,CuDef*%
%ADD39RoundRect,0.135000X0.185000X-0.135000X0.185000X0.135000X-0.185000X0.135000X-0.185000X-0.135000X0*%
%TD*%
%TA.AperFunction,ComponentPad*%
%ADD40C,0.700000*%
%TD*%
%TA.AperFunction,ComponentPad*%
%ADD41O,2.400000X0.900000*%
%TD*%
%TA.AperFunction,ComponentPad*%
%ADD42O,1.700000X0.900000*%
%TD*%
%TA.AperFunction,SMDPad,CuDef*%
%ADD43RoundRect,0.200000X-0.200000X-0.275000X0.200000X-0.275000X0.200000X0.275000X-0.200000X0.275000X0*%
%TD*%
%TA.AperFunction,ComponentPad*%
%ADD44R,1.950000X1.950000*%
%TD*%
%TA.AperFunction,ComponentPad*%
%ADD45C,1.950000*%
%TD*%
%TA.AperFunction,SMDPad,CuDef*%
%ADD46RoundRect,0.012800X-0.147200X0.332200X-0.147200X-0.332200X0.147200X-0.332200X0.147200X0.332200X0*%
%TD*%
%TA.AperFunction,SMDPad,CuDef*%
%ADD47RoundRect,0.012800X0.147200X-0.332200X0.147200X0.332200X-0.147200X0.332200X-0.147200X-0.332200X0*%
%TD*%
%TA.AperFunction,SMDPad,CuDef*%
%ADD48R,0.670000X1.000000*%
%TD*%
%TA.AperFunction,ComponentPad*%
%ADD49R,3.000000X3.000000*%
%TD*%
%TA.AperFunction,ComponentPad*%
%ADD50C,3.000000*%
%TD*%
%TA.AperFunction,ComponentPad*%
%ADD51R,1.700000X1.700000*%
%TD*%
%TA.AperFunction,ComponentPad*%
%ADD52O,1.700000X1.700000*%
%TD*%
%TA.AperFunction,ViaPad*%
%ADD53C,0.800000*%
%TD*%
%TA.AperFunction,ViaPad*%
%ADD54C,0.560000*%
%TD*%
%TA.AperFunction,Conductor*%
%ADD55C,0.500000*%
%TD*%
%TA.AperFunction,Conductor*%
%ADD56C,1.500000*%
%TD*%
%TA.AperFunction,Conductor*%
%ADD57C,0.150000*%
%TD*%
%TA.AperFunction,Conductor*%
%ADD58C,0.750000*%
%TD*%
%TA.AperFunction,Conductor*%
%ADD59C,0.250000*%
%TD*%
%TA.AperFunction,Conductor*%
%ADD60C,1.000000*%
%TD*%
G04 APERTURE END LIST*
G36*
X119630000Y-80564000D02*
G01*
X119130000Y-80564000D01*
X119130000Y-79964000D01*
X119630000Y-79964000D01*
X119630000Y-80564000D01*
G37*
G36*
X124710000Y-80564000D02*
G01*
X124210000Y-80564000D01*
X124210000Y-79964000D01*
X124710000Y-79964000D01*
X124710000Y-80564000D01*
G37*
G36*
X107042000Y-80564000D02*
G01*
X106542000Y-80564000D01*
X106542000Y-79964000D01*
X107042000Y-79964000D01*
X107042000Y-80564000D01*
G37*
D10*
X168200000Y-63800000D03*
X168200000Y-68200000D03*
D11*
X101574500Y-50038000D03*
X103149500Y-50038000D03*
D12*
X162433000Y-72325000D03*
D13*
X162433000Y-72825000D03*
D12*
X162433000Y-73325000D03*
D14*
X163068000Y-73260000D03*
D12*
X163703000Y-73325000D03*
D13*
X163703000Y-72825000D03*
D12*
X163703000Y-72325000D03*
D14*
X163068000Y-72390000D03*
D15*
X114780000Y-60452000D03*
X113820000Y-60452000D03*
D16*
X107186000Y-54864000D03*
X108206000Y-54864000D03*
D17*
X118322000Y-55637000D03*
X118322000Y-54087000D03*
D18*
X120030000Y-80264000D03*
X118730000Y-80264000D03*
D19*
X112511000Y-48514000D03*
X114061000Y-48514000D03*
D18*
X125110000Y-80264000D03*
X123810000Y-80264000D03*
D16*
X107186000Y-53594000D03*
X108206000Y-53594000D03*
D20*
X116622000Y-57137000D03*
X116622000Y-58687000D03*
D17*
X116622000Y-55637000D03*
X116622000Y-54087000D03*
D21*
X119207000Y-51662000D03*
X117057000Y-51662000D03*
D18*
X106142000Y-80264000D03*
X107442000Y-80264000D03*
X108742000Y-80264000D03*
D22*
X162562000Y-70104000D03*
X161542000Y-70104000D03*
D23*
X112336000Y-50546000D03*
X114236000Y-50546000D03*
D24*
X120582000Y-53582000D03*
X120582000Y-54542000D03*
D22*
X114810000Y-58928000D03*
X113790000Y-58928000D03*
D25*
X111182000Y-54562000D03*
D26*
X111182000Y-54962000D03*
X111182000Y-55362000D03*
X111182000Y-55762000D03*
X111182000Y-56162000D03*
D27*
X111182000Y-56562000D03*
D28*
X111682000Y-57062000D03*
D29*
X112082000Y-57062000D03*
D30*
X112482000Y-57062000D03*
D29*
X112882000Y-57062000D03*
X113282000Y-57062000D03*
D31*
X113682000Y-57062000D03*
D32*
X114182000Y-56362000D03*
D33*
X114182000Y-55562000D03*
D34*
X114182000Y-54962000D03*
D35*
X114182000Y-54562000D03*
D36*
X113082000Y-54062000D03*
D37*
X112482000Y-54062000D03*
D38*
X111882000Y-54062000D03*
D39*
X160274000Y-72159000D03*
X160274000Y-71139000D03*
D22*
X124970000Y-77978000D03*
X123950000Y-77978000D03*
D16*
X110996000Y-80264000D03*
X112016000Y-80264000D03*
D22*
X157990000Y-72644000D03*
X156970000Y-72644000D03*
D24*
X160274000Y-73455000D03*
X160274000Y-74415000D03*
D40*
X92025000Y-63025000D03*
X92025000Y-63875000D03*
X92025000Y-64725000D03*
X92025000Y-65575000D03*
X92025000Y-66425000D03*
X92025000Y-67275000D03*
X92025000Y-68125000D03*
X92025000Y-68975000D03*
X90675000Y-68975000D03*
X90675000Y-68125000D03*
X90675000Y-67275000D03*
X90675000Y-66425000D03*
X90675000Y-65575000D03*
X90675000Y-64725000D03*
X90675000Y-63875000D03*
X90675000Y-63025000D03*
D41*
X91045000Y-70325000D03*
X91045000Y-61675000D03*
D42*
X87665000Y-61675000D03*
X87665000Y-70325000D03*
D22*
X114810000Y-61722000D03*
X113790000Y-61722000D03*
D11*
X101574500Y-48006000D03*
X103149500Y-48006000D03*
D22*
X119890000Y-77978000D03*
X118870000Y-77978000D03*
D24*
X110492000Y-50038000D03*
X110492000Y-50998000D03*
D39*
X114554000Y-76710000D03*
X114554000Y-75690000D03*
D43*
X161989000Y-75713000D03*
X163639000Y-75713000D03*
D24*
X109982000Y-52860000D03*
X109982000Y-53820000D03*
D44*
X177337500Y-61000000D03*
D45*
X177337500Y-66000000D03*
X177337500Y-71000000D03*
D46*
X115570000Y-64938000D03*
X114920000Y-64938000D03*
X114270000Y-64938000D03*
D47*
X114270000Y-66978000D03*
X114920000Y-66978000D03*
X115570000Y-66978000D03*
D48*
X115410000Y-65958000D03*
X114430000Y-65958000D03*
D49*
X98300000Y-56350000D03*
D50*
X169700000Y-56350000D03*
X98300000Y-75650000D03*
X169700000Y-75650000D03*
D51*
X93472000Y-82301000D03*
D52*
X93472000Y-79761000D03*
D53*
X141600000Y-79300000D03*
X123600000Y-82050000D03*
X129600000Y-67150000D03*
X150600000Y-76550000D03*
X141600000Y-76550000D03*
X90000000Y-55250000D03*
X126600000Y-73800000D03*
X132600000Y-73800000D03*
X147600000Y-84800000D03*
X115400000Y-49600000D03*
D54*
X117600000Y-60800000D03*
D53*
X141600000Y-47000000D03*
X126600000Y-79300000D03*
X138600000Y-50000000D03*
X87000000Y-82650000D03*
X87000000Y-58000000D03*
X174600000Y-47000000D03*
X159600000Y-82050000D03*
X144600000Y-47000000D03*
X150600000Y-73800000D03*
X156600000Y-73800000D03*
X135600000Y-53400000D03*
X135600000Y-76550000D03*
D54*
X166200000Y-75713000D03*
D53*
X156600000Y-84800000D03*
X132600000Y-82050000D03*
X126600000Y-84800000D03*
X180600000Y-84800000D03*
X153600000Y-73800000D03*
X174600000Y-51800000D03*
X147600000Y-53400000D03*
X147600000Y-50000000D03*
X93000000Y-49750000D03*
X174600000Y-57300000D03*
X144600000Y-76550000D03*
X177600000Y-57300000D03*
X144600000Y-84800000D03*
X147600000Y-76550000D03*
X171600000Y-84800000D03*
X159600000Y-50000000D03*
X153600000Y-79300000D03*
X159600000Y-84800000D03*
X180600000Y-50000000D03*
X87000000Y-55250000D03*
X144600000Y-56150000D03*
D54*
X119636000Y-53594000D03*
D53*
X132600000Y-47000000D03*
X97200000Y-84800000D03*
X93000000Y-55250000D03*
X138600000Y-61650000D03*
X126600000Y-82050000D03*
X150600000Y-82050000D03*
D54*
X164600000Y-75713000D03*
D53*
X126600000Y-50000000D03*
X132600000Y-56150000D03*
X132600000Y-67150000D03*
X87000000Y-77150000D03*
X135600000Y-58900000D03*
X132600000Y-53400000D03*
X141600000Y-82050000D03*
X126600000Y-67150000D03*
X156600000Y-67150000D03*
X150600000Y-64400000D03*
X177600000Y-79800000D03*
X174600000Y-79800000D03*
X156600000Y-58900000D03*
X129600000Y-73800000D03*
X123600000Y-58900000D03*
X165600000Y-82050000D03*
X100200000Y-84800000D03*
X144600000Y-58900000D03*
X141600000Y-56150000D03*
X168600000Y-50000000D03*
X132600000Y-64400000D03*
X171600000Y-47000000D03*
X129600000Y-56150000D03*
X135600000Y-67150000D03*
X123600000Y-67150000D03*
X90000000Y-74400000D03*
X129600000Y-58900000D03*
X138600000Y-79300000D03*
X153600000Y-56150000D03*
X144600000Y-53400000D03*
X93000000Y-47000000D03*
X123600000Y-73800000D03*
X87000000Y-74400000D03*
X165600000Y-47000000D03*
X112200000Y-84800000D03*
X144600000Y-64400000D03*
X177600000Y-47000000D03*
X129600000Y-82050000D03*
D54*
X164592000Y-73681000D03*
D53*
X144600000Y-73800000D03*
X115400000Y-52800000D03*
X153600000Y-50000000D03*
X177600000Y-50000000D03*
X174600000Y-84800000D03*
X147600000Y-82050000D03*
X123600000Y-50000000D03*
X135600000Y-73800000D03*
X123600000Y-64400000D03*
X147600000Y-73800000D03*
X126600000Y-56150000D03*
X153600000Y-84800000D03*
X126600000Y-53400000D03*
X135600000Y-56150000D03*
X129600000Y-64400000D03*
X90000000Y-79900000D03*
X87000000Y-52500000D03*
X138600000Y-84800000D03*
D54*
X116600000Y-61800000D03*
D53*
X138600000Y-82050000D03*
D54*
X115600000Y-60800000D03*
D53*
X177600000Y-82050000D03*
X177600000Y-54550000D03*
X90000000Y-52500000D03*
X112070926Y-55612387D03*
X150600000Y-79300000D03*
X115400000Y-48600000D03*
X174600000Y-82050000D03*
X132600000Y-50000000D03*
X150600000Y-67150000D03*
X150600000Y-84800000D03*
X153600000Y-53400000D03*
X153600000Y-82050000D03*
X171600000Y-82050000D03*
X135600000Y-84800000D03*
X144600000Y-67150000D03*
X135600000Y-61650000D03*
X132600000Y-79300000D03*
X147600000Y-67150000D03*
X123600000Y-61650000D03*
X177600000Y-77050000D03*
X87000000Y-47000000D03*
X141600000Y-61650000D03*
X141600000Y-58900000D03*
X109200000Y-84800000D03*
X162600000Y-82050000D03*
X132600000Y-84800000D03*
X126600000Y-58900000D03*
X147600000Y-64400000D03*
X126600000Y-47000000D03*
X180600000Y-82050000D03*
X153600000Y-61650000D03*
X135600000Y-64400000D03*
X144600000Y-50000000D03*
X129600000Y-50000000D03*
X156600000Y-53400000D03*
X115200000Y-84800000D03*
X138600000Y-73800000D03*
X165600000Y-50000000D03*
X156600000Y-82050000D03*
X180600000Y-51800000D03*
X138600000Y-67150000D03*
X126600000Y-61650000D03*
X177600000Y-74300000D03*
X156600000Y-50000000D03*
X150600000Y-50000000D03*
X129600000Y-53400000D03*
X138600000Y-47000000D03*
X168600000Y-47000000D03*
X87000000Y-79900000D03*
X129600000Y-76550000D03*
X180600000Y-79800000D03*
X174600000Y-77050000D03*
X138600000Y-76550000D03*
X144600000Y-61650000D03*
X129600000Y-47000000D03*
X174600000Y-50000000D03*
X144600000Y-82050000D03*
X138600000Y-56150000D03*
X123600000Y-53400000D03*
X168600000Y-84800000D03*
X162600000Y-47000000D03*
X153600000Y-58900000D03*
X141600000Y-64400000D03*
X159600000Y-47000000D03*
X150600000Y-56150000D03*
X156600000Y-79300000D03*
D54*
X115600000Y-59800000D03*
D53*
X123600000Y-47000000D03*
X124200000Y-84800000D03*
X150600000Y-61650000D03*
X93000000Y-52500000D03*
X180600000Y-54550000D03*
X150600000Y-47000000D03*
X93000000Y-58000000D03*
D54*
X115600000Y-61800000D03*
D53*
X153600000Y-76550000D03*
X147600000Y-61650000D03*
X141600000Y-73800000D03*
X135600000Y-79300000D03*
X123600000Y-76550000D03*
X147600000Y-56150000D03*
X147600000Y-58900000D03*
X129600000Y-79300000D03*
X177600000Y-84800000D03*
X90000000Y-47000000D03*
X147600000Y-79300000D03*
X153600000Y-47000000D03*
X150600000Y-53400000D03*
X90000000Y-77150000D03*
X153600000Y-67150000D03*
X135600000Y-82050000D03*
X135600000Y-47000000D03*
D54*
X117600000Y-59800000D03*
D53*
X129600000Y-61650000D03*
X141600000Y-84800000D03*
X180600000Y-74300000D03*
X174600000Y-74300000D03*
X138600000Y-64400000D03*
X156600000Y-47000000D03*
X162600000Y-50000000D03*
X165600000Y-84800000D03*
X180600000Y-77050000D03*
X90000000Y-58000000D03*
X150600000Y-58900000D03*
X156600000Y-64400000D03*
X115400000Y-50600000D03*
X180600000Y-57300000D03*
X180600000Y-47000000D03*
X87000000Y-49750000D03*
X168600000Y-82050000D03*
X106200000Y-84800000D03*
X132600000Y-61650000D03*
D54*
X116600000Y-59800000D03*
D53*
X90000000Y-49750000D03*
X126600000Y-76550000D03*
X138600000Y-53400000D03*
X114400000Y-52800000D03*
X132600000Y-76550000D03*
X156600000Y-76550000D03*
D54*
X116600000Y-60800000D03*
D53*
X129600000Y-84800000D03*
X141600000Y-53400000D03*
X138600000Y-58900000D03*
X123600000Y-56150000D03*
X156600000Y-56150000D03*
X121200000Y-84800000D03*
X156600000Y-61650000D03*
X90000000Y-82650000D03*
D54*
X165400000Y-75713000D03*
D53*
X103200000Y-84800000D03*
X174600000Y-54550000D03*
X162600000Y-84800000D03*
X141600000Y-50000000D03*
D54*
X113030000Y-80264000D03*
D53*
X141600000Y-67150000D03*
X171600000Y-50000000D03*
X144600000Y-79300000D03*
D54*
X110490000Y-49276000D03*
D53*
X147600000Y-47000000D03*
X132600000Y-58900000D03*
X118200000Y-84800000D03*
X153600000Y-64400000D03*
X177600000Y-51800000D03*
X126600000Y-64400000D03*
X135600000Y-50000000D03*
D54*
X115316000Y-57912000D03*
X119636000Y-54610000D03*
X117094000Y-66802000D03*
X155702000Y-72644000D03*
X113082000Y-52812000D03*
X113282000Y-51800000D03*
X116182000Y-51662000D03*
X108966000Y-52832000D03*
X115200000Y-51800000D03*
X100584000Y-48006000D03*
X106426000Y-53594000D03*
X100584000Y-50038000D03*
X106426000Y-54610000D03*
X96800000Y-64050000D03*
X89154000Y-72136000D03*
X117348000Y-62484000D03*
X166116000Y-70104000D03*
X107442000Y-78232000D03*
X113792000Y-59690000D03*
X116332000Y-63246000D03*
X163322000Y-70358000D03*
X163068000Y-71374000D03*
X118872000Y-68072000D03*
X164592000Y-72644000D03*
X159004000Y-72644000D03*
X114554000Y-74168000D03*
X114300000Y-57912000D03*
D55*
X160274000Y-71139000D02*
X160274000Y-70358000D01*
D56*
X114270000Y-69626000D02*
X112776000Y-71120000D01*
D55*
X116575000Y-71139000D02*
X160274000Y-71139000D01*
X160528000Y-70104000D02*
X161542000Y-70104000D01*
D56*
X114270000Y-68834000D02*
X114270000Y-69626000D01*
D55*
X114270000Y-66978000D02*
X114270000Y-68834000D01*
D56*
X112776000Y-71120000D02*
X102830000Y-71120000D01*
D55*
X114270000Y-68834000D02*
X116575000Y-71139000D01*
X160274000Y-70358000D02*
X160528000Y-70104000D01*
D56*
X102830000Y-71120000D02*
X98300000Y-75650000D01*
X162814000Y-78486000D02*
X162052000Y-77724000D01*
D55*
X162052000Y-77724000D02*
X162052000Y-75776000D01*
D56*
X166864000Y-78486000D02*
X163322000Y-78486000D01*
D55*
X161036000Y-75713000D02*
X161989000Y-75713000D01*
D56*
X163322000Y-78486000D02*
X162814000Y-78486000D01*
X169700000Y-75650000D02*
X166864000Y-78486000D01*
D55*
X160274000Y-74951000D02*
X161036000Y-75713000D01*
D57*
X162433000Y-75269000D02*
X161989000Y-75713000D01*
D55*
X162052000Y-75776000D02*
X161989000Y-75713000D01*
X160274000Y-74415000D02*
X160274000Y-74951000D01*
D57*
X162433000Y-73325000D02*
X162433000Y-75269000D01*
D55*
X112016000Y-80264000D02*
X113030000Y-80264000D01*
D58*
X166349000Y-75713000D02*
X166603000Y-75713000D01*
X164317000Y-75713000D02*
X164825000Y-75713000D01*
D59*
X163703000Y-73325000D02*
X164236000Y-73325000D01*
D57*
X163068000Y-75142000D02*
X163639000Y-75713000D01*
D58*
X165841000Y-75713000D02*
X166349000Y-75713000D01*
D59*
X112482000Y-57062000D02*
X112482000Y-56094000D01*
X112057313Y-55626000D02*
X112070926Y-55612387D01*
D57*
X163068000Y-73260000D02*
X163068000Y-75142000D01*
D59*
X164236000Y-73325000D02*
X164592000Y-73681000D01*
D58*
X165333000Y-75713000D02*
X165841000Y-75713000D01*
X163639000Y-75713000D02*
X164317000Y-75713000D01*
X164825000Y-75713000D02*
X165333000Y-75713000D01*
D55*
X110492000Y-50038000D02*
X110492000Y-49278000D01*
D59*
X119648000Y-53582000D02*
X119636000Y-53594000D01*
X112014000Y-55626000D02*
X112057313Y-55626000D01*
D55*
X110492000Y-49278000D02*
X110490000Y-49276000D01*
D59*
X163133000Y-73325000D02*
X163068000Y-73260000D01*
X120582000Y-53582000D02*
X119648000Y-53582000D01*
X112482000Y-56094000D02*
X112014000Y-55626000D01*
X163703000Y-73325000D02*
X163133000Y-73325000D01*
D55*
X111882000Y-53206000D02*
X110492000Y-51816000D01*
D58*
X107950000Y-51816000D02*
X109220000Y-51816000D01*
D55*
X92025000Y-63875000D02*
X93218000Y-63875000D01*
D58*
X93218000Y-63875000D02*
X94875000Y-63875000D01*
X94875000Y-63875000D02*
X106934000Y-51816000D01*
D55*
X111882000Y-54062000D02*
X111882000Y-53206000D01*
X110492000Y-51816000D02*
X110492000Y-50998000D01*
X109220000Y-51816000D02*
X110492000Y-51816000D01*
X90675000Y-63875000D02*
X92025000Y-63875000D01*
X90675000Y-68125000D02*
X92025000Y-68125000D01*
D58*
X106934000Y-51816000D02*
X107950000Y-51816000D01*
D59*
X113030000Y-60452000D02*
X112882000Y-60304000D01*
X113820000Y-60452000D02*
X113030000Y-60452000D01*
X112882000Y-60304000D02*
X112882000Y-57062000D01*
X119636000Y-54610000D02*
X119311000Y-54935000D01*
X119636000Y-54610000D02*
X119704000Y-54542000D01*
X114209000Y-54935000D02*
X114182000Y-54962000D01*
X115316000Y-57912000D02*
X115316000Y-58422000D01*
X119704000Y-54542000D02*
X120582000Y-54542000D01*
X119311000Y-54935000D02*
X114209000Y-54935000D01*
X115316000Y-58422000D02*
X114810000Y-58928000D01*
D55*
X114182000Y-56362000D02*
X114784000Y-56362000D01*
X116926000Y-64938000D02*
X117094000Y-64770000D01*
D60*
X117094000Y-64770000D02*
X118618000Y-63246000D01*
D55*
X114784000Y-56362000D02*
X115572000Y-57150000D01*
D60*
X118618000Y-63246000D02*
X118618000Y-58420000D01*
D55*
X115570000Y-64938000D02*
X116926000Y-64938000D01*
D60*
X118618000Y-58420000D02*
X117335000Y-57137000D01*
D55*
X115572000Y-57150000D02*
X116609000Y-57150000D01*
D60*
X117335000Y-57137000D02*
X116622000Y-57137000D01*
D55*
X155702000Y-72644000D02*
X156970000Y-72644000D01*
X116609000Y-57150000D02*
X116622000Y-57137000D01*
X117094000Y-64770000D02*
X117094000Y-66802000D01*
X112511000Y-49289000D02*
X112270000Y-49530000D01*
X112270000Y-49530000D02*
X112270000Y-50480000D01*
D59*
X112482000Y-52882000D02*
X112200000Y-52600000D01*
D55*
X112511000Y-48514000D02*
X112511000Y-49289000D01*
D59*
X112482000Y-54062000D02*
X112482000Y-52882000D01*
X112200000Y-50682000D02*
X112336000Y-50546000D01*
D55*
X112270000Y-50480000D02*
X112336000Y-50546000D01*
D59*
X112200000Y-52600000D02*
X112200000Y-50682000D01*
D55*
X106680000Y-47244000D02*
X117348000Y-47244000D01*
D56*
X168200000Y-62800000D02*
X168200000Y-63800000D01*
X170000000Y-61000000D02*
X168200000Y-62800000D01*
X157072000Y-51662000D02*
X119207000Y-51662000D01*
X166410000Y-61000000D02*
X157072000Y-51662000D01*
D55*
X105918000Y-48006000D02*
X106680000Y-47244000D01*
X103149500Y-48006000D02*
X103149500Y-50038000D01*
X117348000Y-47244000D02*
X119207000Y-49103000D01*
D56*
X177337500Y-61000000D02*
X170000000Y-61000000D01*
D55*
X103149500Y-48006000D02*
X105918000Y-48006000D01*
X119207000Y-49103000D02*
X119207000Y-51662000D01*
D56*
X170000000Y-61000000D02*
X166410000Y-61000000D01*
D55*
X160274000Y-72159000D02*
X160274000Y-73455000D01*
D59*
X162433000Y-72825000D02*
X160904000Y-72825000D01*
X160904000Y-72825000D02*
X160274000Y-73455000D01*
D55*
X113082000Y-52000000D02*
X113082000Y-52812000D01*
X113082000Y-54062000D02*
X113082000Y-52812000D01*
X116182000Y-51662000D02*
X117057000Y-51662000D01*
X113282000Y-51800000D02*
X113082000Y-52000000D01*
D59*
X108966000Y-52832000D02*
X108994000Y-52860000D01*
X108994000Y-52860000D02*
X109982000Y-52860000D01*
D55*
X115338000Y-51662000D02*
X115200000Y-51800000D01*
X117057000Y-51662000D02*
X115338000Y-51662000D01*
D59*
X110705000Y-53820000D02*
X109982000Y-53820000D01*
X111182000Y-54562000D02*
X111182000Y-54297000D01*
X111182000Y-54297000D02*
X110705000Y-53820000D01*
D55*
X107186000Y-53594000D02*
X106426000Y-53594000D01*
X100584000Y-48006000D02*
X101574500Y-48006000D01*
X100584000Y-50038000D02*
X101574500Y-50038000D01*
X107186000Y-54864000D02*
X106680000Y-54864000D01*
X106680000Y-54864000D02*
X106426000Y-54610000D01*
D59*
X92025000Y-64725000D02*
X96975000Y-64725000D01*
X96975000Y-64725000D02*
X105538000Y-56162000D01*
X105538000Y-56162000D02*
X111182000Y-56162000D01*
X91175000Y-66425000D02*
X91400000Y-66200000D01*
X91400000Y-66200000D02*
X91400000Y-65850000D01*
X92025000Y-65575000D02*
X96725000Y-65575000D01*
X91675000Y-65575000D02*
X92025000Y-65575000D01*
X90675000Y-66425000D02*
X91175000Y-66425000D01*
X105767000Y-56539000D02*
X110998000Y-56539000D01*
X91400000Y-65850000D02*
X91675000Y-65575000D01*
X100079000Y-62227000D02*
X105767000Y-56539000D01*
X96725000Y-65575000D02*
X100073000Y-62227000D01*
X105938000Y-57062000D02*
X111682000Y-57062000D01*
X92025000Y-66425000D02*
X96575000Y-66425000D01*
X96575000Y-66425000D02*
X105938000Y-57062000D01*
X96800000Y-64050000D02*
X105188000Y-55762000D01*
X89154000Y-67818000D02*
X89697000Y-67275000D01*
X89697000Y-67275000D02*
X90675000Y-67275000D01*
X89154000Y-72136000D02*
X89154000Y-67818000D01*
X105188000Y-55762000D02*
X111182000Y-55762000D01*
X113030000Y-61722000D02*
X113790000Y-61722000D01*
X166116000Y-70104000D02*
X167012000Y-71000000D01*
X167012000Y-71000000D02*
X177337500Y-71000000D01*
X112082000Y-57062000D02*
X112082000Y-60774000D01*
X113790000Y-61722000D02*
X114552000Y-62484000D01*
X114552000Y-62484000D02*
X117348000Y-62484000D01*
X112082000Y-60774000D02*
X113030000Y-61722000D01*
D55*
X123810000Y-80264000D02*
X123810000Y-78118000D01*
X120030000Y-80264000D02*
X123810000Y-80264000D01*
X123810000Y-78118000D02*
X123950000Y-77978000D01*
X120030000Y-80264000D02*
X120030000Y-78118000D01*
X120030000Y-78118000D02*
X119890000Y-77978000D01*
X114554000Y-76710000D02*
X114554000Y-77978000D01*
X116840000Y-80264000D02*
X118730000Y-80264000D01*
X118730000Y-80264000D02*
X118730000Y-78118000D01*
X114554000Y-77978000D02*
X116840000Y-80264000D01*
X118730000Y-78118000D02*
X118870000Y-77978000D01*
X99568000Y-80264000D02*
X106142000Y-80264000D01*
X97531000Y-82301000D02*
X99568000Y-80264000D01*
X93472000Y-82301000D02*
X97531000Y-82301000D01*
D59*
X113282000Y-58420000D02*
X113790000Y-58928000D01*
X113282000Y-57062000D02*
X113282000Y-58420000D01*
X113790000Y-58928000D02*
X113790000Y-59688000D01*
X113790000Y-59688000D02*
X113792000Y-59690000D01*
D55*
X107442000Y-78232000D02*
X107442000Y-80264000D01*
X108742000Y-80264000D02*
X110996000Y-80264000D01*
D59*
X163703000Y-70739000D02*
X163703000Y-72325000D01*
X163322000Y-70358000D02*
X163703000Y-70739000D01*
X114920000Y-64938000D02*
X114920000Y-63642000D01*
X114920000Y-63642000D02*
X115316000Y-63246000D01*
X115316000Y-63246000D02*
X116332000Y-63246000D01*
D55*
X115410000Y-65958000D02*
X115570000Y-66118000D01*
X114430000Y-65958000D02*
X114270000Y-65798000D01*
X115570000Y-66118000D02*
X115570000Y-66978000D01*
X114430000Y-65958000D02*
X115410000Y-65958000D01*
X114270000Y-65798000D02*
X114270000Y-64938000D01*
D59*
X115316000Y-68072000D02*
X114920000Y-67676000D01*
X163068000Y-71374000D02*
X163068000Y-72390000D01*
X114920000Y-67676000D02*
X114920000Y-66978000D01*
X118872000Y-68072000D02*
X115316000Y-68072000D01*
X111182000Y-54962000D02*
X109597158Y-54962000D01*
X109122158Y-54004158D02*
X108712000Y-53594000D01*
X109597158Y-54962000D02*
X109122158Y-54487000D01*
X108712000Y-53594000D02*
X108206000Y-53594000D01*
X109122158Y-54487000D02*
X109122158Y-54004158D01*
X109464000Y-55362000D02*
X108966000Y-54864000D01*
X108966000Y-54864000D02*
X108206000Y-54864000D01*
X111182000Y-55362000D02*
X109464000Y-55362000D01*
X164592000Y-72644000D02*
X164411000Y-72825000D01*
X157990000Y-72644000D02*
X159004000Y-72644000D01*
X164411000Y-72825000D02*
X163703000Y-72825000D01*
X113682000Y-57294000D02*
X114300000Y-57912000D01*
D55*
X114554000Y-74168000D02*
X114554000Y-75690000D01*
D59*
X113682000Y-57062000D02*
X113682000Y-57294000D01*
X162433000Y-71247000D02*
X162562000Y-71118000D01*
X162433000Y-72325000D02*
X162433000Y-71247000D01*
X162562000Y-71118000D02*
X162562000Y-70104000D01*
%TA.AperFunction,Conductor*%
G36*
X115875039Y-48027685D02*
G01*
X115920794Y-48080489D01*
X115932000Y-48132000D01*
X115932000Y-51137500D01*
X115912315Y-51204539D01*
X115859511Y-51250294D01*
X115808000Y-51261500D01*
X115306481Y-51261500D01*
X115306477Y-51261501D01*
X115274567Y-51261501D01*
X115253490Y-51268349D01*
X115234594Y-51272886D01*
X115212696Y-51276354D01*
X115204001Y-51280784D01*
X115203999Y-51280785D01*
X115192952Y-51286414D01*
X115174977Y-51293859D01*
X115153910Y-51300704D01*
X115146013Y-51306441D01*
X115146014Y-51306441D01*
X115135987Y-51313726D01*
X115119397Y-51323892D01*
X115099658Y-51333950D01*
X115077091Y-51356517D01*
X115050964Y-51382643D01*
X115022108Y-51402512D01*
X115022406Y-51402984D01*
X114918115Y-51468786D01*
X114836485Y-51561215D01*
X114832732Y-51569208D01*
X114832731Y-51569210D01*
X114804707Y-51628900D01*
X114784077Y-51672840D01*
X114782718Y-51681566D01*
X114782718Y-51681567D01*
X114766464Y-51785957D01*
X114765105Y-51794686D01*
X114781095Y-51916960D01*
X114784652Y-51925044D01*
X114827201Y-52021747D01*
X114827203Y-52021750D01*
X114830759Y-52029832D01*
X114910107Y-52124228D01*
X114917461Y-52129123D01*
X115003657Y-52186500D01*
X115012759Y-52192559D01*
X115021190Y-52195193D01*
X115021192Y-52195194D01*
X115122028Y-52226697D01*
X115122030Y-52226697D01*
X115130463Y-52229332D01*
X115139298Y-52229494D01*
X115192110Y-52230462D01*
X115253758Y-52231592D01*
X115372730Y-52199156D01*
X115477817Y-52134633D01*
X115506190Y-52103287D01*
X115565772Y-52066794D01*
X115598122Y-52062500D01*
X115808000Y-52062500D01*
X115875039Y-52082185D01*
X115920794Y-52134989D01*
X115932000Y-52186500D01*
X115932000Y-53562000D01*
X118798000Y-53562000D01*
X118865039Y-53581685D01*
X118910794Y-53634489D01*
X118922000Y-53686000D01*
X118922000Y-54535500D01*
X118902315Y-54602539D01*
X118849511Y-54648294D01*
X118798000Y-54659500D01*
X114248344Y-54659500D01*
X114224161Y-54657119D01*
X114209000Y-54654103D01*
X114181868Y-54659500D01*
X114181867Y-54659500D01*
X114101505Y-54675485D01*
X114091350Y-54682270D01*
X114091351Y-54682270D01*
X114090776Y-54682654D01*
X114089458Y-54683054D01*
X114080066Y-54686944D01*
X114079683Y-54686019D01*
X114021885Y-54703552D01*
X113902490Y-54703552D01*
X113902490Y-54703965D01*
X113902137Y-54703945D01*
X113902138Y-54703957D01*
X113901505Y-54704019D01*
X113901505Y-54703552D01*
X113901005Y-54703552D01*
X113895967Y-54704552D01*
X113891490Y-54704552D01*
X113891490Y-54705004D01*
X113890505Y-54705101D01*
X113890505Y-54704552D01*
X113890005Y-54704552D01*
X113884041Y-54705736D01*
X113879108Y-54706221D01*
X113877711Y-54706429D01*
X113871901Y-54706434D01*
X113871411Y-54706532D01*
X113871500Y-54706979D01*
X113870507Y-54707078D01*
X113870437Y-54706726D01*
X113866927Y-54707428D01*
X113860901Y-54707434D01*
X113860411Y-54707532D01*
X113860519Y-54708072D01*
X113859528Y-54708170D01*
X113859439Y-54707726D01*
X113854932Y-54708628D01*
X113854928Y-54708628D01*
X113853945Y-54708825D01*
X113853934Y-54708827D01*
X113850426Y-54709529D01*
X113850337Y-54709085D01*
X113848863Y-54709232D01*
X113848598Y-54706566D01*
X113833586Y-54710127D01*
X113833562Y-54710127D01*
X113825980Y-54712000D01*
X113706000Y-54712000D01*
X113638961Y-54692315D01*
X113593206Y-54639511D01*
X113582000Y-54588000D01*
X113582000Y-52157912D01*
X113601685Y-52090873D01*
X113614067Y-52074699D01*
X113636647Y-52049753D01*
X113636648Y-52049752D01*
X113642571Y-52043208D01*
X113696338Y-51932232D01*
X113716797Y-51810626D01*
X113716927Y-51800000D01*
X113699445Y-51677930D01*
X113693496Y-51664846D01*
X113652061Y-51573714D01*
X113652060Y-51573712D01*
X113648405Y-51565674D01*
X113612062Y-51523496D01*
X113583214Y-51459860D01*
X113582000Y-51442554D01*
X113582000Y-48132000D01*
X113601685Y-48064961D01*
X113654489Y-48019206D01*
X113706000Y-48008000D01*
X115808000Y-48008000D01*
X115875039Y-48027685D01*
G37*
%TD.AperFunction*%
%TA.AperFunction,Conductor*%
G36*
X111443039Y-46270185D02*
G01*
X111488794Y-46322989D01*
X111500000Y-46374500D01*
X111500000Y-46619500D01*
X111480315Y-46686539D01*
X111427511Y-46732294D01*
X111376000Y-46743500D01*
X106749961Y-46743500D01*
X106738015Y-46742165D01*
X106737977Y-46742639D01*
X106729168Y-46741930D01*
X106720553Y-46739981D01*
X106711736Y-46740528D01*
X106711735Y-46740528D01*
X106667672Y-46743262D01*
X106659993Y-46743500D01*
X106644060Y-46743500D01*
X106639692Y-46744126D01*
X106639686Y-46744126D01*
X106633870Y-46744959D01*
X106623971Y-46745973D01*
X106591548Y-46747985D01*
X106586278Y-46748312D01*
X106577462Y-46748859D01*
X106569151Y-46751860D01*
X106566319Y-46752446D01*
X106549616Y-46756610D01*
X106546832Y-46757424D01*
X106538082Y-46758677D01*
X106495652Y-46777969D01*
X106486446Y-46781716D01*
X106450925Y-46794539D01*
X106450923Y-46794540D01*
X106442613Y-46797540D01*
X106435475Y-46802755D01*
X106432915Y-46804116D01*
X106418045Y-46812805D01*
X106415615Y-46814359D01*
X106407572Y-46818016D01*
X106372259Y-46848444D01*
X106364469Y-46854629D01*
X106353664Y-46862522D01*
X106342864Y-46873322D01*
X106336125Y-46879579D01*
X106305655Y-46905833D01*
X106305652Y-46905836D01*
X106298963Y-46911600D01*
X106294157Y-46919015D01*
X106288815Y-46925139D01*
X106279349Y-46936837D01*
X105747005Y-47469181D01*
X105685682Y-47502666D01*
X105659324Y-47505500D01*
X103833678Y-47505500D01*
X103766639Y-47485815D01*
X103734452Y-47455865D01*
X103708769Y-47421596D01*
X103703472Y-47414528D01*
X103595912Y-47333917D01*
X103587635Y-47330814D01*
X103477332Y-47289463D01*
X103477328Y-47289462D01*
X103470051Y-47286734D01*
X103412665Y-47280500D01*
X103149579Y-47280500D01*
X102886336Y-47280501D01*
X102882995Y-47280864D01*
X102882993Y-47280864D01*
X102836682Y-47285894D01*
X102836681Y-47285894D01*
X102828949Y-47286734D01*
X102703088Y-47333917D01*
X102595528Y-47414528D01*
X102514917Y-47522088D01*
X102511814Y-47530364D01*
X102511814Y-47530365D01*
X102478109Y-47620274D01*
X102436145Y-47676138D01*
X102370640Y-47700446D01*
X102302392Y-47685480D01*
X102253069Y-47635992D01*
X102245891Y-47620274D01*
X102212186Y-47530365D01*
X102212186Y-47530364D01*
X102209083Y-47522088D01*
X102128472Y-47414528D01*
X102020912Y-47333917D01*
X102012635Y-47330814D01*
X101902332Y-47289463D01*
X101902328Y-47289462D01*
X101895051Y-47286734D01*
X101837665Y-47280500D01*
X101574579Y-47280500D01*
X101311336Y-47280501D01*
X101307995Y-47280864D01*
X101307993Y-47280864D01*
X101261682Y-47285894D01*
X101261681Y-47285894D01*
X101253949Y-47286734D01*
X101128088Y-47333917D01*
X101020528Y-47414528D01*
X101015231Y-47421596D01*
X100989548Y-47455865D01*
X100933592Y-47497706D01*
X100890322Y-47505500D01*
X100786616Y-47505500D01*
X100739163Y-47496061D01*
X100737460Y-47495356D01*
X100722488Y-47489154D01*
X100697126Y-47485815D01*
X100592059Y-47471983D01*
X100584000Y-47470922D01*
X100575941Y-47471983D01*
X100470875Y-47485815D01*
X100445512Y-47489154D01*
X100438005Y-47492263D01*
X100438003Y-47492264D01*
X100383078Y-47515015D01*
X100316461Y-47542609D01*
X100205643Y-47627643D01*
X100200699Y-47634086D01*
X100190062Y-47647949D01*
X100120609Y-47738461D01*
X100067154Y-47867512D01*
X100048922Y-48006000D01*
X100067154Y-48144488D01*
X100070263Y-48151995D01*
X100070264Y-48151997D01*
X100093881Y-48209013D01*
X100120609Y-48273539D01*
X100125556Y-48279986D01*
X100199237Y-48376008D01*
X100205643Y-48384357D01*
X100316461Y-48469391D01*
X100366003Y-48489912D01*
X100438003Y-48519736D01*
X100438005Y-48519737D01*
X100445512Y-48522846D01*
X100453571Y-48523907D01*
X100514756Y-48531962D01*
X100584000Y-48541078D01*
X100592059Y-48540017D01*
X100714429Y-48523907D01*
X100722488Y-48522846D01*
X100739162Y-48515939D01*
X100786616Y-48506500D01*
X100890322Y-48506500D01*
X100957361Y-48526185D01*
X100989548Y-48556135D01*
X101020528Y-48597472D01*
X101128088Y-48678083D01*
X101136364Y-48681186D01*
X101136365Y-48681186D01*
X101246668Y-48722537D01*
X101246672Y-48722538D01*
X101253949Y-48725266D01*
X101311335Y-48731500D01*
X101574421Y-48731500D01*
X101837664Y-48731499D01*
X101841005Y-48731136D01*
X101841007Y-48731136D01*
X101887318Y-48726106D01*
X101887319Y-48726106D01*
X101895051Y-48725266D01*
X102020912Y-48678083D01*
X102128472Y-48597472D01*
X102209083Y-48489912D01*
X102218631Y-48464444D01*
X102243422Y-48398312D01*
X102245891Y-48391726D01*
X102287855Y-48335862D01*
X102353360Y-48311554D01*
X102421608Y-48326520D01*
X102470931Y-48376008D01*
X102478108Y-48391724D01*
X102480578Y-48398312D01*
X102505370Y-48464444D01*
X102514917Y-48489912D01*
X102526880Y-48505874D01*
X102590231Y-48590405D01*
X102590234Y-48590408D01*
X102595528Y-48597472D01*
X102602593Y-48602767D01*
X102608845Y-48609019D01*
X102607130Y-48610734D01*
X102641203Y-48656297D01*
X102649000Y-48699574D01*
X102649000Y-49344426D01*
X102629315Y-49411465D01*
X102608113Y-49434249D01*
X102608845Y-49434981D01*
X102602593Y-49441233D01*
X102595528Y-49446528D01*
X102590234Y-49453592D01*
X102590231Y-49453595D01*
X102540395Y-49520093D01*
X102514917Y-49554088D01*
X102511814Y-49562364D01*
X102511814Y-49562365D01*
X102478109Y-49652274D01*
X102436145Y-49708138D01*
X102370640Y-49732446D01*
X102302392Y-49717480D01*
X102253069Y-49667992D01*
X102245891Y-49652274D01*
X102212186Y-49562365D01*
X102212186Y-49562364D01*
X102209083Y-49554088D01*
X102128472Y-49446528D01*
X102020912Y-49365917D01*
X101963585Y-49344426D01*
X101902332Y-49321463D01*
X101902328Y-49321462D01*
X101895051Y-49318734D01*
X101837665Y-49312500D01*
X101574579Y-49312500D01*
X101311336Y-49312501D01*
X101307995Y-49312864D01*
X101307993Y-49312864D01*
X101261682Y-49317894D01*
X101261681Y-49317894D01*
X101253949Y-49318734D01*
X101128088Y-49365917D01*
X101020528Y-49446528D01*
X101015232Y-49453595D01*
X101015231Y-49453596D01*
X100989548Y-49487865D01*
X100933592Y-49529706D01*
X100890322Y-49537500D01*
X100786616Y-49537500D01*
X100739163Y-49528061D01*
X100737460Y-49527356D01*
X100722488Y-49521154D01*
X100584000Y-49502922D01*
X100445512Y-49521154D01*
X100438005Y-49524263D01*
X100438003Y-49524264D01*
X100383078Y-49547015D01*
X100316461Y-49574609D01*
X100205643Y-49659643D01*
X100200699Y-49666086D01*
X100195651Y-49672665D01*
X100120609Y-49770461D01*
X100067154Y-49899512D01*
X100048922Y-50038000D01*
X100067154Y-50176488D01*
X100120609Y-50305539D01*
X100125556Y-50311986D01*
X100199237Y-50408008D01*
X100205643Y-50416357D01*
X100316461Y-50501391D01*
X100366003Y-50521912D01*
X100438003Y-50551736D01*
X100438005Y-50551737D01*
X100445512Y-50554846D01*
X100453571Y-50555907D01*
X100514756Y-50563962D01*
X100584000Y-50573078D01*
X100592059Y-50572017D01*
X100714429Y-50555907D01*
X100722488Y-50554846D01*
X100739162Y-50547939D01*
X100786616Y-50538500D01*
X100890322Y-50538500D01*
X100957361Y-50558185D01*
X100989548Y-50588135D01*
X101020528Y-50629472D01*
X101128088Y-50710083D01*
X101136364Y-50713186D01*
X101136365Y-50713186D01*
X101246668Y-50754537D01*
X101246672Y-50754538D01*
X101253949Y-50757266D01*
X101311335Y-50763500D01*
X101574421Y-50763500D01*
X101837664Y-50763499D01*
X101841005Y-50763136D01*
X101841007Y-50763136D01*
X101887318Y-50758106D01*
X101887319Y-50758106D01*
X101895051Y-50757266D01*
X102020912Y-50710083D01*
X102128472Y-50629472D01*
X102209083Y-50521912D01*
X102218631Y-50496444D01*
X102245891Y-50423726D01*
X102287855Y-50367862D01*
X102353360Y-50343554D01*
X102421608Y-50358520D01*
X102470931Y-50408008D01*
X102478109Y-50423726D01*
X102505370Y-50496444D01*
X102514917Y-50521912D01*
X102595528Y-50629472D01*
X102703088Y-50710083D01*
X102711364Y-50713186D01*
X102711365Y-50713186D01*
X102821668Y-50754537D01*
X102821672Y-50754538D01*
X102828949Y-50757266D01*
X102886335Y-50763500D01*
X103149421Y-50763500D01*
X103412664Y-50763499D01*
X103416005Y-50763136D01*
X103416007Y-50763136D01*
X103462318Y-50758106D01*
X103462319Y-50758106D01*
X103470051Y-50757266D01*
X103595912Y-50710083D01*
X103703472Y-50629472D01*
X103784083Y-50521912D01*
X103791776Y-50501391D01*
X103828537Y-50403332D01*
X103828538Y-50403328D01*
X103831266Y-50396051D01*
X103837500Y-50338665D01*
X103837499Y-49737336D01*
X103831266Y-49679949D01*
X103794928Y-49583018D01*
X103787186Y-49562365D01*
X103787186Y-49562364D01*
X103784083Y-49554088D01*
X103758605Y-49520093D01*
X103708769Y-49453595D01*
X103708766Y-49453592D01*
X103703472Y-49446528D01*
X103696407Y-49441233D01*
X103690155Y-49434981D01*
X103691870Y-49433266D01*
X103657797Y-49387703D01*
X103650000Y-49344426D01*
X103650000Y-48699574D01*
X103669685Y-48632535D01*
X103690887Y-48609751D01*
X103690155Y-48609019D01*
X103696407Y-48602767D01*
X103703472Y-48597472D01*
X103708766Y-48590408D01*
X103708769Y-48590405D01*
X103734452Y-48556135D01*
X103790408Y-48514294D01*
X103833678Y-48506500D01*
X105848039Y-48506500D01*
X105859985Y-48507835D01*
X105860023Y-48507361D01*
X105868832Y-48508070D01*
X105877447Y-48510019D01*
X105886264Y-48509472D01*
X105886265Y-48509472D01*
X105930328Y-48506738D01*
X105938007Y-48506500D01*
X105953940Y-48506500D01*
X105958308Y-48505874D01*
X105958314Y-48505874D01*
X105964130Y-48505041D01*
X105974029Y-48504027D01*
X106006452Y-48502015D01*
X106011722Y-48501688D01*
X106020538Y-48501141D01*
X106028849Y-48498140D01*
X106031681Y-48497554D01*
X106048384Y-48493390D01*
X106051168Y-48492576D01*
X106059918Y-48491323D01*
X106102348Y-48472031D01*
X106111554Y-48468284D01*
X106147075Y-48455461D01*
X106147077Y-48455460D01*
X106155387Y-48452460D01*
X106162525Y-48447245D01*
X106165085Y-48445884D01*
X106179955Y-48437195D01*
X106182385Y-48435641D01*
X106190428Y-48431984D01*
X106225743Y-48401554D01*
X106233531Y-48395371D01*
X106244336Y-48387478D01*
X106255136Y-48376678D01*
X106261875Y-48370421D01*
X106292345Y-48344167D01*
X106292348Y-48344164D01*
X106299037Y-48338400D01*
X106303843Y-48330985D01*
X106309185Y-48324861D01*
X106318651Y-48313163D01*
X106850995Y-47780819D01*
X106912318Y-47747334D01*
X106938676Y-47744500D01*
X111376000Y-47744500D01*
X111443039Y-47764185D01*
X111488794Y-47816989D01*
X111500000Y-47868500D01*
X111500000Y-51816824D01*
X111480315Y-51883863D01*
X111427511Y-51929618D01*
X111358353Y-51939562D01*
X111294797Y-51910537D01*
X111288319Y-51904505D01*
X111028819Y-51645005D01*
X110995334Y-51583682D01*
X110992500Y-51557324D01*
X110992500Y-51379277D01*
X111006015Y-51322982D01*
X111014700Y-51305938D01*
X111038017Y-51260175D01*
X111047294Y-51201602D01*
X111051737Y-51173555D01*
X111051737Y-51173550D01*
X111052500Y-51168735D01*
X111052499Y-50827266D01*
X111051736Y-50822445D01*
X111041251Y-50756245D01*
X111038017Y-50735825D01*
X110981859Y-50625609D01*
X110894391Y-50538141D01*
X110784175Y-50481983D01*
X110752074Y-50476899D01*
X110697555Y-50468263D01*
X110697550Y-50468263D01*
X110692735Y-50467500D01*
X110687857Y-50467500D01*
X110491836Y-50467501D01*
X110291266Y-50467501D01*
X110286462Y-50468262D01*
X110286460Y-50468262D01*
X110240901Y-50475478D01*
X110199825Y-50481983D01*
X110089609Y-50538141D01*
X110002141Y-50625609D01*
X109945983Y-50735825D01*
X109942129Y-50760158D01*
X109932728Y-50819515D01*
X109931500Y-50827265D01*
X109931501Y-51168734D01*
X109932262Y-51173541D01*
X109932645Y-51178406D01*
X109931202Y-51178520D01*
X109923085Y-51241382D01*
X109878095Y-51294840D01*
X109809561Y-51315500D01*
X109639812Y-51315500D01*
X109580075Y-51300162D01*
X109571777Y-51295600D01*
X109452092Y-51229803D01*
X109352996Y-51204359D01*
X109306576Y-51192440D01*
X109306573Y-51192440D01*
X109299019Y-51190500D01*
X107011771Y-51190500D01*
X107000718Y-51189979D01*
X106993332Y-51188328D01*
X106985534Y-51188573D01*
X106926144Y-51190439D01*
X106922250Y-51190500D01*
X106894650Y-51190500D01*
X106890681Y-51191001D01*
X106879034Y-51191919D01*
X106849457Y-51192848D01*
X106843167Y-51193046D01*
X106843166Y-51193046D01*
X106835372Y-51193291D01*
X106827884Y-51195467D01*
X106827881Y-51195467D01*
X106816134Y-51198880D01*
X106797084Y-51202825D01*
X106795035Y-51203084D01*
X106777208Y-51205336D01*
X106769956Y-51208207D01*
X106769953Y-51208208D01*
X106736593Y-51221416D01*
X106725542Y-51225200D01*
X106683610Y-51237383D01*
X106676900Y-51241351D01*
X106676898Y-51241352D01*
X106666364Y-51247581D01*
X106648900Y-51256136D01*
X106638701Y-51260175D01*
X106630268Y-51263514D01*
X106594922Y-51289194D01*
X106585174Y-51295596D01*
X106547579Y-51317830D01*
X106533415Y-51331994D01*
X106518619Y-51344631D01*
X106508726Y-51351818D01*
X106508720Y-51351824D01*
X106502413Y-51356406D01*
X106497441Y-51362416D01*
X106497440Y-51362417D01*
X106474578Y-51390053D01*
X106466715Y-51398694D01*
X100262181Y-57603228D01*
X100200858Y-57636713D01*
X100131166Y-57631729D01*
X100075233Y-57589857D01*
X100050816Y-57524393D01*
X100050500Y-57515547D01*
X100050500Y-54825326D01*
X100035966Y-54752260D01*
X99995745Y-54692064D01*
X99987385Y-54679552D01*
X99980601Y-54669399D01*
X99963724Y-54658122D01*
X99915863Y-54626143D01*
X99897740Y-54614034D01*
X99863687Y-54607260D01*
X99830653Y-54600689D01*
X99830650Y-54600689D01*
X99824674Y-54599500D01*
X96775326Y-54599500D01*
X96769350Y-54600689D01*
X96769347Y-54600689D01*
X96736313Y-54607260D01*
X96702260Y-54614034D01*
X96684137Y-54626143D01*
X96636277Y-54658122D01*
X96619399Y-54669399D01*
X96612615Y-54679552D01*
X96604255Y-54692064D01*
X96564034Y-54752260D01*
X96549500Y-54825326D01*
X96549500Y-57874674D01*
X96564034Y-57947740D01*
X96619399Y-58030601D01*
X96629552Y-58037385D01*
X96661558Y-58058770D01*
X96702260Y-58085966D01*
X96734465Y-58092372D01*
X96769347Y-58099311D01*
X96769350Y-58099311D01*
X96775326Y-58100500D01*
X99465547Y-58100500D01*
X99532586Y-58120185D01*
X99578341Y-58172989D01*
X99588285Y-58242147D01*
X99559260Y-58305703D01*
X99553228Y-58312181D01*
X94652228Y-63213181D01*
X94590905Y-63246666D01*
X94564547Y-63249500D01*
X93178650Y-63249500D01*
X93174790Y-63249988D01*
X93174784Y-63249988D01*
X93068946Y-63263358D01*
X93068942Y-63263359D01*
X93061208Y-63264336D01*
X93053958Y-63267206D01*
X93053956Y-63267207D01*
X92956043Y-63305974D01*
X92914268Y-63322514D01*
X92875309Y-63350819D01*
X92809505Y-63374298D01*
X92802426Y-63374500D01*
X92400576Y-63374500D01*
X92338575Y-63357886D01*
X92334287Y-63355410D01*
X92327841Y-63350464D01*
X92320338Y-63347356D01*
X92320336Y-63347355D01*
X92189271Y-63293066D01*
X92189269Y-63293065D01*
X92181762Y-63289956D01*
X92025000Y-63269318D01*
X91868238Y-63289956D01*
X91860731Y-63293065D01*
X91860729Y-63293066D01*
X91729664Y-63347355D01*
X91729662Y-63347356D01*
X91722159Y-63350464D01*
X91715713Y-63355410D01*
X91711425Y-63357886D01*
X91649424Y-63374500D01*
X91050576Y-63374500D01*
X90988575Y-63357886D01*
X90984287Y-63355410D01*
X90977841Y-63350464D01*
X90970338Y-63347356D01*
X90970336Y-63347355D01*
X90839271Y-63293066D01*
X90839269Y-63293065D01*
X90831762Y-63289956D01*
X90675000Y-63269318D01*
X90518238Y-63289956D01*
X90510731Y-63293065D01*
X90510729Y-63293066D01*
X90398884Y-63339394D01*
X90372159Y-63350464D01*
X90246718Y-63446718D01*
X90150464Y-63572159D01*
X90147354Y-63579667D01*
X90093621Y-63709391D01*
X90089956Y-63718238D01*
X90069318Y-63875000D01*
X90089956Y-64031762D01*
X90093065Y-64039269D01*
X90093066Y-64039271D01*
X90147354Y-64170333D01*
X90150464Y-64177841D01*
X90155409Y-64184285D01*
X90155411Y-64184289D01*
X90186277Y-64224514D01*
X90211471Y-64289684D01*
X90197432Y-64358128D01*
X90186277Y-64375486D01*
X90155411Y-64415711D01*
X90155409Y-64415715D01*
X90150464Y-64422159D01*
X90147354Y-64429667D01*
X90105764Y-64530075D01*
X90089956Y-64568238D01*
X90069318Y-64725000D01*
X90089956Y-64881762D01*
X90093065Y-64889269D01*
X90093066Y-64889271D01*
X90099458Y-64904703D01*
X90150464Y-65027841D01*
X90155409Y-65034285D01*
X90155411Y-65034289D01*
X90186277Y-65074514D01*
X90211471Y-65139684D01*
X90197432Y-65208128D01*
X90186277Y-65225486D01*
X90155411Y-65265711D01*
X90155409Y-65265715D01*
X90150464Y-65272159D01*
X90147354Y-65279667D01*
X90110897Y-65367683D01*
X90089956Y-65418238D01*
X90069318Y-65575000D01*
X90089956Y-65731762D01*
X90093065Y-65739269D01*
X90093066Y-65739271D01*
X90136500Y-65844130D01*
X90150464Y-65877841D01*
X90155409Y-65884285D01*
X90155411Y-65884289D01*
X90186277Y-65924514D01*
X90211471Y-65989684D01*
X90197432Y-66058128D01*
X90186277Y-66075486D01*
X90155411Y-66115711D01*
X90155409Y-66115715D01*
X90150464Y-66122159D01*
X90147354Y-66129667D01*
X90128948Y-66174104D01*
X90089956Y-66268238D01*
X90069318Y-66425000D01*
X90089956Y-66581762D01*
X90093065Y-66589269D01*
X90093066Y-66589271D01*
X90150464Y-66727841D01*
X90147210Y-66729189D01*
X90159883Y-66781370D01*
X90137047Y-66847403D01*
X90082136Y-66890607D01*
X90036022Y-66899500D01*
X89750284Y-66899500D01*
X89726349Y-66896953D01*
X89724948Y-66896887D01*
X89714934Y-66894731D01*
X89704761Y-66895935D01*
X89681898Y-66898641D01*
X89676016Y-66898988D01*
X89676023Y-66899078D01*
X89670918Y-66899500D01*
X89665807Y-66899500D01*
X89646947Y-66902639D01*
X89641168Y-66903461D01*
X89600968Y-66908219D01*
X89600966Y-66908220D01*
X89590790Y-66909424D01*
X89582623Y-66913346D01*
X89573687Y-66914833D01*
X89537661Y-66934272D01*
X89529043Y-66938922D01*
X89523840Y-66941574D01*
X89478100Y-66963537D01*
X89473869Y-66967094D01*
X89471983Y-66968980D01*
X89470053Y-66970751D01*
X89470000Y-66970779D01*
X89469883Y-66970652D01*
X89469326Y-66971143D01*
X89463671Y-66974194D01*
X89456711Y-66981723D01*
X89456710Y-66981724D01*
X89427447Y-67013381D01*
X89424072Y-67016891D01*
X88926161Y-67514802D01*
X88907432Y-67529929D01*
X88906398Y-67530870D01*
X88897790Y-67536428D01*
X88891448Y-67544473D01*
X88877193Y-67562555D01*
X88873280Y-67566958D01*
X88873350Y-67567017D01*
X88870043Y-67570920D01*
X88866425Y-67574538D01*
X88863451Y-67578700D01*
X88855321Y-67590077D01*
X88851830Y-67594728D01*
X88820397Y-67634600D01*
X88817395Y-67643149D01*
X88812128Y-67650519D01*
X88798506Y-67696070D01*
X88797594Y-67699118D01*
X88795788Y-67704676D01*
X88788656Y-67724987D01*
X88778977Y-67752548D01*
X88778500Y-67758055D01*
X88778500Y-67760739D01*
X88778387Y-67763341D01*
X88778365Y-67763415D01*
X88778196Y-67763408D01*
X88778150Y-67764133D01*
X88776310Y-67770287D01*
X88776712Y-67780526D01*
X88776712Y-67780529D01*
X88778404Y-67823581D01*
X88778500Y-67828449D01*
X88778500Y-71711826D01*
X88758815Y-71778865D01*
X88752876Y-71787312D01*
X88695558Y-71862010D01*
X88695555Y-71862016D01*
X88690609Y-71868461D01*
X88668530Y-71921765D01*
X88641316Y-71987465D01*
X88637154Y-71997512D01*
X88618922Y-72136000D01*
X88637154Y-72274488D01*
X88690609Y-72403539D01*
X88775643Y-72514357D01*
X88782086Y-72519301D01*
X88860955Y-72579819D01*
X88886461Y-72599391D01*
X88950987Y-72626119D01*
X89008003Y-72649736D01*
X89008005Y-72649737D01*
X89015512Y-72652846D01*
X89154000Y-72671078D01*
X89162059Y-72670017D01*
X89284429Y-72653907D01*
X89292488Y-72652846D01*
X89299995Y-72649737D01*
X89299997Y-72649736D01*
X89357013Y-72626119D01*
X89421539Y-72599391D01*
X89447045Y-72579819D01*
X89525914Y-72519301D01*
X89532357Y-72514357D01*
X89617391Y-72403539D01*
X89670846Y-72274488D01*
X89689078Y-72136000D01*
X89670846Y-71997512D01*
X89666685Y-71987465D01*
X89639470Y-71921765D01*
X89617391Y-71868461D01*
X89612445Y-71862016D01*
X89612442Y-71862010D01*
X89555124Y-71787312D01*
X89529930Y-71722143D01*
X89529500Y-71711826D01*
X89529500Y-68024899D01*
X89549185Y-67957860D01*
X89565819Y-67937218D01*
X89816218Y-67686819D01*
X89877541Y-67653334D01*
X89903899Y-67650500D01*
X90036022Y-67650500D01*
X90103061Y-67670185D01*
X90148816Y-67722989D01*
X90158760Y-67792147D01*
X90148631Y-67821400D01*
X90150464Y-67822159D01*
X90094255Y-67957860D01*
X90089956Y-67968238D01*
X90069318Y-68125000D01*
X90089956Y-68281762D01*
X90093065Y-68289269D01*
X90093066Y-68289271D01*
X90116558Y-68345986D01*
X90150464Y-68427841D01*
X90246718Y-68553282D01*
X90372159Y-68649536D01*
X90379665Y-68652645D01*
X90379667Y-68652646D01*
X90510729Y-68706934D01*
X90510731Y-68706935D01*
X90518238Y-68710044D01*
X90675000Y-68730682D01*
X90683059Y-68729621D01*
X90688688Y-68728880D01*
X90831762Y-68710044D01*
X90839269Y-68706935D01*
X90839271Y-68706934D01*
X90970336Y-68652645D01*
X90970338Y-68652644D01*
X90977841Y-68649536D01*
X90984288Y-68644589D01*
X90988575Y-68642114D01*
X91050576Y-68625500D01*
X91649424Y-68625500D01*
X91711425Y-68642114D01*
X91715712Y-68644589D01*
X91722159Y-68649536D01*
X91729662Y-68652644D01*
X91729664Y-68652645D01*
X91860729Y-68706934D01*
X91860731Y-68706935D01*
X91868238Y-68710044D01*
X92025000Y-68730682D01*
X92033059Y-68729621D01*
X92038688Y-68728880D01*
X92181762Y-68710044D01*
X92189269Y-68706935D01*
X92189271Y-68706934D01*
X92320333Y-68652646D01*
X92320335Y-68652645D01*
X92327841Y-68649536D01*
X92453282Y-68553282D01*
X92549536Y-68427841D01*
X92583442Y-68345986D01*
X92606934Y-68289271D01*
X92606935Y-68289269D01*
X92610044Y-68281762D01*
X92630682Y-68125000D01*
X92610044Y-67968238D01*
X92605746Y-67957860D01*
X92552646Y-67829667D01*
X92549536Y-67822159D01*
X92544591Y-67815715D01*
X92544589Y-67815711D01*
X92513723Y-67775486D01*
X92488529Y-67710316D01*
X92502568Y-67641872D01*
X92513723Y-67624514D01*
X92544589Y-67584289D01*
X92544591Y-67584285D01*
X92549536Y-67577841D01*
X92553490Y-67568295D01*
X92606934Y-67439271D01*
X92606935Y-67439269D01*
X92610044Y-67431762D01*
X92630682Y-67275000D01*
X92610044Y-67118238D01*
X92566120Y-67012195D01*
X92549536Y-66972159D01*
X92552790Y-66970811D01*
X92540117Y-66918630D01*
X92562953Y-66852597D01*
X92617864Y-66809393D01*
X92663978Y-66800500D01*
X96521716Y-66800500D01*
X96545651Y-66803047D01*
X96547052Y-66803113D01*
X96557066Y-66805269D01*
X96567239Y-66804065D01*
X96590102Y-66801359D01*
X96595984Y-66801012D01*
X96595977Y-66800922D01*
X96601082Y-66800500D01*
X96606193Y-66800500D01*
X96625053Y-66797361D01*
X96630832Y-66796539D01*
X96671032Y-66791781D01*
X96671034Y-66791780D01*
X96681210Y-66790576D01*
X96689377Y-66786654D01*
X96698313Y-66785167D01*
X96742958Y-66761077D01*
X96748163Y-66758425D01*
X96786867Y-66739840D01*
X96786866Y-66739840D01*
X96793900Y-66736463D01*
X96798131Y-66732906D01*
X96800017Y-66731020D01*
X96801947Y-66729249D01*
X96802000Y-66729221D01*
X96802117Y-66729348D01*
X96802674Y-66728857D01*
X96808329Y-66725806D01*
X96844553Y-66686619D01*
X96847928Y-66683109D01*
X97420811Y-66110226D01*
X105347819Y-66110226D01*
X105383907Y-66375395D01*
X105385194Y-66379811D01*
X105385195Y-66379815D01*
X105416918Y-66488653D01*
X105458792Y-66632317D01*
X105570831Y-66875348D01*
X105573350Y-66879190D01*
X105573351Y-66879192D01*
X105715036Y-67095297D01*
X105715039Y-67095302D01*
X105717562Y-67099149D01*
X105748520Y-67133834D01*
X105892697Y-67295372D01*
X105892702Y-67295377D01*
X105895760Y-67298803D01*
X105899295Y-67301743D01*
X105899297Y-67301745D01*
X105919859Y-67318846D01*
X106101512Y-67469925D01*
X106330298Y-67608756D01*
X106334538Y-67610534D01*
X106334544Y-67610537D01*
X106476789Y-67670185D01*
X106577091Y-67712245D01*
X106836470Y-67778119D01*
X106953462Y-67789899D01*
X107055640Y-67800188D01*
X107055645Y-67800188D01*
X107058741Y-67800500D01*
X107217944Y-67800500D01*
X107220244Y-67800329D01*
X107220246Y-67800329D01*
X107251398Y-67798014D01*
X107416877Y-67785717D01*
X107421370Y-67784700D01*
X107421372Y-67784700D01*
X107673402Y-67727671D01*
X107673405Y-67727670D01*
X107677891Y-67726655D01*
X107848420Y-67660340D01*
X107923023Y-67631329D01*
X107923026Y-67631328D01*
X107927309Y-67629662D01*
X107931294Y-67627384D01*
X107931299Y-67627382D01*
X108155661Y-67499148D01*
X108155662Y-67499147D01*
X108159650Y-67496868D01*
X108369811Y-67331190D01*
X108397511Y-67301745D01*
X108550022Y-67139621D01*
X108550024Y-67139619D01*
X108553175Y-67136269D01*
X108565832Y-67118025D01*
X108639248Y-67012195D01*
X108705714Y-66916385D01*
X108782989Y-66759687D01*
X108822040Y-66680500D01*
X108822041Y-66680498D01*
X108824076Y-66676371D01*
X108825613Y-66671571D01*
X108904259Y-66425879D01*
X108905662Y-66421497D01*
X108948678Y-66157364D01*
X108951051Y-65976082D01*
X108952121Y-65894383D01*
X108952121Y-65894378D01*
X108952181Y-65889774D01*
X108916093Y-65624605D01*
X108903979Y-65583041D01*
X108842496Y-65372102D01*
X108841208Y-65367683D01*
X108729169Y-65124652D01*
X108713334Y-65100500D01*
X108584964Y-64904703D01*
X108584961Y-64904698D01*
X108582438Y-64900851D01*
X108432678Y-64733059D01*
X108407303Y-64704628D01*
X108407298Y-64704623D01*
X108404240Y-64701197D01*
X108355173Y-64660388D01*
X108336290Y-64644683D01*
X108198488Y-64530075D01*
X107969702Y-64391244D01*
X107965462Y-64389466D01*
X107965456Y-64389463D01*
X107743613Y-64296437D01*
X107722909Y-64287755D01*
X107463530Y-64221881D01*
X107324215Y-64207853D01*
X107244360Y-64199812D01*
X107244355Y-64199812D01*
X107241259Y-64199500D01*
X107082056Y-64199500D01*
X107079756Y-64199671D01*
X107079754Y-64199671D01*
X107077857Y-64199812D01*
X106883123Y-64214283D01*
X106878630Y-64215300D01*
X106878628Y-64215300D01*
X106626598Y-64272329D01*
X106626595Y-64272330D01*
X106622109Y-64273345D01*
X106476896Y-64329815D01*
X106376977Y-64368671D01*
X106376974Y-64368672D01*
X106372691Y-64370338D01*
X106368706Y-64372616D01*
X106368701Y-64372618D01*
X106255182Y-64437500D01*
X106140350Y-64503132D01*
X105930189Y-64668810D01*
X105927044Y-64672153D01*
X105927041Y-64672156D01*
X105800000Y-64807204D01*
X105746825Y-64863731D01*
X105744203Y-64867510D01*
X105744201Y-64867513D01*
X105718402Y-64904703D01*
X105594286Y-65083615D01*
X105556461Y-65160316D01*
X105480086Y-65315190D01*
X105475924Y-65323629D01*
X105474522Y-65328010D01*
X105474520Y-65328014D01*
X105457166Y-65382229D01*
X105394338Y-65578503D01*
X105351322Y-65842636D01*
X105349943Y-65947961D01*
X105348188Y-66082060D01*
X105347819Y-66110226D01*
X97420811Y-66110226D01*
X106057219Y-57473819D01*
X106118542Y-57440334D01*
X106144900Y-57437500D01*
X111258511Y-57437500D01*
X111325550Y-57457185D01*
X111361612Y-57492608D01*
X111389032Y-57533643D01*
X111397580Y-57546436D01*
X111407740Y-57553224D01*
X111444886Y-57578042D01*
X111489694Y-57631652D01*
X111500000Y-57681147D01*
X111500000Y-58000000D01*
X111582500Y-58000000D01*
X111649539Y-58019685D01*
X111695294Y-58072489D01*
X111706500Y-58124000D01*
X111706500Y-60720716D01*
X111703953Y-60744651D01*
X111703887Y-60746052D01*
X111701731Y-60756066D01*
X111702935Y-60766239D01*
X111705641Y-60789102D01*
X111705988Y-60794984D01*
X111706078Y-60794977D01*
X111706500Y-60800082D01*
X111706500Y-60805193D01*
X111707339Y-60810233D01*
X111709639Y-60824053D01*
X111710461Y-60829832D01*
X111716424Y-60880210D01*
X111720346Y-60888377D01*
X111721833Y-60897313D01*
X111742145Y-60934957D01*
X111745922Y-60941957D01*
X111748574Y-60947160D01*
X111770537Y-60992900D01*
X111774094Y-60997131D01*
X111775980Y-60999017D01*
X111777751Y-61000947D01*
X111777779Y-61001000D01*
X111777652Y-61001117D01*
X111778143Y-61001674D01*
X111781194Y-61007329D01*
X111788723Y-61014289D01*
X111788724Y-61014290D01*
X111820381Y-61043553D01*
X111823891Y-61046928D01*
X112726802Y-61949839D01*
X112741929Y-61968568D01*
X112742870Y-61969602D01*
X112748428Y-61978210D01*
X112756473Y-61984552D01*
X112774555Y-61998807D01*
X112778958Y-62002720D01*
X112779017Y-62002650D01*
X112782920Y-62005957D01*
X112786538Y-62009575D01*
X112790700Y-62012549D01*
X112802077Y-62020679D01*
X112806728Y-62024170D01*
X112846600Y-62055603D01*
X112855149Y-62058605D01*
X112862519Y-62063872D01*
X112900705Y-62075292D01*
X112911114Y-62078405D01*
X112916672Y-62080211D01*
X112957183Y-62094438D01*
X112957193Y-62094440D01*
X112964548Y-62097023D01*
X112970055Y-62097500D01*
X112972738Y-62097500D01*
X112975340Y-62097613D01*
X112975415Y-62097635D01*
X112975408Y-62097804D01*
X112976132Y-62097850D01*
X112982286Y-62099690D01*
X112992525Y-62099288D01*
X112992528Y-62099288D01*
X113035580Y-62097596D01*
X113040448Y-62097500D01*
X113249060Y-62097500D01*
X113316099Y-62117185D01*
X113335808Y-62135922D01*
X113337216Y-62134511D01*
X113419309Y-62216461D01*
X113428044Y-62225181D01*
X113437249Y-62229680D01*
X113437251Y-62229682D01*
X113501220Y-62260950D01*
X113543344Y-62281541D01*
X113552868Y-62282930D01*
X113552870Y-62282931D01*
X113614014Y-62291851D01*
X113614019Y-62291851D01*
X113618465Y-62292500D01*
X113635451Y-62292500D01*
X113778100Y-62292499D01*
X113845139Y-62312183D01*
X113865781Y-62328818D01*
X114248805Y-62711843D01*
X114263909Y-62730545D01*
X114264868Y-62731599D01*
X114270428Y-62740210D01*
X114278478Y-62746556D01*
X114296551Y-62760804D01*
X114300962Y-62764724D01*
X114301021Y-62764654D01*
X114304921Y-62767959D01*
X114308538Y-62771576D01*
X114312691Y-62774544D01*
X114312702Y-62774553D01*
X114324100Y-62782697D01*
X114328771Y-62786204D01*
X114368600Y-62817603D01*
X114377148Y-62820605D01*
X114384519Y-62825872D01*
X114394336Y-62828808D01*
X114394338Y-62828809D01*
X114433127Y-62840409D01*
X114438685Y-62842215D01*
X114479186Y-62856438D01*
X114479188Y-62856439D01*
X114486548Y-62859023D01*
X114492055Y-62859500D01*
X114494738Y-62859500D01*
X114497337Y-62859613D01*
X114497415Y-62859636D01*
X114497408Y-62859804D01*
X114498129Y-62859849D01*
X114504287Y-62861691D01*
X114514525Y-62861289D01*
X114514527Y-62861289D01*
X114557606Y-62859596D01*
X114562474Y-62859500D01*
X114872101Y-62859500D01*
X114939140Y-62879185D01*
X114984895Y-62931989D01*
X114994839Y-63001147D01*
X114965814Y-63064703D01*
X114959782Y-63071181D01*
X114692161Y-63338802D01*
X114673432Y-63353929D01*
X114672398Y-63354870D01*
X114663790Y-63360428D01*
X114651176Y-63376429D01*
X114643193Y-63386555D01*
X114639280Y-63390958D01*
X114639350Y-63391017D01*
X114636043Y-63394920D01*
X114632425Y-63398538D01*
X114629451Y-63402700D01*
X114621321Y-63414077D01*
X114617830Y-63418728D01*
X114586397Y-63458600D01*
X114583395Y-63467149D01*
X114578128Y-63474519D01*
X114565233Y-63517639D01*
X114563594Y-63523118D01*
X114561788Y-63528676D01*
X114559124Y-63536264D01*
X114544977Y-63576548D01*
X114544500Y-63582055D01*
X114544500Y-63584739D01*
X114544387Y-63587341D01*
X114544365Y-63587415D01*
X114544196Y-63587408D01*
X114544150Y-63588133D01*
X114542310Y-63594287D01*
X114542712Y-63604526D01*
X114542712Y-63604529D01*
X114544404Y-63647581D01*
X114544500Y-63652449D01*
X114544500Y-64218500D01*
X114524815Y-64285539D01*
X114472011Y-64331294D01*
X114420500Y-64342500D01*
X114170291Y-64342501D01*
X114096870Y-64342501D01*
X114020066Y-64357777D01*
X114009915Y-64364560D01*
X114009912Y-64364561D01*
X113966404Y-64393633D01*
X113932972Y-64415972D01*
X113874777Y-64503066D01*
X113872395Y-64515042D01*
X113872394Y-64515044D01*
X113868819Y-64533019D01*
X113859500Y-64579869D01*
X113859500Y-64607130D01*
X113844047Y-64658825D01*
X113847377Y-64660388D01*
X113786447Y-64790163D01*
X113769500Y-64899009D01*
X113769500Y-65728039D01*
X113768165Y-65739985D01*
X113768639Y-65740023D01*
X113767930Y-65748832D01*
X113765981Y-65757447D01*
X113766528Y-65766264D01*
X113766528Y-65766265D01*
X113769262Y-65810328D01*
X113769500Y-65818007D01*
X113769500Y-65833940D01*
X113770126Y-65838308D01*
X113770126Y-65838314D01*
X113770959Y-65844130D01*
X113771973Y-65854029D01*
X113774859Y-65900538D01*
X113777860Y-65908849D01*
X113778446Y-65911681D01*
X113782610Y-65928384D01*
X113783424Y-65931168D01*
X113784677Y-65939918D01*
X113803969Y-65982348D01*
X113807716Y-65991554D01*
X113820539Y-66027076D01*
X113820541Y-66027080D01*
X113823540Y-66035387D01*
X113828752Y-66042522D01*
X113829985Y-66044840D01*
X113844500Y-66103056D01*
X113844500Y-66482674D01*
X113845689Y-66488650D01*
X113845689Y-66488653D01*
X113859034Y-66555740D01*
X113856176Y-66556308D01*
X113861252Y-66607830D01*
X113861286Y-66607833D01*
X113861269Y-66608006D01*
X113861465Y-66609992D01*
X113859500Y-66619869D01*
X113859500Y-66647130D01*
X113844047Y-66698825D01*
X113847377Y-66700388D01*
X113786447Y-66830163D01*
X113769500Y-66939009D01*
X113769500Y-67898084D01*
X113749815Y-67965123D01*
X113710844Y-68003470D01*
X113656401Y-68037226D01*
X113508720Y-68176881D01*
X113505114Y-68182031D01*
X113400084Y-68332030D01*
X113392137Y-68343379D01*
X113389643Y-68349143D01*
X113389641Y-68349146D01*
X113343704Y-68455301D01*
X113311414Y-68529919D01*
X113269849Y-68728880D01*
X113269500Y-68735539D01*
X113269500Y-69160217D01*
X113249815Y-69227256D01*
X113233181Y-69247898D01*
X112397899Y-70083181D01*
X112336576Y-70116666D01*
X112310218Y-70119500D01*
X102846128Y-70119500D01*
X102842666Y-70119452D01*
X102762626Y-70117216D01*
X102762622Y-70117216D01*
X102756347Y-70117041D01*
X102750161Y-70118132D01*
X102750158Y-70118132D01*
X102696876Y-70127527D01*
X102687875Y-70128776D01*
X102653532Y-70132265D01*
X102627784Y-70134880D01*
X102600187Y-70143528D01*
X102584644Y-70147317D01*
X102556178Y-70152336D01*
X102500020Y-70174570D01*
X102491474Y-70177597D01*
X102433828Y-70195662D01*
X102428337Y-70198706D01*
X102428334Y-70198707D01*
X102408539Y-70209679D01*
X102394076Y-70216516D01*
X102373041Y-70224845D01*
X102373038Y-70224846D01*
X102367195Y-70227160D01*
X102333178Y-70249420D01*
X102316661Y-70260228D01*
X102308881Y-70264921D01*
X102261550Y-70291157D01*
X102261546Y-70291160D01*
X102256056Y-70294203D01*
X102251289Y-70298289D01*
X102234103Y-70313019D01*
X102221304Y-70322628D01*
X102201113Y-70335840D01*
X102201103Y-70335847D01*
X102197117Y-70338456D01*
X102192162Y-70342918D01*
X102153207Y-70381873D01*
X102146222Y-70388342D01*
X102101729Y-70426477D01*
X102097877Y-70431443D01*
X102082742Y-70450955D01*
X102072444Y-70462636D01*
X98653402Y-73881678D01*
X98592079Y-73915163D01*
X98545788Y-73916384D01*
X98457548Y-73902013D01*
X98457539Y-73902012D01*
X98452994Y-73901272D01*
X98325371Y-73899601D01*
X98197444Y-73897926D01*
X98197439Y-73897926D01*
X98192835Y-73897866D01*
X97981740Y-73926595D01*
X97939585Y-73932332D01*
X97939584Y-73932332D01*
X97935030Y-73932952D01*
X97930620Y-73934237D01*
X97930617Y-73934238D01*
X97810137Y-73969355D01*
X97685243Y-74005758D01*
X97681075Y-74007680D01*
X97681071Y-74007681D01*
X97605307Y-74042609D01*
X97448961Y-74114686D01*
X97231375Y-74257341D01*
X97227945Y-74260402D01*
X97227939Y-74260407D01*
X97040696Y-74427528D01*
X97040691Y-74427533D01*
X97037265Y-74430591D01*
X96870895Y-74630629D01*
X96735920Y-74853061D01*
X96734142Y-74857301D01*
X96734139Y-74857307D01*
X96711856Y-74910447D01*
X96635305Y-75093001D01*
X96571261Y-75345177D01*
X96545194Y-75604049D01*
X96545415Y-75608651D01*
X96545415Y-75608653D01*
X96550587Y-75716319D01*
X96557677Y-75863930D01*
X96608435Y-76119112D01*
X96609985Y-76123430D01*
X96609987Y-76123436D01*
X96688025Y-76340788D01*
X96696355Y-76363989D01*
X96754515Y-76472229D01*
X96790105Y-76538465D01*
X96819504Y-76593180D01*
X96975177Y-76801651D01*
X97030676Y-76856668D01*
X97156690Y-76981588D01*
X97156695Y-76981592D01*
X97159954Y-76984823D01*
X97369775Y-77138670D01*
X97481750Y-77197583D01*
X97595953Y-77257669D01*
X97595960Y-77257672D01*
X97600033Y-77259815D01*
X97845667Y-77345594D01*
X97850186Y-77346452D01*
X97850190Y-77346453D01*
X98096767Y-77393267D01*
X98096770Y-77393267D01*
X98101282Y-77394124D01*
X98105872Y-77394304D01*
X98105878Y-77394305D01*
X98356656Y-77404158D01*
X98361263Y-77404339D01*
X98484102Y-77390886D01*
X98615327Y-77376515D01*
X98615332Y-77376514D01*
X98619898Y-77376014D01*
X98871505Y-77309771D01*
X98875732Y-77307955D01*
X99106331Y-77208882D01*
X99106335Y-77208880D01*
X99110557Y-77207066D01*
X99114461Y-77204650D01*
X99114467Y-77204647D01*
X99327887Y-77072579D01*
X99327894Y-77072574D01*
X99331803Y-77070155D01*
X99476369Y-76947771D01*
X99526868Y-76905021D01*
X99526869Y-76905020D01*
X99530382Y-76902046D01*
X99701931Y-76706431D01*
X99809971Y-76538465D01*
X113983500Y-76538465D01*
X113983501Y-76881534D01*
X113994654Y-76957309D01*
X113998902Y-76965961D01*
X114040808Y-77051313D01*
X114053500Y-77105963D01*
X114053500Y-77908039D01*
X114052165Y-77919985D01*
X114052639Y-77920023D01*
X114051930Y-77928832D01*
X114049981Y-77937447D01*
X114050528Y-77946264D01*
X114050528Y-77946265D01*
X114053262Y-77990328D01*
X114053500Y-77998007D01*
X114053500Y-78013940D01*
X114054126Y-78018308D01*
X114054126Y-78018314D01*
X114054959Y-78024130D01*
X114055973Y-78034029D01*
X114058859Y-78080538D01*
X114061860Y-78088849D01*
X114062446Y-78091681D01*
X114066610Y-78108384D01*
X114067424Y-78111168D01*
X114068677Y-78119918D01*
X114087969Y-78162348D01*
X114091716Y-78171554D01*
X114093327Y-78176015D01*
X114107540Y-78215387D01*
X114112755Y-78222525D01*
X114114116Y-78225085D01*
X114122805Y-78239955D01*
X114124359Y-78242385D01*
X114128016Y-78250428D01*
X114149455Y-78275309D01*
X114158444Y-78285741D01*
X114164629Y-78293531D01*
X114172522Y-78304336D01*
X114183322Y-78315136D01*
X114189579Y-78321875D01*
X114215833Y-78352345D01*
X114215836Y-78352348D01*
X114221600Y-78359037D01*
X114229015Y-78363843D01*
X114235139Y-78369185D01*
X114246837Y-78378651D01*
X116436625Y-80568439D01*
X116444128Y-80577828D01*
X116444490Y-80577520D01*
X116450215Y-80584246D01*
X116454930Y-80591720D01*
X116461553Y-80597569D01*
X116494643Y-80626793D01*
X116500241Y-80632055D01*
X116511506Y-80643320D01*
X116515038Y-80645967D01*
X116515039Y-80645968D01*
X116519736Y-80649488D01*
X116527457Y-80655773D01*
X116550310Y-80675956D01*
X116562388Y-80686623D01*
X116570384Y-80690377D01*
X116572789Y-80691957D01*
X116587561Y-80700834D01*
X116590105Y-80702227D01*
X116597176Y-80707526D01*
X116605452Y-80710628D01*
X116605451Y-80710628D01*
X116640806Y-80723882D01*
X116649977Y-80727747D01*
X116684166Y-80743799D01*
X116684170Y-80743800D01*
X116692163Y-80747553D01*
X116700891Y-80748912D01*
X116703652Y-80749756D01*
X116720321Y-80754129D01*
X116723144Y-80754750D01*
X116731419Y-80757852D01*
X116740228Y-80758507D01*
X116740230Y-80758507D01*
X116777898Y-80761306D01*
X116787779Y-80762440D01*
X116801009Y-80764500D01*
X116816284Y-80764500D01*
X116825473Y-80764841D01*
X116874391Y-80768476D01*
X116883031Y-80766632D01*
X116891153Y-80766078D01*
X116906105Y-80764500D01*
X117855500Y-80764500D01*
X117922539Y-80784185D01*
X117968294Y-80836989D01*
X117979500Y-80888500D01*
X117979500Y-81038674D01*
X117994034Y-81111740D01*
X118049399Y-81194601D01*
X118132260Y-81249966D01*
X118166313Y-81256740D01*
X118199347Y-81263311D01*
X118199350Y-81263311D01*
X118205326Y-81264500D01*
X119254674Y-81264500D01*
X119260650Y-81263311D01*
X119260653Y-81263311D01*
X119284525Y-81258562D01*
X119327740Y-81249966D01*
X119334969Y-81245136D01*
X119402017Y-81237927D01*
X119423827Y-81244332D01*
X119432260Y-81249966D01*
X119475475Y-81258562D01*
X119499347Y-81263311D01*
X119499350Y-81263311D01*
X119505326Y-81264500D01*
X120554674Y-81264500D01*
X120560650Y-81263311D01*
X120560653Y-81263311D01*
X120593687Y-81256740D01*
X120627740Y-81249966D01*
X120710601Y-81194601D01*
X120765966Y-81111740D01*
X120780500Y-81038674D01*
X120780500Y-80888500D01*
X120800185Y-80821461D01*
X120852989Y-80775706D01*
X120904500Y-80764500D01*
X122935500Y-80764500D01*
X123002539Y-80784185D01*
X123048294Y-80836989D01*
X123059500Y-80888500D01*
X123059500Y-81038674D01*
X123074034Y-81111740D01*
X123129399Y-81194601D01*
X123212260Y-81249966D01*
X123246313Y-81256740D01*
X123279347Y-81263311D01*
X123279350Y-81263311D01*
X123285326Y-81264500D01*
X124334674Y-81264500D01*
X124340650Y-81263311D01*
X124340653Y-81263311D01*
X124373687Y-81256740D01*
X124407740Y-81249966D01*
X124490601Y-81194601D01*
X124545966Y-81111740D01*
X124560500Y-81038674D01*
X124560500Y-79489326D01*
X124558367Y-79478600D01*
X124549317Y-79433108D01*
X124545966Y-79416260D01*
X124490601Y-79333399D01*
X124472950Y-79321605D01*
X124417895Y-79284819D01*
X124417894Y-79284819D01*
X124407740Y-79278034D01*
X124395760Y-79275651D01*
X124387049Y-79272043D01*
X124332645Y-79228203D01*
X124310500Y-79157481D01*
X124310500Y-78534098D01*
X124330185Y-78467059D01*
X124346743Y-78446493D01*
X124395939Y-78397211D01*
X124395940Y-78397210D01*
X124403181Y-78389956D01*
X124407680Y-78380751D01*
X124407682Y-78380749D01*
X124452282Y-78289506D01*
X124459541Y-78274656D01*
X124462100Y-78257118D01*
X124469851Y-78203986D01*
X124469851Y-78203981D01*
X124470500Y-78199535D01*
X124470499Y-77756466D01*
X124459346Y-77680691D01*
X124451793Y-77665308D01*
X124407299Y-77574684D01*
X124407298Y-77574682D01*
X124402784Y-77565489D01*
X124395537Y-77558254D01*
X124395535Y-77558252D01*
X124319208Y-77482058D01*
X124319207Y-77482057D01*
X124311956Y-77474819D01*
X124302751Y-77470320D01*
X124302749Y-77470318D01*
X124205745Y-77422902D01*
X124196656Y-77418459D01*
X124187132Y-77417070D01*
X124187130Y-77417069D01*
X124125986Y-77408149D01*
X124125981Y-77408149D01*
X124121535Y-77407500D01*
X123950722Y-77407500D01*
X123778466Y-77407501D01*
X123727576Y-77414991D01*
X123712229Y-77417250D01*
X123712228Y-77417250D01*
X123702691Y-77418654D01*
X123694039Y-77422902D01*
X123596684Y-77470701D01*
X123596682Y-77470702D01*
X123587489Y-77475216D01*
X123580254Y-77482463D01*
X123580252Y-77482465D01*
X123527784Y-77535025D01*
X123496819Y-77566044D01*
X123492320Y-77575249D01*
X123492318Y-77575251D01*
X123485908Y-77588365D01*
X123440459Y-77681344D01*
X123439070Y-77690868D01*
X123439069Y-77690870D01*
X123435681Y-77714093D01*
X123429500Y-77756465D01*
X123429045Y-77756399D01*
X123405532Y-77819235D01*
X123399288Y-77826901D01*
X123387377Y-77840388D01*
X123383623Y-77848384D01*
X123382043Y-77850789D01*
X123373160Y-77865571D01*
X123371771Y-77868108D01*
X123366474Y-77875176D01*
X123363373Y-77883449D01*
X123363372Y-77883450D01*
X123350115Y-77918813D01*
X123346258Y-77927968D01*
X123326447Y-77970163D01*
X123325087Y-77978897D01*
X123324238Y-77981675D01*
X123319870Y-77998322D01*
X123319248Y-78001152D01*
X123316148Y-78009420D01*
X123315494Y-78018224D01*
X123315493Y-78018227D01*
X123312694Y-78055899D01*
X123311561Y-78065773D01*
X123309500Y-78079009D01*
X123309500Y-78094285D01*
X123309159Y-78103474D01*
X123305524Y-78152392D01*
X123307368Y-78161032D01*
X123307922Y-78169154D01*
X123309500Y-78184106D01*
X123309500Y-79157481D01*
X123289815Y-79224520D01*
X123232951Y-79272043D01*
X123224240Y-79275651D01*
X123212260Y-79278034D01*
X123202106Y-79284819D01*
X123202105Y-79284819D01*
X123147050Y-79321605D01*
X123129399Y-79333399D01*
X123074034Y-79416260D01*
X123070683Y-79433108D01*
X123061634Y-79478600D01*
X123059500Y-79489326D01*
X123059500Y-79639500D01*
X123039815Y-79706539D01*
X122987011Y-79752294D01*
X122935500Y-79763500D01*
X120904500Y-79763500D01*
X120837461Y-79743815D01*
X120791706Y-79691011D01*
X120780500Y-79639500D01*
X120780500Y-79489326D01*
X120778367Y-79478600D01*
X120769317Y-79433108D01*
X120765966Y-79416260D01*
X120710601Y-79333399D01*
X120692950Y-79321605D01*
X120637895Y-79284819D01*
X120637894Y-79284819D01*
X120627740Y-79278034D01*
X120615760Y-79275651D01*
X120607049Y-79272043D01*
X120552645Y-79228203D01*
X120530500Y-79157481D01*
X120530500Y-78187961D01*
X120531835Y-78176015D01*
X120531361Y-78175977D01*
X120532070Y-78167168D01*
X120534019Y-78158553D01*
X120530738Y-78105672D01*
X120530500Y-78097993D01*
X120530500Y-78082060D01*
X120529387Y-78074284D01*
X120529041Y-78071870D01*
X120528026Y-78061966D01*
X120525688Y-78024278D01*
X120525141Y-78015462D01*
X120522140Y-78007151D01*
X120521554Y-78004319D01*
X120517390Y-77987616D01*
X120516576Y-77984832D01*
X120515323Y-77976082D01*
X120496031Y-77933652D01*
X120492284Y-77924446D01*
X120479461Y-77888925D01*
X120479460Y-77888923D01*
X120476460Y-77880613D01*
X120471245Y-77873475D01*
X120469884Y-77870915D01*
X120461195Y-77856045D01*
X120459641Y-77853615D01*
X120455984Y-77845572D01*
X120450220Y-77838882D01*
X120450217Y-77838878D01*
X120439783Y-77826769D01*
X120410934Y-77763133D01*
X120410499Y-77759068D01*
X120410499Y-77756466D01*
X120399346Y-77680691D01*
X120391793Y-77665308D01*
X120347299Y-77574684D01*
X120347298Y-77574682D01*
X120342784Y-77565489D01*
X120335537Y-77558254D01*
X120335535Y-77558252D01*
X120259208Y-77482058D01*
X120259207Y-77482057D01*
X120251956Y-77474819D01*
X120242751Y-77470320D01*
X120242749Y-77470318D01*
X120145745Y-77422902D01*
X120136656Y-77418459D01*
X120127132Y-77417070D01*
X120127130Y-77417069D01*
X120065986Y-77408149D01*
X120065981Y-77408149D01*
X120061535Y-77407500D01*
X119890722Y-77407500D01*
X119718466Y-77407501D01*
X119667576Y-77414991D01*
X119652229Y-77417250D01*
X119652228Y-77417250D01*
X119642691Y-77418654D01*
X119634039Y-77422902D01*
X119536684Y-77470701D01*
X119536682Y-77470702D01*
X119527489Y-77475216D01*
X119475382Y-77527414D01*
X119467784Y-77535025D01*
X119406490Y-77568563D01*
X119336794Y-77563639D01*
X119292422Y-77535178D01*
X119239212Y-77482061D01*
X119239207Y-77482058D01*
X119231956Y-77474819D01*
X119222751Y-77470320D01*
X119222749Y-77470318D01*
X119125745Y-77422902D01*
X119116656Y-77418459D01*
X119107132Y-77417070D01*
X119107130Y-77417069D01*
X119045986Y-77408149D01*
X119045981Y-77408149D01*
X119041535Y-77407500D01*
X118870722Y-77407500D01*
X118698466Y-77407501D01*
X118647576Y-77414991D01*
X118632229Y-77417250D01*
X118632228Y-77417250D01*
X118622691Y-77418654D01*
X118614039Y-77422902D01*
X118516684Y-77470701D01*
X118516682Y-77470702D01*
X118507489Y-77475216D01*
X118500254Y-77482463D01*
X118500252Y-77482465D01*
X118447784Y-77535025D01*
X118416819Y-77566044D01*
X118412320Y-77575249D01*
X118412318Y-77575251D01*
X118405908Y-77588365D01*
X118360459Y-77681344D01*
X118359070Y-77690868D01*
X118359069Y-77690870D01*
X118355681Y-77714093D01*
X118349500Y-77756465D01*
X118349045Y-77756399D01*
X118325532Y-77819235D01*
X118319288Y-77826901D01*
X118307377Y-77840388D01*
X118303623Y-77848384D01*
X118302043Y-77850789D01*
X118293160Y-77865571D01*
X118291771Y-77868108D01*
X118286474Y-77875176D01*
X118283373Y-77883449D01*
X118283372Y-77883450D01*
X118270115Y-77918813D01*
X118266258Y-77927968D01*
X118246447Y-77970163D01*
X118245087Y-77978897D01*
X118244238Y-77981675D01*
X118239870Y-77998322D01*
X118239248Y-78001152D01*
X118236148Y-78009420D01*
X118235494Y-78018224D01*
X118235493Y-78018227D01*
X118232694Y-78055899D01*
X118231561Y-78065773D01*
X118229500Y-78079009D01*
X118229500Y-78094285D01*
X118229159Y-78103474D01*
X118225524Y-78152392D01*
X118227368Y-78161032D01*
X118227922Y-78169154D01*
X118229500Y-78184106D01*
X118229500Y-79157481D01*
X118209815Y-79224520D01*
X118152951Y-79272043D01*
X118144240Y-79275651D01*
X118132260Y-79278034D01*
X118122106Y-79284819D01*
X118122105Y-79284819D01*
X118067050Y-79321605D01*
X118049399Y-79333399D01*
X117994034Y-79416260D01*
X117990683Y-79433108D01*
X117981634Y-79478600D01*
X117979500Y-79489326D01*
X117979500Y-79639500D01*
X117959815Y-79706539D01*
X117907011Y-79752294D01*
X117855500Y-79763500D01*
X117098676Y-79763500D01*
X117031637Y-79743815D01*
X117010995Y-79727181D01*
X115090819Y-77807005D01*
X115057334Y-77745682D01*
X115054500Y-77719324D01*
X115054500Y-77106125D01*
X115067097Y-77051670D01*
X115092354Y-77000000D01*
X115113541Y-76956656D01*
X115122013Y-76898585D01*
X115123851Y-76885986D01*
X115123851Y-76885981D01*
X115124500Y-76881535D01*
X115124499Y-76538466D01*
X115113346Y-76462691D01*
X115105793Y-76447308D01*
X115061299Y-76356684D01*
X115061298Y-76356682D01*
X115056784Y-76347489D01*
X114996975Y-76287784D01*
X114963437Y-76226490D01*
X114968361Y-76156794D01*
X114996822Y-76112422D01*
X115049939Y-76059212D01*
X115049942Y-76059207D01*
X115057181Y-76051956D01*
X115061680Y-76042751D01*
X115061682Y-76042749D01*
X115092950Y-75978780D01*
X115113541Y-75936656D01*
X115123491Y-75868453D01*
X115123851Y-75865986D01*
X115123851Y-75865981D01*
X115124500Y-75861535D01*
X115124499Y-75518466D01*
X115113346Y-75442691D01*
X115067192Y-75348687D01*
X115054500Y-75294037D01*
X115054500Y-74370616D01*
X115063939Y-74323163D01*
X115064644Y-74321460D01*
X115070846Y-74306488D01*
X115089078Y-74168000D01*
X115070846Y-74029512D01*
X115061804Y-74007681D01*
X115040040Y-73955141D01*
X115017391Y-73900461D01*
X114932357Y-73789643D01*
X114821539Y-73704609D01*
X114757014Y-73677882D01*
X114699997Y-73654264D01*
X114699995Y-73654263D01*
X114692488Y-73651154D01*
X114554000Y-73632922D01*
X114415512Y-73651154D01*
X114408005Y-73654263D01*
X114408003Y-73654264D01*
X114350986Y-73677882D01*
X114286461Y-73704609D01*
X114175643Y-73789643D01*
X114090609Y-73900461D01*
X114067960Y-73955141D01*
X114046197Y-74007681D01*
X114037154Y-74029512D01*
X114018922Y-74168000D01*
X114037154Y-74306488D01*
X114043356Y-74321460D01*
X114044061Y-74323163D01*
X114053500Y-74370616D01*
X114053500Y-75293875D01*
X114040903Y-75348330D01*
X113994459Y-75443344D01*
X113993070Y-75452868D01*
X113993069Y-75452870D01*
X113984155Y-75513978D01*
X113983500Y-75518465D01*
X113983501Y-75861534D01*
X113994654Y-75937309D01*
X113998902Y-75945961D01*
X114045974Y-76041834D01*
X114051216Y-76052511D01*
X114077083Y-76078333D01*
X114111025Y-76112216D01*
X114144563Y-76173510D01*
X114139639Y-76243206D01*
X114111178Y-76287578D01*
X114058061Y-76340788D01*
X114058058Y-76340793D01*
X114050819Y-76348044D01*
X114046320Y-76357249D01*
X114046318Y-76357251D01*
X114015050Y-76421220D01*
X113994459Y-76463344D01*
X113993070Y-76472868D01*
X113993069Y-76472870D01*
X113984155Y-76533978D01*
X113983500Y-76538465D01*
X99809971Y-76538465D01*
X99842683Y-76487608D01*
X99853908Y-76462691D01*
X99947653Y-76254583D01*
X99947653Y-76254582D01*
X99949544Y-76250385D01*
X99971225Y-76173510D01*
X100018918Y-76004406D01*
X100018919Y-76004399D01*
X100020168Y-75999972D01*
X100053002Y-75741871D01*
X100055408Y-75650000D01*
X100052336Y-75608653D01*
X100036126Y-75390534D01*
X100038219Y-75390378D01*
X100046596Y-75329724D01*
X100071994Y-75292927D01*
X103208102Y-72156819D01*
X103269425Y-72123334D01*
X103295783Y-72120500D01*
X112759850Y-72120500D01*
X112763313Y-72120548D01*
X112843375Y-72122785D01*
X112843379Y-72122785D01*
X112849653Y-72122960D01*
X112855839Y-72121869D01*
X112855841Y-72121869D01*
X112909138Y-72112471D01*
X112918140Y-72111222D01*
X112971964Y-72105755D01*
X112978216Y-72105120D01*
X112984210Y-72103242D01*
X112984213Y-72103241D01*
X113005805Y-72096474D01*
X113021357Y-72092683D01*
X113043632Y-72088756D01*
X113043639Y-72088754D01*
X113049821Y-72087664D01*
X113055661Y-72085352D01*
X113055664Y-72085351D01*
X113105966Y-72065435D01*
X113114528Y-72062403D01*
X113172172Y-72044338D01*
X113197461Y-72030320D01*
X113211930Y-72023480D01*
X113238805Y-72012840D01*
X113244057Y-72009403D01*
X113244065Y-72009399D01*
X113289337Y-71979774D01*
X113297117Y-71975081D01*
X113344445Y-71948846D01*
X113344451Y-71948842D01*
X113349944Y-71945797D01*
X113371904Y-71926975D01*
X113384693Y-71917374D01*
X113404889Y-71904158D01*
X113408882Y-71901545D01*
X113413838Y-71897083D01*
X113452800Y-71858121D01*
X113459785Y-71851652D01*
X113504271Y-71813523D01*
X113523261Y-71789041D01*
X113533553Y-71777368D01*
X114231402Y-71079519D01*
X114931872Y-70379048D01*
X114993195Y-70345563D01*
X115062887Y-70350547D01*
X115107234Y-70379048D01*
X116171625Y-71443439D01*
X116179128Y-71452828D01*
X116179490Y-71452520D01*
X116185215Y-71459246D01*
X116189930Y-71466720D01*
X116196553Y-71472569D01*
X116229643Y-71501793D01*
X116235241Y-71507055D01*
X116246506Y-71518320D01*
X116250038Y-71520967D01*
X116250039Y-71520968D01*
X116254736Y-71524488D01*
X116262453Y-71530769D01*
X116297388Y-71561623D01*
X116305384Y-71565377D01*
X116307789Y-71566957D01*
X116322561Y-71575834D01*
X116325105Y-71577227D01*
X116332176Y-71582526D01*
X116340452Y-71585628D01*
X116340451Y-71585628D01*
X116375806Y-71598882D01*
X116384977Y-71602747D01*
X116419166Y-71618799D01*
X116419170Y-71618800D01*
X116427163Y-71622553D01*
X116435891Y-71623912D01*
X116438652Y-71624756D01*
X116455321Y-71629129D01*
X116458144Y-71629750D01*
X116466419Y-71632852D01*
X116475228Y-71633507D01*
X116475230Y-71633507D01*
X116512898Y-71636306D01*
X116522779Y-71637440D01*
X116536009Y-71639500D01*
X116551284Y-71639500D01*
X116560473Y-71639841D01*
X116609391Y-71643476D01*
X116618031Y-71641632D01*
X116626153Y-71641078D01*
X116641105Y-71639500D01*
X159376000Y-71639500D01*
X159443039Y-71659185D01*
X159488794Y-71711989D01*
X159500000Y-71763500D01*
X159500000Y-72104466D01*
X159480315Y-72171505D01*
X159427511Y-72217260D01*
X159358353Y-72227204D01*
X159300513Y-72202841D01*
X159277991Y-72185559D01*
X159277986Y-72185556D01*
X159271539Y-72180609D01*
X159198430Y-72150326D01*
X159149997Y-72130264D01*
X159149995Y-72130263D01*
X159142488Y-72127154D01*
X159004000Y-72108922D01*
X158865512Y-72127154D01*
X158858005Y-72130263D01*
X158858003Y-72130264D01*
X158809570Y-72150326D01*
X158736461Y-72180609D01*
X158730016Y-72185555D01*
X158730010Y-72185558D01*
X158655312Y-72242876D01*
X158590143Y-72268070D01*
X158579826Y-72268500D01*
X158530940Y-72268500D01*
X158463901Y-72248815D01*
X158444192Y-72230078D01*
X158442784Y-72231489D01*
X158359208Y-72148058D01*
X158359207Y-72148057D01*
X158351956Y-72140819D01*
X158342751Y-72136320D01*
X158342749Y-72136318D01*
X158245745Y-72088902D01*
X158236656Y-72084459D01*
X158227132Y-72083070D01*
X158227130Y-72083069D01*
X158165986Y-72074149D01*
X158165981Y-72074149D01*
X158161535Y-72073500D01*
X157990722Y-72073500D01*
X157818466Y-72073501D01*
X157767576Y-72080991D01*
X157752229Y-72083250D01*
X157752228Y-72083250D01*
X157742691Y-72084654D01*
X157734039Y-72088902D01*
X157636684Y-72136701D01*
X157636682Y-72136702D01*
X157627489Y-72141216D01*
X157620252Y-72148466D01*
X157567784Y-72201025D01*
X157506490Y-72234563D01*
X157436794Y-72229639D01*
X157392422Y-72201178D01*
X157339212Y-72148061D01*
X157339207Y-72148058D01*
X157331956Y-72140819D01*
X157322751Y-72136320D01*
X157322749Y-72136318D01*
X157225745Y-72088902D01*
X157216656Y-72084459D01*
X157207132Y-72083070D01*
X157207130Y-72083069D01*
X157145986Y-72074149D01*
X157145981Y-72074149D01*
X157141535Y-72073500D01*
X156970722Y-72073500D01*
X156798466Y-72073501D01*
X156747576Y-72080991D01*
X156732229Y-72083250D01*
X156732228Y-72083250D01*
X156722691Y-72084654D01*
X156714039Y-72088902D01*
X156628687Y-72130808D01*
X156574037Y-72143500D01*
X155904616Y-72143500D01*
X155857163Y-72134061D01*
X155855460Y-72133356D01*
X155840488Y-72127154D01*
X155702000Y-72108922D01*
X155563512Y-72127154D01*
X155556005Y-72130263D01*
X155556003Y-72130264D01*
X155507570Y-72150326D01*
X155434461Y-72180609D01*
X155428014Y-72185556D01*
X155345574Y-72248815D01*
X155323643Y-72265643D01*
X155238609Y-72376461D01*
X155185154Y-72505512D01*
X155166922Y-72644000D01*
X155185154Y-72782488D01*
X155238609Y-72911539D01*
X155323643Y-73022357D01*
X155330086Y-73027301D01*
X155353313Y-73045124D01*
X155434461Y-73107391D01*
X155471698Y-73122815D01*
X155556003Y-73157736D01*
X155556005Y-73157737D01*
X155563512Y-73160846D01*
X155702000Y-73179078D01*
X155710059Y-73178017D01*
X155832429Y-73161907D01*
X155840488Y-73160846D01*
X155857162Y-73153939D01*
X155904616Y-73144500D01*
X156573875Y-73144500D01*
X156628330Y-73157097D01*
X156723344Y-73203541D01*
X156732868Y-73204930D01*
X156732870Y-73204931D01*
X156794014Y-73213851D01*
X156794019Y-73213851D01*
X156798465Y-73214500D01*
X156969278Y-73214500D01*
X157141534Y-73214499D01*
X157192424Y-73207009D01*
X157207771Y-73204750D01*
X157207772Y-73204750D01*
X157217309Y-73203346D01*
X157276739Y-73174167D01*
X157323316Y-73151299D01*
X157323318Y-73151298D01*
X157332511Y-73146784D01*
X157392216Y-73086975D01*
X157453510Y-73053437D01*
X157523206Y-73058361D01*
X157567578Y-73086822D01*
X157620788Y-73139939D01*
X157620793Y-73139942D01*
X157628044Y-73147181D01*
X157637249Y-73151680D01*
X157637251Y-73151682D01*
X157693298Y-73179078D01*
X157743344Y-73203541D01*
X157752868Y-73204930D01*
X157752870Y-73204931D01*
X157814014Y-73213851D01*
X157814019Y-73213851D01*
X157818465Y-73214500D01*
X157989278Y-73214500D01*
X158161534Y-73214499D01*
X158212424Y-73207009D01*
X158227771Y-73204750D01*
X158227772Y-73204750D01*
X158237309Y-73203346D01*
X158296739Y-73174167D01*
X158343316Y-73151299D01*
X158343318Y-73151298D01*
X158352511Y-73146784D01*
X158359746Y-73139537D01*
X158359748Y-73139535D01*
X158443181Y-73055956D01*
X158446048Y-73058818D01*
X158485599Y-73028104D01*
X158530983Y-73019500D01*
X158579826Y-73019500D01*
X158646865Y-73039185D01*
X158655312Y-73045124D01*
X158730010Y-73102442D01*
X158730016Y-73102445D01*
X158736461Y-73107391D01*
X158773698Y-73122815D01*
X158858003Y-73157736D01*
X158858005Y-73157737D01*
X158865512Y-73160846D01*
X159004000Y-73179078D01*
X159012059Y-73178017D01*
X159134429Y-73161907D01*
X159142488Y-73160846D01*
X159149995Y-73157737D01*
X159149997Y-73157736D01*
X159234302Y-73122815D01*
X159271539Y-73107391D01*
X159277989Y-73102442D01*
X159277991Y-73102441D01*
X159300513Y-73085159D01*
X159365682Y-73059964D01*
X159434126Y-73074002D01*
X159484117Y-73122815D01*
X159500000Y-73183534D01*
X159500000Y-77000000D01*
X161097265Y-77000000D01*
X161164304Y-77019685D01*
X161210059Y-77072489D01*
X161220003Y-77141647D01*
X161197072Y-77197583D01*
X161190116Y-77207018D01*
X161190113Y-77207024D01*
X161186387Y-77212077D01*
X161183753Y-77217777D01*
X161183752Y-77217779D01*
X161103765Y-77390886D01*
X161101130Y-77396589D01*
X161099697Y-77402700D01*
X161099696Y-77402702D01*
X161061385Y-77566044D01*
X161054716Y-77594476D01*
X161052549Y-77672039D01*
X161049224Y-77791080D01*
X161049040Y-77797653D01*
X161084336Y-77997821D01*
X161086647Y-78003659D01*
X161086648Y-78003661D01*
X161118375Y-78083795D01*
X161159160Y-78186805D01*
X161162600Y-78192061D01*
X161162601Y-78192064D01*
X161205171Y-78257118D01*
X161270455Y-78356882D01*
X161274917Y-78361838D01*
X162095132Y-79182053D01*
X162097546Y-79184535D01*
X162156881Y-79247280D01*
X162162021Y-79250879D01*
X162162029Y-79250886D01*
X162206350Y-79281919D01*
X162213590Y-79287394D01*
X162260403Y-79325574D01*
X162283262Y-79337525D01*
X162286028Y-79338971D01*
X162299695Y-79347280D01*
X162323379Y-79363863D01*
X162329138Y-79366355D01*
X162378811Y-79387851D01*
X162387000Y-79391757D01*
X162440530Y-79419742D01*
X162446567Y-79421473D01*
X162446572Y-79421475D01*
X162468329Y-79427714D01*
X162483392Y-79433107D01*
X162509919Y-79444586D01*
X162569043Y-79456938D01*
X162577847Y-79459117D01*
X162635913Y-79475767D01*
X162664747Y-79477985D01*
X162680587Y-79480240D01*
X162708880Y-79486151D01*
X162713899Y-79486414D01*
X162713935Y-79486416D01*
X162713938Y-79486416D01*
X162715539Y-79486500D01*
X162770638Y-79486500D01*
X162780151Y-79486865D01*
X162838571Y-79491360D01*
X162844799Y-79490573D01*
X162844806Y-79490573D01*
X162869301Y-79487478D01*
X162884842Y-79486500D01*
X165500000Y-79486500D01*
X165500000Y-85749500D01*
X86374500Y-85749500D01*
X86307461Y-85729815D01*
X86261706Y-85677011D01*
X86250500Y-85625500D01*
X86250500Y-83175674D01*
X92371500Y-83175674D01*
X92386034Y-83248740D01*
X92441399Y-83331601D01*
X92524260Y-83386966D01*
X92558313Y-83393740D01*
X92591347Y-83400311D01*
X92591350Y-83400311D01*
X92597326Y-83401500D01*
X94346674Y-83401500D01*
X94352650Y-83400311D01*
X94352653Y-83400311D01*
X94385687Y-83393740D01*
X94419740Y-83386966D01*
X94502601Y-83331601D01*
X94557966Y-83248740D01*
X94572500Y-83175674D01*
X94572500Y-82925500D01*
X94592185Y-82858461D01*
X94644989Y-82812706D01*
X94696500Y-82801500D01*
X97461039Y-82801500D01*
X97472985Y-82802835D01*
X97473023Y-82802361D01*
X97481832Y-82803070D01*
X97490447Y-82805019D01*
X97499264Y-82804472D01*
X97499265Y-82804472D01*
X97543328Y-82801738D01*
X97551007Y-82801500D01*
X97566940Y-82801500D01*
X97571308Y-82800874D01*
X97571314Y-82800874D01*
X97577130Y-82800041D01*
X97587029Y-82799027D01*
X97619452Y-82797015D01*
X97624722Y-82796688D01*
X97633538Y-82796141D01*
X97641849Y-82793140D01*
X97644681Y-82792554D01*
X97661384Y-82788390D01*
X97664168Y-82787576D01*
X97672918Y-82786323D01*
X97715348Y-82767031D01*
X97724554Y-82763284D01*
X97760075Y-82750461D01*
X97760077Y-82750460D01*
X97768387Y-82747460D01*
X97775525Y-82742245D01*
X97778085Y-82740884D01*
X97792955Y-82732195D01*
X97795385Y-82730641D01*
X97803428Y-82726984D01*
X97838743Y-82696554D01*
X97846531Y-82690371D01*
X97857336Y-82682478D01*
X97868136Y-82671678D01*
X97874875Y-82665421D01*
X97905345Y-82639167D01*
X97905348Y-82639164D01*
X97912037Y-82633400D01*
X97916843Y-82625985D01*
X97922185Y-82619861D01*
X97931651Y-82608163D01*
X99738995Y-80800819D01*
X99800318Y-80767334D01*
X99826676Y-80764500D01*
X105267500Y-80764500D01*
X105334539Y-80784185D01*
X105380294Y-80836989D01*
X105391500Y-80888500D01*
X105391500Y-81038674D01*
X105406034Y-81111740D01*
X105461399Y-81194601D01*
X105544260Y-81249966D01*
X105578313Y-81256740D01*
X105611347Y-81263311D01*
X105611350Y-81263311D01*
X105617326Y-81264500D01*
X106666674Y-81264500D01*
X106672650Y-81263311D01*
X106672653Y-81263311D01*
X106696525Y-81258562D01*
X106739740Y-81249966D01*
X106746969Y-81245136D01*
X106814017Y-81237927D01*
X106835827Y-81244332D01*
X106844260Y-81249966D01*
X106887475Y-81258562D01*
X106911347Y-81263311D01*
X106911350Y-81263311D01*
X106917326Y-81264500D01*
X107966674Y-81264500D01*
X107972650Y-81263311D01*
X107972653Y-81263311D01*
X107996525Y-81258562D01*
X108039740Y-81249966D01*
X108046969Y-81245136D01*
X108114017Y-81237927D01*
X108135827Y-81244332D01*
X108144260Y-81249966D01*
X108187475Y-81258562D01*
X108211347Y-81263311D01*
X108211350Y-81263311D01*
X108217326Y-81264500D01*
X109266674Y-81264500D01*
X109272650Y-81263311D01*
X109272653Y-81263311D01*
X109305687Y-81256740D01*
X109339740Y-81249966D01*
X109422601Y-81194601D01*
X109477966Y-81111740D01*
X109492500Y-81038674D01*
X109492500Y-80888500D01*
X109512185Y-80821461D01*
X109564989Y-80775706D01*
X109616500Y-80764500D01*
X110599875Y-80764500D01*
X110654330Y-80777097D01*
X110749344Y-80823541D01*
X110758868Y-80824930D01*
X110758870Y-80824931D01*
X110820014Y-80833851D01*
X110820019Y-80833851D01*
X110824465Y-80834500D01*
X110995278Y-80834500D01*
X111167534Y-80834499D01*
X111218424Y-80827009D01*
X111233771Y-80824750D01*
X111233772Y-80824750D01*
X111243309Y-80823346D01*
X111323070Y-80784185D01*
X111349316Y-80771299D01*
X111349318Y-80771298D01*
X111358511Y-80766784D01*
X111365746Y-80759537D01*
X111365748Y-80759535D01*
X111441942Y-80683208D01*
X111441943Y-80683207D01*
X111449181Y-80675956D01*
X111453680Y-80666751D01*
X111453682Y-80666749D01*
X111487497Y-80597569D01*
X111505541Y-80560656D01*
X111516500Y-80485535D01*
X111516499Y-80042466D01*
X111505346Y-79966691D01*
X111488117Y-79931600D01*
X111453299Y-79860684D01*
X111453298Y-79860682D01*
X111448784Y-79851489D01*
X111441537Y-79844254D01*
X111441535Y-79844252D01*
X111365208Y-79768058D01*
X111365207Y-79768057D01*
X111357956Y-79760819D01*
X111348751Y-79756320D01*
X111348749Y-79756318D01*
X111251745Y-79708902D01*
X111242656Y-79704459D01*
X111233132Y-79703070D01*
X111233130Y-79703069D01*
X111171986Y-79694149D01*
X111171981Y-79694149D01*
X111167535Y-79693500D01*
X110996722Y-79693500D01*
X110824466Y-79693501D01*
X110773576Y-79700991D01*
X110758229Y-79703250D01*
X110758228Y-79703250D01*
X110748691Y-79704654D01*
X110740039Y-79708902D01*
X110654687Y-79750808D01*
X110600037Y-79763500D01*
X109616500Y-79763500D01*
X109549461Y-79743815D01*
X109503706Y-79691011D01*
X109492500Y-79639500D01*
X109492500Y-79489326D01*
X109490367Y-79478600D01*
X109481317Y-79433108D01*
X109477966Y-79416260D01*
X109422601Y-79333399D01*
X109339740Y-79278034D01*
X109305687Y-79271260D01*
X109272653Y-79264689D01*
X109272650Y-79264689D01*
X109266674Y-79263500D01*
X108217326Y-79263500D01*
X108211350Y-79264689D01*
X108211347Y-79264689D01*
X108187475Y-79269438D01*
X108144260Y-79278034D01*
X108137031Y-79282864D01*
X108069983Y-79290073D01*
X108048174Y-79283669D01*
X108039740Y-79278034D01*
X108027760Y-79275651D01*
X108019049Y-79272043D01*
X107964645Y-79228203D01*
X107942500Y-79157481D01*
X107942500Y-78434616D01*
X107951939Y-78387163D01*
X107952644Y-78385460D01*
X107958846Y-78370488D01*
X107977078Y-78232000D01*
X107958846Y-78093512D01*
X107954103Y-78082060D01*
X107919209Y-77997821D01*
X107905391Y-77964461D01*
X107820357Y-77853643D01*
X107758912Y-77806494D01*
X107715986Y-77773556D01*
X107709539Y-77768609D01*
X107645014Y-77741882D01*
X107587997Y-77718264D01*
X107587995Y-77718263D01*
X107580488Y-77715154D01*
X107442000Y-77696922D01*
X107303512Y-77715154D01*
X107296005Y-77718263D01*
X107296003Y-77718264D01*
X107238987Y-77741881D01*
X107174461Y-77768609D01*
X107168014Y-77773556D01*
X107125089Y-77806494D01*
X107063643Y-77853643D01*
X106978609Y-77964461D01*
X106964791Y-77997821D01*
X106929898Y-78082060D01*
X106925154Y-78093512D01*
X106906922Y-78232000D01*
X106925154Y-78370488D01*
X106931356Y-78385460D01*
X106932061Y-78387163D01*
X106941500Y-78434616D01*
X106941500Y-79157481D01*
X106921815Y-79224520D01*
X106864951Y-79272043D01*
X106856240Y-79275651D01*
X106844260Y-79278034D01*
X106837029Y-79282865D01*
X106769982Y-79290072D01*
X106748172Y-79283668D01*
X106739740Y-79278034D01*
X106696525Y-79269438D01*
X106672653Y-79264689D01*
X106672650Y-79264689D01*
X106666674Y-79263500D01*
X105617326Y-79263500D01*
X105611350Y-79264689D01*
X105611347Y-79264689D01*
X105578313Y-79271260D01*
X105544260Y-79278034D01*
X105461399Y-79333399D01*
X105406034Y-79416260D01*
X105402683Y-79433108D01*
X105393634Y-79478600D01*
X105391500Y-79489326D01*
X105391500Y-79639500D01*
X105371815Y-79706539D01*
X105319011Y-79752294D01*
X105267500Y-79763500D01*
X99637961Y-79763500D01*
X99626015Y-79762165D01*
X99625977Y-79762639D01*
X99617168Y-79761930D01*
X99608553Y-79759981D01*
X99599736Y-79760528D01*
X99599735Y-79760528D01*
X99555672Y-79763262D01*
X99547993Y-79763500D01*
X99532060Y-79763500D01*
X99527692Y-79764126D01*
X99527686Y-79764126D01*
X99521870Y-79764959D01*
X99511971Y-79765973D01*
X99479548Y-79767985D01*
X99474278Y-79768312D01*
X99465462Y-79768859D01*
X99457151Y-79771860D01*
X99454319Y-79772446D01*
X99437616Y-79776610D01*
X99434832Y-79777424D01*
X99426082Y-79778677D01*
X99383652Y-79797969D01*
X99374446Y-79801716D01*
X99338925Y-79814539D01*
X99338923Y-79814540D01*
X99330613Y-79817540D01*
X99323475Y-79822755D01*
X99320915Y-79824116D01*
X99306045Y-79832805D01*
X99303615Y-79834359D01*
X99295572Y-79838016D01*
X99288335Y-79844252D01*
X99260259Y-79868444D01*
X99252469Y-79874629D01*
X99241664Y-79882522D01*
X99230864Y-79893322D01*
X99224125Y-79899579D01*
X99193655Y-79925833D01*
X99193652Y-79925836D01*
X99186963Y-79931600D01*
X99182157Y-79939015D01*
X99176815Y-79945139D01*
X99167349Y-79956837D01*
X97360005Y-81764181D01*
X97298682Y-81797666D01*
X97272324Y-81800500D01*
X94696500Y-81800500D01*
X94629461Y-81780815D01*
X94583706Y-81728011D01*
X94572500Y-81676500D01*
X94572500Y-81426326D01*
X94557966Y-81353260D01*
X94502601Y-81270399D01*
X94419740Y-81215034D01*
X94385687Y-81208260D01*
X94352653Y-81201689D01*
X94352650Y-81201689D01*
X94346674Y-81200500D01*
X92597326Y-81200500D01*
X92591350Y-81201689D01*
X92591347Y-81201689D01*
X92558313Y-81208260D01*
X92524260Y-81215034D01*
X92441399Y-81270399D01*
X92386034Y-81353260D01*
X92371500Y-81426326D01*
X92371500Y-83175674D01*
X86250500Y-83175674D01*
X86250500Y-46374500D01*
X86270185Y-46307461D01*
X86322989Y-46261706D01*
X86374500Y-46250500D01*
X111376000Y-46250500D01*
X111443039Y-46270185D01*
G37*
%TD.AperFunction*%
%TA.AperFunction,Conductor*%
G36*
X165500000Y-77485500D02*
G01*
X163279783Y-77485500D01*
X163212744Y-77465815D01*
X163192102Y-77449181D01*
X163086997Y-77344076D01*
X162954600Y-77211680D01*
X162921116Y-77150358D01*
X162926100Y-77080667D01*
X162967971Y-77024733D01*
X163033436Y-77000316D01*
X163042282Y-77000000D01*
X165500000Y-77000000D01*
X165500000Y-77485500D01*
G37*
%TD.AperFunction*%
%TA.AperFunction,Conductor*%
G36*
X156673256Y-52682185D02*
G01*
X156693898Y-52698819D01*
X159500000Y-55504921D01*
X159500000Y-64807204D01*
X159446825Y-64863731D01*
X159444203Y-64867510D01*
X159444201Y-64867513D01*
X159418402Y-64904703D01*
X159294286Y-65083615D01*
X159256461Y-65160316D01*
X159180086Y-65315190D01*
X159175924Y-65323629D01*
X159174522Y-65328010D01*
X159174520Y-65328014D01*
X159157166Y-65382229D01*
X159094338Y-65578503D01*
X159051322Y-65842636D01*
X159049943Y-65947961D01*
X159048188Y-66082060D01*
X159047819Y-66110226D01*
X159083907Y-66375395D01*
X159085194Y-66379811D01*
X159085195Y-66379815D01*
X159116918Y-66488653D01*
X159158792Y-66632317D01*
X159270831Y-66875348D01*
X159273350Y-66879190D01*
X159273351Y-66879192D01*
X159415036Y-67095297D01*
X159415039Y-67095302D01*
X159417562Y-67099149D01*
X159448520Y-67133834D01*
X159500000Y-67191513D01*
X159500000Y-70514500D01*
X159480315Y-70581539D01*
X159427511Y-70627294D01*
X159376000Y-70638500D01*
X116833676Y-70638500D01*
X116766637Y-70618815D01*
X116745995Y-70602181D01*
X115306819Y-69163005D01*
X115273334Y-69101682D01*
X115270500Y-69075324D01*
X115270500Y-68783200D01*
X115264983Y-68728880D01*
X115255755Y-68638037D01*
X115255120Y-68631784D01*
X115253151Y-68625500D01*
X115247849Y-68608579D01*
X115246586Y-68538721D01*
X115283292Y-68479270D01*
X115346313Y-68449101D01*
X115366175Y-68447500D01*
X118447826Y-68447500D01*
X118514865Y-68467185D01*
X118523312Y-68473124D01*
X118598010Y-68530442D01*
X118598016Y-68530445D01*
X118604461Y-68535391D01*
X118668987Y-68562119D01*
X118726003Y-68585736D01*
X118726005Y-68585737D01*
X118733512Y-68588846D01*
X118872000Y-68607078D01*
X118880059Y-68606017D01*
X119002429Y-68589907D01*
X119010488Y-68588846D01*
X119017995Y-68585737D01*
X119017997Y-68585736D01*
X119075013Y-68562119D01*
X119139539Y-68535391D01*
X119220687Y-68473124D01*
X119243914Y-68455301D01*
X119250357Y-68450357D01*
X119335391Y-68339539D01*
X119388846Y-68210488D01*
X119407078Y-68072000D01*
X119388846Y-67933512D01*
X119335391Y-67804461D01*
X119303549Y-67762964D01*
X119255301Y-67700086D01*
X119250357Y-67693643D01*
X119228427Y-67676815D01*
X119145986Y-67613556D01*
X119139539Y-67608609D01*
X119054779Y-67573500D01*
X119017997Y-67558264D01*
X119017995Y-67558263D01*
X119010488Y-67555154D01*
X118872000Y-67536922D01*
X118733512Y-67555154D01*
X118726005Y-67558263D01*
X118726003Y-67558264D01*
X118689221Y-67573500D01*
X118604461Y-67608609D01*
X118598016Y-67613555D01*
X118598010Y-67613558D01*
X118523312Y-67670876D01*
X118458143Y-67696070D01*
X118447826Y-67696500D01*
X116006549Y-67696500D01*
X115939510Y-67676815D01*
X115893755Y-67624011D01*
X115883811Y-67554853D01*
X115908423Y-67500960D01*
X115907028Y-67500028D01*
X115912780Y-67491420D01*
X115912781Y-67491419D01*
X115965223Y-67412934D01*
X115980500Y-67336131D01*
X115980500Y-67308870D01*
X115995953Y-67257175D01*
X115992623Y-67255612D01*
X116025634Y-67185301D01*
X116053553Y-67125837D01*
X116055515Y-67113239D01*
X116062731Y-67066887D01*
X116070500Y-67016991D01*
X116070500Y-66187960D01*
X116071835Y-66176014D01*
X116071361Y-66175976D01*
X116072070Y-66167167D01*
X116074019Y-66158552D01*
X116070738Y-66105671D01*
X116070500Y-66097992D01*
X116070500Y-66082060D01*
X116069559Y-66075486D01*
X116069041Y-66071870D01*
X116068026Y-66061966D01*
X116065688Y-66024278D01*
X116065141Y-66015462D01*
X116062140Y-66007151D01*
X116061554Y-66004319D01*
X116057390Y-65987616D01*
X116056576Y-65984832D01*
X116055323Y-65976082D01*
X116036031Y-65933652D01*
X116032284Y-65924446D01*
X116019461Y-65888924D01*
X116019459Y-65888920D01*
X116016460Y-65880613D01*
X116011248Y-65873478D01*
X116010015Y-65871160D01*
X115995500Y-65812944D01*
X115995500Y-65562500D01*
X116015185Y-65495461D01*
X116067989Y-65449706D01*
X116119500Y-65438500D01*
X116469500Y-65438500D01*
X116536539Y-65458185D01*
X116582294Y-65510989D01*
X116593500Y-65562500D01*
X116593500Y-66599384D01*
X116584061Y-66646837D01*
X116577154Y-66663512D01*
X116576093Y-66671571D01*
X116574574Y-66683109D01*
X116558922Y-66802000D01*
X116559983Y-66810059D01*
X116573777Y-66914833D01*
X116577154Y-66940488D01*
X116580263Y-66947995D01*
X116580264Y-66947997D01*
X116603881Y-67005013D01*
X116630609Y-67069539D01*
X116715643Y-67180357D01*
X116826461Y-67265391D01*
X116869115Y-67283059D01*
X116948003Y-67315736D01*
X116948005Y-67315737D01*
X116955512Y-67318846D01*
X117094000Y-67337078D01*
X117102059Y-67336017D01*
X117138725Y-67331190D01*
X117232488Y-67318846D01*
X117239995Y-67315737D01*
X117239997Y-67315736D01*
X117318885Y-67283059D01*
X117361539Y-67265391D01*
X117472357Y-67180357D01*
X117557391Y-67069539D01*
X117584118Y-67005014D01*
X117607736Y-66947997D01*
X117607737Y-66947995D01*
X117610846Y-66940488D01*
X117614224Y-66914833D01*
X117628017Y-66810059D01*
X117629078Y-66802000D01*
X117613426Y-66683109D01*
X117611907Y-66671571D01*
X117610846Y-66663512D01*
X117603939Y-66646837D01*
X117594500Y-66599384D01*
X117594500Y-65382229D01*
X117614185Y-65315190D01*
X117630819Y-65294548D01*
X119101797Y-63823570D01*
X119115981Y-63811380D01*
X119133324Y-63798617D01*
X119137984Y-63793131D01*
X119137988Y-63793128D01*
X119167197Y-63758746D01*
X119174017Y-63751350D01*
X119179670Y-63745697D01*
X119197137Y-63723620D01*
X119199850Y-63720311D01*
X119241964Y-63670740D01*
X119241965Y-63670738D01*
X119246632Y-63665245D01*
X119249910Y-63658824D01*
X119253267Y-63653791D01*
X119256411Y-63648701D01*
X119260881Y-63643051D01*
X119291481Y-63577578D01*
X119293363Y-63573729D01*
X119322941Y-63515804D01*
X119322942Y-63515802D01*
X119326219Y-63509384D01*
X119327931Y-63502386D01*
X119330030Y-63496743D01*
X119331931Y-63491029D01*
X119334979Y-63484507D01*
X119349689Y-63413788D01*
X119350643Y-63409572D01*
X119354944Y-63391997D01*
X119367815Y-63339394D01*
X119368500Y-63328352D01*
X119368536Y-63328354D01*
X119368769Y-63324500D01*
X119369151Y-63320218D01*
X119370617Y-63313170D01*
X119368545Y-63236585D01*
X119368500Y-63233231D01*
X119368500Y-58486304D01*
X119369910Y-58467655D01*
X119372064Y-58453493D01*
X119373148Y-58446370D01*
X119371428Y-58425216D01*
X119368908Y-58394239D01*
X119368500Y-58384187D01*
X119368500Y-58376178D01*
X119365241Y-58348221D01*
X119364815Y-58343918D01*
X119359545Y-58279116D01*
X119359544Y-58279112D01*
X119358961Y-58271941D01*
X119356743Y-58265093D01*
X119355562Y-58259185D01*
X119354177Y-58253328D01*
X119353343Y-58246172D01*
X119328685Y-58178239D01*
X119327301Y-58174211D01*
X119323414Y-58162211D01*
X119321480Y-58092372D01*
X119357613Y-58032571D01*
X119420341Y-58001798D01*
X119441379Y-58000000D01*
X122750000Y-58000000D01*
X122750000Y-52786500D01*
X122769685Y-52719461D01*
X122822489Y-52673706D01*
X122874000Y-52662500D01*
X156606217Y-52662500D01*
X156673256Y-52682185D01*
G37*
%TD.AperFunction*%
%TA.AperFunction,Conductor*%
G36*
X117152310Y-58019685D02*
G01*
X117172952Y-58036319D01*
X117831181Y-58694548D01*
X117864666Y-58755871D01*
X117867500Y-58782229D01*
X117867500Y-61962498D01*
X117847815Y-62029537D01*
X117795011Y-62075292D01*
X117725853Y-62085236D01*
X117668013Y-62060874D01*
X117666653Y-62059830D01*
X117615539Y-62020609D01*
X117541078Y-61989766D01*
X117493997Y-61970264D01*
X117493995Y-61970263D01*
X117486488Y-61967154D01*
X117348000Y-61948922D01*
X117209512Y-61967154D01*
X117202005Y-61970263D01*
X117202003Y-61970264D01*
X117154922Y-61989766D01*
X117080461Y-62020609D01*
X117074016Y-62025555D01*
X117074010Y-62025558D01*
X116999312Y-62082876D01*
X116934143Y-62108070D01*
X116923826Y-62108500D01*
X114758899Y-62108500D01*
X114691860Y-62088815D01*
X114671218Y-62072181D01*
X114346818Y-61747781D01*
X114313333Y-61686458D01*
X114310499Y-61660100D01*
X114310499Y-61500466D01*
X114299346Y-61424691D01*
X114260956Y-61346500D01*
X114247299Y-61318684D01*
X114247298Y-61318682D01*
X114242784Y-61309489D01*
X114235537Y-61302254D01*
X114235535Y-61302252D01*
X114159208Y-61226058D01*
X114159207Y-61226057D01*
X114151956Y-61218819D01*
X114118368Y-61202401D01*
X114066784Y-61155276D01*
X114048866Y-61087743D01*
X114070303Y-61021243D01*
X114116528Y-60980513D01*
X114145922Y-60965536D01*
X114192391Y-60941859D01*
X114279859Y-60854391D01*
X114336017Y-60744175D01*
X114341713Y-60708210D01*
X114349737Y-60657555D01*
X114349737Y-60657550D01*
X114350500Y-60652735D01*
X114350499Y-60251266D01*
X114336017Y-60159825D01*
X114279859Y-60049609D01*
X114278625Y-60048375D01*
X114256639Y-59986762D01*
X114265876Y-59932226D01*
X114305736Y-59835997D01*
X114305737Y-59835995D01*
X114308846Y-59828488D01*
X114327078Y-59690000D01*
X114312494Y-59579222D01*
X114323260Y-59510188D01*
X114369640Y-59457932D01*
X114436909Y-59439047D01*
X114489888Y-59451635D01*
X114514111Y-59463476D01*
X114563344Y-59487541D01*
X114572868Y-59488930D01*
X114572870Y-59488931D01*
X114634014Y-59497851D01*
X114634019Y-59497851D01*
X114638465Y-59498500D01*
X114809278Y-59498500D01*
X114981534Y-59498499D01*
X115032424Y-59491009D01*
X115047771Y-59488750D01*
X115047772Y-59488750D01*
X115057309Y-59487346D01*
X115117218Y-59457932D01*
X115163316Y-59435299D01*
X115163318Y-59435298D01*
X115172511Y-59430784D01*
X115179746Y-59423537D01*
X115179748Y-59423535D01*
X115255942Y-59347208D01*
X115255943Y-59347207D01*
X115263181Y-59339956D01*
X115267680Y-59330751D01*
X115267682Y-59330749D01*
X115315313Y-59233305D01*
X115319541Y-59224656D01*
X115330500Y-59149535D01*
X115330500Y-58989899D01*
X115350185Y-58922860D01*
X115366819Y-58902218D01*
X115543839Y-58725198D01*
X115562568Y-58710071D01*
X115563602Y-58709130D01*
X115572210Y-58703572D01*
X115592807Y-58677445D01*
X115596720Y-58673042D01*
X115596650Y-58672983D01*
X115599957Y-58669080D01*
X115603575Y-58665462D01*
X115614681Y-58649920D01*
X115618170Y-58645272D01*
X115649603Y-58605400D01*
X115652605Y-58596851D01*
X115657872Y-58589481D01*
X115672408Y-58540877D01*
X115674212Y-58535324D01*
X115688437Y-58494817D01*
X115688438Y-58494814D01*
X115691023Y-58487452D01*
X115691500Y-58481945D01*
X115691500Y-58479261D01*
X115691613Y-58476659D01*
X115691635Y-58476585D01*
X115691804Y-58476592D01*
X115691850Y-58475867D01*
X115693690Y-58469713D01*
X115691596Y-58416419D01*
X115691500Y-58411551D01*
X115691500Y-58336174D01*
X115711185Y-58269135D01*
X115717124Y-58260688D01*
X115774442Y-58185990D01*
X115774445Y-58185984D01*
X115779391Y-58179539D01*
X115822052Y-58076547D01*
X115865893Y-58022144D01*
X115936613Y-58000000D01*
X117085271Y-58000000D01*
X117152310Y-58019685D01*
G37*
%TD.AperFunction*%
%TA.AperFunction,Conductor*%
G36*
X159500000Y-52675080D02*
G01*
X157790886Y-50965966D01*
X157788472Y-50963484D01*
X157733438Y-50905287D01*
X157733437Y-50905286D01*
X157729119Y-50900720D01*
X157723974Y-50897117D01*
X157723970Y-50897114D01*
X157701700Y-50881521D01*
X157679636Y-50866072D01*
X157672405Y-50860603D01*
X157625597Y-50822427D01*
X157620033Y-50819518D01*
X157620028Y-50819515D01*
X157599973Y-50809031D01*
X157586305Y-50800721D01*
X157562621Y-50784137D01*
X157507203Y-50760156D01*
X157499003Y-50756245D01*
X157451030Y-50731165D01*
X157445470Y-50728258D01*
X157417667Y-50720286D01*
X157402613Y-50714895D01*
X157381851Y-50705911D01*
X157381852Y-50705911D01*
X157376081Y-50703414D01*
X157369936Y-50702130D01*
X157369932Y-50702129D01*
X157341302Y-50696148D01*
X157316954Y-50691062D01*
X157308141Y-50688880D01*
X157256127Y-50673965D01*
X157256119Y-50673963D01*
X157250087Y-50672234D01*
X157243828Y-50671752D01*
X157243820Y-50671751D01*
X157221264Y-50670015D01*
X157205421Y-50667761D01*
X157181785Y-50662823D01*
X157181778Y-50662822D01*
X157177120Y-50661849D01*
X157172101Y-50661586D01*
X157172065Y-50661584D01*
X157172062Y-50661584D01*
X157170461Y-50661500D01*
X157115359Y-50661500D01*
X157105846Y-50661135D01*
X157097879Y-50660522D01*
X157047429Y-50656640D01*
X157041201Y-50657427D01*
X157041194Y-50657427D01*
X157016699Y-50660522D01*
X157001158Y-50661500D01*
X122874000Y-50661500D01*
X122806961Y-50641815D01*
X122761206Y-50589011D01*
X122750000Y-50537500D01*
X122750000Y-46374500D01*
X122769685Y-46307461D01*
X122822489Y-46261706D01*
X122874000Y-46250500D01*
X159500000Y-46250500D01*
X159500000Y-52675080D01*
G37*
%TD.AperFunction*%
%TA.AperFunction,Conductor*%
G36*
X181692539Y-46270185D02*
G01*
X181738294Y-46322989D01*
X181749500Y-46374500D01*
X181749500Y-85625500D01*
X181729815Y-85692539D01*
X181677011Y-85738294D01*
X181625500Y-85749500D01*
X165500000Y-85749500D01*
X165500000Y-79486500D01*
X166847850Y-79486500D01*
X166851313Y-79486548D01*
X166931375Y-79488785D01*
X166931379Y-79488785D01*
X166937653Y-79488960D01*
X166943839Y-79487869D01*
X166943841Y-79487869D01*
X166997138Y-79478471D01*
X167006140Y-79477222D01*
X167059964Y-79471755D01*
X167066216Y-79471120D01*
X167072210Y-79469242D01*
X167072213Y-79469241D01*
X167093805Y-79462474D01*
X167109357Y-79458683D01*
X167131632Y-79454756D01*
X167131639Y-79454754D01*
X167137821Y-79453664D01*
X167143661Y-79451352D01*
X167143664Y-79451351D01*
X167193966Y-79431435D01*
X167202528Y-79428403D01*
X167260172Y-79410338D01*
X167285461Y-79396320D01*
X167299930Y-79389480D01*
X167326805Y-79378840D01*
X167332057Y-79375403D01*
X167332065Y-79375399D01*
X167377337Y-79345774D01*
X167385117Y-79341081D01*
X167432445Y-79314846D01*
X167432451Y-79314842D01*
X167437944Y-79311797D01*
X167459904Y-79292975D01*
X167472693Y-79283374D01*
X167492889Y-79270158D01*
X167496882Y-79267545D01*
X167501838Y-79263083D01*
X167540800Y-79224121D01*
X167547785Y-79217652D01*
X167592271Y-79179523D01*
X167611261Y-79155041D01*
X167621553Y-79143368D01*
X169345241Y-77419680D01*
X169406564Y-77386195D01*
X169456050Y-77385537D01*
X169479263Y-77389944D01*
X169501282Y-77394124D01*
X169505875Y-77394304D01*
X169505880Y-77394305D01*
X169756656Y-77404158D01*
X169761263Y-77404339D01*
X169873575Y-77392039D01*
X170015327Y-77376515D01*
X170015332Y-77376514D01*
X170019898Y-77376014D01*
X170271505Y-77309771D01*
X170275732Y-77307955D01*
X170506331Y-77208882D01*
X170506335Y-77208880D01*
X170510557Y-77207066D01*
X170514461Y-77204650D01*
X170514467Y-77204647D01*
X170727887Y-77072579D01*
X170727894Y-77072574D01*
X170731803Y-77070155D01*
X170930382Y-76902046D01*
X171101931Y-76706431D01*
X171242683Y-76487608D01*
X171349544Y-76250385D01*
X171360389Y-76211933D01*
X171418918Y-76004406D01*
X171418919Y-76004399D01*
X171420168Y-75999972D01*
X171453002Y-75741871D01*
X171455408Y-75650000D01*
X171455178Y-75646902D01*
X171436467Y-75395118D01*
X171436466Y-75395113D01*
X171436126Y-75390534D01*
X171426900Y-75349758D01*
X171415897Y-75301133D01*
X171378705Y-75136768D01*
X171284405Y-74894277D01*
X171260849Y-74853061D01*
X171157579Y-74672377D01*
X171157578Y-74672376D01*
X171155299Y-74668388D01*
X170994223Y-74464064D01*
X170804714Y-74285792D01*
X170760066Y-74254818D01*
X170718568Y-74226030D01*
X170590937Y-74137489D01*
X170586818Y-74135458D01*
X170586815Y-74135456D01*
X170361717Y-74024450D01*
X170361709Y-74024447D01*
X170357587Y-74022414D01*
X170353206Y-74021012D01*
X170353202Y-74021010D01*
X170226438Y-73980433D01*
X170109792Y-73943094D01*
X169852994Y-73901272D01*
X169725371Y-73899601D01*
X169597444Y-73897926D01*
X169597439Y-73897926D01*
X169592835Y-73897866D01*
X169379516Y-73926898D01*
X169339585Y-73932332D01*
X169339584Y-73932332D01*
X169335030Y-73932952D01*
X169330620Y-73934237D01*
X169330617Y-73934238D01*
X169210137Y-73969355D01*
X169085243Y-74005758D01*
X169081075Y-74007680D01*
X169081071Y-74007681D01*
X169044697Y-74024450D01*
X168848961Y-74114686D01*
X168631375Y-74257341D01*
X168627945Y-74260402D01*
X168627939Y-74260407D01*
X168440696Y-74427528D01*
X168440691Y-74427533D01*
X168437265Y-74430591D01*
X168270895Y-74630629D01*
X168135920Y-74853061D01*
X168134142Y-74857301D01*
X168134139Y-74857307D01*
X168116839Y-74898563D01*
X168035305Y-75093001D01*
X167971261Y-75345177D01*
X167945194Y-75604049D01*
X167945415Y-75608651D01*
X167945415Y-75608653D01*
X167950587Y-75716319D01*
X167957677Y-75863930D01*
X167963573Y-75893571D01*
X167957346Y-75963160D01*
X167929637Y-76005442D01*
X166485899Y-77449181D01*
X166424576Y-77482666D01*
X166398218Y-77485500D01*
X165500000Y-77485500D01*
X165500000Y-70537948D01*
X165519685Y-70470909D01*
X165572489Y-70425154D01*
X165641647Y-70415210D01*
X165705203Y-70444235D01*
X165722375Y-70462461D01*
X165732695Y-70475910D01*
X165732699Y-70475914D01*
X165737643Y-70482357D01*
X165848461Y-70567391D01*
X165898652Y-70588181D01*
X165970003Y-70617736D01*
X165970005Y-70617737D01*
X165977512Y-70620846D01*
X166005267Y-70624500D01*
X166078922Y-70634197D01*
X166142819Y-70662463D01*
X166150418Y-70669455D01*
X166708802Y-71227839D01*
X166723929Y-71246568D01*
X166724870Y-71247602D01*
X166730428Y-71256210D01*
X166738473Y-71262552D01*
X166756555Y-71276807D01*
X166760958Y-71280720D01*
X166761017Y-71280650D01*
X166764920Y-71283957D01*
X166768538Y-71287575D01*
X166772700Y-71290549D01*
X166784077Y-71298679D01*
X166788728Y-71302170D01*
X166828600Y-71333603D01*
X166837149Y-71336605D01*
X166844519Y-71341872D01*
X166854341Y-71344809D01*
X166854340Y-71344809D01*
X166893114Y-71356405D01*
X166898672Y-71358211D01*
X166939183Y-71372438D01*
X166939193Y-71372440D01*
X166946548Y-71375023D01*
X166952055Y-71375500D01*
X166954738Y-71375500D01*
X166957340Y-71375613D01*
X166957415Y-71375635D01*
X166957408Y-71375804D01*
X166958132Y-71375850D01*
X166964286Y-71377690D01*
X166974525Y-71377288D01*
X166974528Y-71377288D01*
X167017580Y-71375596D01*
X167022448Y-71375500D01*
X176081412Y-71375500D01*
X176148451Y-71395185D01*
X176193794Y-71447095D01*
X176272132Y-71615090D01*
X176275239Y-71619527D01*
X176275240Y-71619529D01*
X176392021Y-71786310D01*
X176392024Y-71786314D01*
X176395127Y-71790745D01*
X176546755Y-71942373D01*
X176722409Y-72065368D01*
X176916753Y-72155992D01*
X176921976Y-72157391D01*
X176921980Y-72157393D01*
X177086041Y-72201353D01*
X177123881Y-72211492D01*
X177337500Y-72230181D01*
X177551119Y-72211492D01*
X177588959Y-72201353D01*
X177753020Y-72157393D01*
X177753024Y-72157391D01*
X177758247Y-72155992D01*
X177952591Y-72065368D01*
X178128245Y-71942373D01*
X178279873Y-71790745D01*
X178282976Y-71786314D01*
X178282979Y-71786310D01*
X178399760Y-71619529D01*
X178399761Y-71619527D01*
X178402868Y-71615090D01*
X178493492Y-71420747D01*
X178500342Y-71395185D01*
X178547590Y-71218851D01*
X178548992Y-71213619D01*
X178567681Y-71000000D01*
X178548992Y-70786381D01*
X178509396Y-70638608D01*
X178494893Y-70584480D01*
X178494891Y-70584476D01*
X178493492Y-70579253D01*
X178402868Y-70384910D01*
X178393506Y-70371539D01*
X178282979Y-70213690D01*
X178282976Y-70213686D01*
X178279873Y-70209255D01*
X178128245Y-70057627D01*
X177952591Y-69934632D01*
X177758247Y-69844008D01*
X177753024Y-69842609D01*
X177753020Y-69842607D01*
X177556351Y-69789910D01*
X177556352Y-69789910D01*
X177551119Y-69788508D01*
X177337500Y-69769819D01*
X177123881Y-69788508D01*
X177118648Y-69789910D01*
X177118649Y-69789910D01*
X176921980Y-69842607D01*
X176921976Y-69842609D01*
X176916753Y-69844008D01*
X176722410Y-69934632D01*
X176717973Y-69937739D01*
X176717971Y-69937740D01*
X176551190Y-70054521D01*
X176551189Y-70054522D01*
X176546755Y-70057627D01*
X176395127Y-70209255D01*
X176392024Y-70213686D01*
X176392021Y-70213690D01*
X176281494Y-70371539D01*
X176272132Y-70384910D01*
X176269842Y-70389821D01*
X176193794Y-70552905D01*
X176147621Y-70605344D01*
X176081412Y-70624500D01*
X167218899Y-70624500D01*
X167151860Y-70604815D01*
X167131218Y-70588181D01*
X166681455Y-70138418D01*
X166647970Y-70077095D01*
X166646197Y-70066922D01*
X166633907Y-69973572D01*
X166632846Y-69965512D01*
X166621343Y-69937740D01*
X166606119Y-69900987D01*
X166579391Y-69836461D01*
X166494357Y-69725643D01*
X166383539Y-69640609D01*
X166319014Y-69613882D01*
X166261997Y-69590264D01*
X166261995Y-69590263D01*
X166254488Y-69587154D01*
X166116000Y-69568922D01*
X165977512Y-69587154D01*
X165970005Y-69590263D01*
X165970003Y-69590264D01*
X165912986Y-69613882D01*
X165848461Y-69640609D01*
X165737643Y-69725643D01*
X165732699Y-69732086D01*
X165732695Y-69732090D01*
X165722375Y-69745539D01*
X165665947Y-69786742D01*
X165596201Y-69790896D01*
X165535281Y-69756683D01*
X165502529Y-69694965D01*
X165500000Y-69670052D01*
X165500000Y-61504920D01*
X165691114Y-61696034D01*
X165693528Y-61698516D01*
X165752881Y-61761280D01*
X165758026Y-61764883D01*
X165758030Y-61764886D01*
X165780300Y-61780479D01*
X165802364Y-61795928D01*
X165809595Y-61801397D01*
X165826677Y-61815329D01*
X165851532Y-61835601D01*
X165851537Y-61835604D01*
X165856403Y-61839573D01*
X165882035Y-61852973D01*
X165895689Y-61861275D01*
X165919379Y-61877863D01*
X165925144Y-61880358D01*
X165925148Y-61880360D01*
X165974800Y-61901846D01*
X165983001Y-61905758D01*
X166030963Y-61930832D01*
X166030974Y-61930836D01*
X166036530Y-61933741D01*
X166042558Y-61935469D01*
X166042562Y-61935471D01*
X166064316Y-61941708D01*
X166079387Y-61947104D01*
X166100153Y-61956091D01*
X166100155Y-61956092D01*
X166105919Y-61958586D01*
X166112067Y-61959870D01*
X166112069Y-61959871D01*
X166143352Y-61966406D01*
X166165043Y-61970938D01*
X166173862Y-61973121D01*
X166225874Y-61988035D01*
X166225880Y-61988036D01*
X166231913Y-61989766D01*
X166238169Y-61990247D01*
X166238178Y-61990249D01*
X166260736Y-61991985D01*
X166276579Y-61994239D01*
X166300215Y-61999177D01*
X166300222Y-61999178D01*
X166304880Y-62000151D01*
X166309899Y-62000414D01*
X166309935Y-62000416D01*
X166309938Y-62000416D01*
X166311539Y-62000500D01*
X166366640Y-62000500D01*
X166376154Y-62000865D01*
X166434570Y-62005360D01*
X166440799Y-62004573D01*
X166440804Y-62004573D01*
X166465299Y-62001478D01*
X166480840Y-62000500D01*
X167188422Y-62000500D01*
X167255461Y-62020185D01*
X167301216Y-62072989D01*
X167311160Y-62142147D01*
X167287648Y-62198866D01*
X167278580Y-62210966D01*
X167206474Y-62307176D01*
X167156149Y-62441420D01*
X167149500Y-62502623D01*
X167149501Y-65097376D01*
X167156149Y-65158580D01*
X167206474Y-65292824D01*
X167292454Y-65407546D01*
X167299519Y-65412841D01*
X167400109Y-65488230D01*
X167400111Y-65488231D01*
X167407176Y-65493526D01*
X167541420Y-65543851D01*
X167602623Y-65550500D01*
X168199911Y-65550500D01*
X168797376Y-65550499D01*
X168858580Y-65543851D01*
X168992824Y-65493526D01*
X168999889Y-65488231D01*
X168999891Y-65488230D01*
X169100481Y-65412841D01*
X169107546Y-65407546D01*
X169193526Y-65292824D01*
X169243851Y-65158580D01*
X169250500Y-65097377D01*
X169250499Y-63215784D01*
X169270184Y-63148745D01*
X169286818Y-63128103D01*
X170378102Y-62036819D01*
X170439425Y-62003334D01*
X170465783Y-62000500D01*
X176016336Y-62000500D01*
X176083375Y-62020185D01*
X176126296Y-62071543D01*
X176126534Y-62072740D01*
X176133317Y-62082892D01*
X176133318Y-62082894D01*
X176149074Y-62106474D01*
X176181899Y-62155601D01*
X176264760Y-62210966D01*
X176298813Y-62217740D01*
X176331847Y-62224311D01*
X176331850Y-62224311D01*
X176337826Y-62225500D01*
X178337174Y-62225500D01*
X178343150Y-62224311D01*
X178343153Y-62224311D01*
X178376187Y-62217740D01*
X178410240Y-62210966D01*
X178493101Y-62155601D01*
X178548466Y-62072740D01*
X178563000Y-61999674D01*
X178563000Y-60000326D01*
X178548466Y-59927260D01*
X178493101Y-59844399D01*
X178410240Y-59789034D01*
X178376187Y-59782260D01*
X178343153Y-59775689D01*
X178343150Y-59775689D01*
X178337174Y-59774500D01*
X176337826Y-59774500D01*
X176331850Y-59775689D01*
X176331847Y-59775689D01*
X176298813Y-59782260D01*
X176264760Y-59789034D01*
X176181899Y-59844399D01*
X176175115Y-59854552D01*
X176133318Y-59917106D01*
X176133317Y-59917108D01*
X176126534Y-59927260D01*
X176126242Y-59928728D01*
X176087058Y-59977354D01*
X176016336Y-59999500D01*
X170016128Y-59999500D01*
X170012666Y-59999452D01*
X169932626Y-59997216D01*
X169932622Y-59997216D01*
X169926347Y-59997041D01*
X169920159Y-59998132D01*
X169913899Y-59998592D01*
X169913886Y-59998421D01*
X169901554Y-59999500D01*
X166875783Y-59999500D01*
X166808744Y-59979815D01*
X166788102Y-59963181D01*
X165500000Y-58675079D01*
X165500000Y-56304049D01*
X167945194Y-56304049D01*
X167945415Y-56308651D01*
X167945415Y-56308653D01*
X167950587Y-56416319D01*
X167957677Y-56563930D01*
X168008435Y-56819112D01*
X168096355Y-57063989D01*
X168219504Y-57293180D01*
X168375177Y-57501651D01*
X168464480Y-57590178D01*
X168556690Y-57681588D01*
X168556695Y-57681592D01*
X168559954Y-57684823D01*
X168769775Y-57838670D01*
X168889546Y-57901685D01*
X168995953Y-57957669D01*
X168995960Y-57957672D01*
X169000033Y-57959815D01*
X169245667Y-58045594D01*
X169250186Y-58046452D01*
X169250190Y-58046453D01*
X169496767Y-58093267D01*
X169496770Y-58093267D01*
X169501282Y-58094124D01*
X169505872Y-58094304D01*
X169505878Y-58094305D01*
X169756656Y-58104158D01*
X169761263Y-58104339D01*
X169873575Y-58092039D01*
X170015327Y-58076515D01*
X170015332Y-58076514D01*
X170019898Y-58076014D01*
X170271505Y-58009771D01*
X170275732Y-58007955D01*
X170506331Y-57908882D01*
X170506335Y-57908880D01*
X170510557Y-57907066D01*
X170514461Y-57904650D01*
X170514467Y-57904647D01*
X170727887Y-57772579D01*
X170727894Y-57772574D01*
X170731803Y-57770155D01*
X170930382Y-57602046D01*
X171101931Y-57406431D01*
X171242683Y-57187608D01*
X171349544Y-56950385D01*
X171360389Y-56911933D01*
X171418918Y-56704406D01*
X171418919Y-56704399D01*
X171420168Y-56699972D01*
X171453002Y-56441871D01*
X171455408Y-56350000D01*
X171455178Y-56346902D01*
X171436467Y-56095118D01*
X171436466Y-56095113D01*
X171436126Y-56090534D01*
X171426900Y-56049758D01*
X171415897Y-56001133D01*
X171378705Y-55836768D01*
X171284405Y-55594277D01*
X171260849Y-55553061D01*
X171157579Y-55372377D01*
X171157578Y-55372376D01*
X171155299Y-55368388D01*
X170994223Y-55164064D01*
X170804714Y-54985792D01*
X170760066Y-54954818D01*
X170718568Y-54926030D01*
X170590937Y-54837489D01*
X170586818Y-54835458D01*
X170586815Y-54835456D01*
X170361717Y-54724450D01*
X170361709Y-54724447D01*
X170357587Y-54722414D01*
X170353206Y-54721012D01*
X170353202Y-54721010D01*
X170226438Y-54680433D01*
X170109792Y-54643094D01*
X169852994Y-54601272D01*
X169725371Y-54599601D01*
X169597444Y-54597926D01*
X169597439Y-54597926D01*
X169592835Y-54597866D01*
X169379516Y-54626898D01*
X169339585Y-54632332D01*
X169339584Y-54632332D01*
X169335030Y-54632952D01*
X169330620Y-54634237D01*
X169330617Y-54634238D01*
X169210136Y-54669355D01*
X169085243Y-54705758D01*
X169081075Y-54707680D01*
X169081071Y-54707681D01*
X169044697Y-54724450D01*
X168848961Y-54814686D01*
X168631375Y-54957341D01*
X168627945Y-54960402D01*
X168627939Y-54960407D01*
X168440696Y-55127528D01*
X168440691Y-55127533D01*
X168437265Y-55130591D01*
X168270895Y-55330629D01*
X168135920Y-55553061D01*
X168134142Y-55557301D01*
X168134139Y-55557307D01*
X168116839Y-55598563D01*
X168035305Y-55793001D01*
X167971261Y-56045177D01*
X167945194Y-56304049D01*
X165500000Y-56304049D01*
X165500000Y-46250500D01*
X181625500Y-46250500D01*
X181692539Y-46270185D01*
G37*
%TD.AperFunction*%
%TA.AperFunction,Conductor*%
G36*
X165500000Y-61504920D02*
G01*
X165500000Y-68750000D01*
X159500000Y-68750000D01*
X159500000Y-67191513D01*
X159592697Y-67295372D01*
X159592702Y-67295377D01*
X159595760Y-67298803D01*
X159801512Y-67469925D01*
X160030298Y-67608756D01*
X160034538Y-67610534D01*
X160034544Y-67610537D01*
X160084128Y-67631329D01*
X160277091Y-67712245D01*
X160536470Y-67778119D01*
X160653462Y-67789899D01*
X160755640Y-67800188D01*
X160755645Y-67800188D01*
X160758741Y-67800500D01*
X160917944Y-67800500D01*
X160920244Y-67800329D01*
X160920246Y-67800329D01*
X160947860Y-67798277D01*
X161116877Y-67785717D01*
X161121370Y-67784700D01*
X161121372Y-67784700D01*
X161373402Y-67727671D01*
X161373405Y-67727670D01*
X161377891Y-67726655D01*
X161537541Y-67664571D01*
X161623023Y-67631329D01*
X161623026Y-67631328D01*
X161627309Y-67629662D01*
X161631294Y-67627384D01*
X161631299Y-67627382D01*
X161855661Y-67499148D01*
X161855662Y-67499147D01*
X161859650Y-67496868D01*
X162069811Y-67331190D01*
X162097511Y-67301745D01*
X162250022Y-67139621D01*
X162250024Y-67139619D01*
X162253175Y-67136269D01*
X162405714Y-66916385D01*
X162524076Y-66676371D01*
X162605662Y-66421497D01*
X162648678Y-66157364D01*
X162652181Y-65889774D01*
X162616093Y-65624605D01*
X162541208Y-65367683D01*
X162429169Y-65124652D01*
X162402264Y-65083615D01*
X162284964Y-64904703D01*
X162284961Y-64904698D01*
X162282438Y-64900851D01*
X162198855Y-64807204D01*
X162107303Y-64704628D01*
X162107298Y-64704623D01*
X162104240Y-64701197D01*
X161898488Y-64530075D01*
X161669702Y-64391244D01*
X161665462Y-64389466D01*
X161665456Y-64389463D01*
X161511745Y-64325007D01*
X161422909Y-64287755D01*
X161163530Y-64221881D01*
X161046538Y-64210101D01*
X160944360Y-64199812D01*
X160944355Y-64199812D01*
X160941259Y-64199500D01*
X160782056Y-64199500D01*
X160779756Y-64199671D01*
X160779754Y-64199671D01*
X160777857Y-64199812D01*
X160583123Y-64214283D01*
X160578630Y-64215300D01*
X160578628Y-64215300D01*
X160326598Y-64272329D01*
X160326595Y-64272330D01*
X160322109Y-64273345D01*
X160162459Y-64335429D01*
X160076977Y-64368671D01*
X160076974Y-64368672D01*
X160072691Y-64370338D01*
X160068706Y-64372616D01*
X160068701Y-64372618D01*
X160031933Y-64393633D01*
X159840350Y-64503132D01*
X159630189Y-64668810D01*
X159627044Y-64672153D01*
X159627041Y-64672156D01*
X159596495Y-64704628D01*
X159500000Y-64807204D01*
X159500000Y-55504921D01*
X165500000Y-61504920D01*
G37*
%TD.AperFunction*%
%TA.AperFunction,Conductor*%
G36*
X165500000Y-58675079D02*
G01*
X162920698Y-56095777D01*
X159500000Y-52675080D01*
X159500000Y-46250500D01*
X165500000Y-46250500D01*
X165500000Y-58675079D01*
G37*
%TD.AperFunction*%
%TA.AperFunction,Conductor*%
G36*
X118950751Y-50563386D02*
G01*
X121978793Y-50574771D01*
X122045757Y-50594707D01*
X122091313Y-50647683D01*
X122102321Y-50699879D01*
X122054537Y-56041191D01*
X122034254Y-56108052D01*
X121981042Y-56153333D01*
X121930351Y-56164082D01*
X120582000Y-56162000D01*
X115656000Y-56162000D01*
X115588961Y-56142315D01*
X115543206Y-56089511D01*
X115532000Y-56038000D01*
X115532000Y-55862000D01*
X113006000Y-55862000D01*
X112938961Y-55842315D01*
X112893206Y-55789511D01*
X112882000Y-55738000D01*
X112882000Y-55386000D01*
X112901685Y-55318961D01*
X112954489Y-55273206D01*
X113006000Y-55262000D01*
X115532000Y-55262000D01*
X115532885Y-55261992D01*
X115532909Y-55261992D01*
X121165058Y-55212150D01*
X121165059Y-55212150D01*
X121182885Y-55211992D01*
X121182000Y-52762000D01*
X118706000Y-52762000D01*
X118638961Y-52742315D01*
X118593206Y-52689511D01*
X118582000Y-52638000D01*
X118582000Y-50686467D01*
X118601685Y-50619428D01*
X118654489Y-50573673D01*
X118706466Y-50562468D01*
X118950751Y-50563386D01*
G37*
%TD.AperFunction*%
M02*
