%TF.GenerationSoftware,KiCad,Pcbnew,(6.0.7-1)-1*%
%TF.CreationDate,2023-01-10T14:36:04-05:00*%
%TF.ProjectId,LiIonUtilityBoard,4c69496f-6e55-4746-996c-697479426f61,rev?*%
%TF.SameCoordinates,Original*%
%TF.FileFunction,Paste,Top*%
%TF.FilePolarity,Positive*%
%FSLAX46Y46*%
G04 Gerber Fmt 4.6, Leading zero omitted, Abs format (unit mm)*
G04 Created by KiCad (PCBNEW (6.0.7-1)-1) date 2023-01-10 14:36:04*
%MOMM*%
%LPD*%
G01*
G04 APERTURE LIST*
G04 Aperture macros list*
%AMRoundRect*
0 Rectangle with rounded corners*
0 $1 Rounding radius*
0 $2 $3 $4 $5 $6 $7 $8 $9 X,Y pos of 4 corners*
0 Add a 4 corners polygon primitive as box body*
4,1,4,$2,$3,$4,$5,$6,$7,$8,$9,$2,$3,0*
0 Add four circle primitives for the rounded corners*
1,1,$1+$1,$2,$3*
1,1,$1+$1,$4,$5*
1,1,$1+$1,$6,$7*
1,1,$1+$1,$8,$9*
0 Add four rect primitives between the rounded corners*
20,1,$1+$1,$2,$3,$4,$5,0*
20,1,$1+$1,$4,$5,$6,$7,0*
20,1,$1+$1,$6,$7,$8,$9,0*
20,1,$1+$1,$8,$9,$2,$3,0*%
G04 Aperture macros list end*
%ADD10C,0.010000*%
%ADD11RoundRect,0.250000X-0.550000X1.250000X-0.550000X-1.250000X0.550000X-1.250000X0.550000X1.250000X0*%
%ADD12RoundRect,0.218750X-0.218750X-0.256250X0.218750X-0.256250X0.218750X0.256250X-0.218750X0.256250X0*%
%ADD13R,0.580000X0.300000*%
%ADD14R,0.580000X0.250000*%
%ADD15R,0.350000X0.630000*%
%ADD16RoundRect,0.140000X0.140000X0.170000X-0.140000X0.170000X-0.140000X-0.170000X0.140000X-0.170000X0*%
%ADD17RoundRect,0.135000X-0.135000X-0.185000X0.135000X-0.185000X0.135000X0.185000X-0.135000X0.185000X0*%
%ADD18RoundRect,0.225000X0.250000X-0.225000X0.250000X0.225000X-0.250000X0.225000X-0.250000X-0.225000X0*%
%ADD19RoundRect,0.225000X-0.225000X-0.250000X0.225000X-0.250000X0.225000X0.250000X-0.225000X0.250000X0*%
%ADD20RoundRect,0.225000X-0.250000X0.225000X-0.250000X-0.225000X0.250000X-0.225000X0.250000X0.225000X0*%
%ADD21RoundRect,0.250000X0.375000X0.850000X-0.375000X0.850000X-0.375000X-0.850000X0.375000X-0.850000X0*%
%ADD22RoundRect,0.135000X0.135000X0.185000X-0.135000X0.185000X-0.135000X-0.185000X0.135000X-0.185000X0*%
%ADD23RoundRect,0.250000X-0.250000X-0.475000X0.250000X-0.475000X0.250000X0.475000X-0.250000X0.475000X0*%
%ADD24RoundRect,0.140000X-0.170000X0.140000X-0.170000X-0.140000X0.170000X-0.140000X0.170000X0.140000X0*%
%ADD25RoundRect,0.135000X0.185000X-0.135000X0.185000X0.135000X-0.185000X0.135000X-0.185000X-0.135000X0*%
%ADD26RoundRect,0.200000X-0.200000X-0.275000X0.200000X-0.275000X0.200000X0.275000X-0.200000X0.275000X0*%
%ADD27RoundRect,0.012800X-0.147200X0.332200X-0.147200X-0.332200X0.147200X-0.332200X0.147200X0.332200X0*%
%ADD28RoundRect,0.012800X0.147200X-0.332200X0.147200X0.332200X-0.147200X0.332200X-0.147200X-0.332200X0*%
G04 APERTURE END LIST*
G36*
X113782000Y-56849000D02*
G01*
X113782000Y-57362000D01*
X113582000Y-57362000D01*
X113582000Y-56737000D01*
X113670000Y-56737000D01*
X113782000Y-56849000D01*
G37*
D10*
X113782000Y-56849000D02*
X113782000Y-57362000D01*
X113582000Y-57362000D01*
X113582000Y-56737000D01*
X113670000Y-56737000D01*
X113782000Y-56849000D01*
G36*
X112892000Y-56688000D02*
G01*
X112898000Y-56688000D01*
X112908000Y-56690000D01*
X112923000Y-56696000D01*
X112927000Y-56698000D01*
X112932000Y-56700000D01*
X112936000Y-56703000D01*
X112941000Y-56706000D01*
X112945000Y-56709000D01*
X112949000Y-56713000D01*
X112953000Y-56716000D01*
X112956000Y-56720000D01*
X112960000Y-56724000D01*
X112963000Y-56728000D01*
X112966000Y-56733000D01*
X112969000Y-56737000D01*
X112971000Y-56742000D01*
X112973000Y-56746000D01*
X112979000Y-56761000D01*
X112981000Y-56771000D01*
X112981000Y-56777000D01*
X112982000Y-56782000D01*
X112982000Y-57362000D01*
X112782000Y-57362000D01*
X112782000Y-56782000D01*
X112783000Y-56777000D01*
X112783000Y-56771000D01*
X112785000Y-56761000D01*
X112791000Y-56746000D01*
X112793000Y-56742000D01*
X112795000Y-56737000D01*
X112798000Y-56733000D01*
X112801000Y-56728000D01*
X112804000Y-56724000D01*
X112808000Y-56720000D01*
X112811000Y-56716000D01*
X112815000Y-56713000D01*
X112819000Y-56709000D01*
X112823000Y-56706000D01*
X112828000Y-56703000D01*
X112832000Y-56700000D01*
X112837000Y-56698000D01*
X112841000Y-56696000D01*
X112856000Y-56690000D01*
X112866000Y-56688000D01*
X112872000Y-56688000D01*
X112877000Y-56687000D01*
X112887000Y-56687000D01*
X112892000Y-56688000D01*
G37*
X112892000Y-56688000D02*
X112898000Y-56688000D01*
X112908000Y-56690000D01*
X112923000Y-56696000D01*
X112927000Y-56698000D01*
X112932000Y-56700000D01*
X112936000Y-56703000D01*
X112941000Y-56706000D01*
X112945000Y-56709000D01*
X112949000Y-56713000D01*
X112953000Y-56716000D01*
X112956000Y-56720000D01*
X112960000Y-56724000D01*
X112963000Y-56728000D01*
X112966000Y-56733000D01*
X112969000Y-56737000D01*
X112971000Y-56742000D01*
X112973000Y-56746000D01*
X112979000Y-56761000D01*
X112981000Y-56771000D01*
X112981000Y-56777000D01*
X112982000Y-56782000D01*
X112982000Y-57362000D01*
X112782000Y-57362000D01*
X112782000Y-56782000D01*
X112783000Y-56777000D01*
X112783000Y-56771000D01*
X112785000Y-56761000D01*
X112791000Y-56746000D01*
X112793000Y-56742000D01*
X112795000Y-56737000D01*
X112798000Y-56733000D01*
X112801000Y-56728000D01*
X112804000Y-56724000D01*
X112808000Y-56720000D01*
X112811000Y-56716000D01*
X112815000Y-56713000D01*
X112819000Y-56709000D01*
X112823000Y-56706000D01*
X112828000Y-56703000D01*
X112832000Y-56700000D01*
X112837000Y-56698000D01*
X112841000Y-56696000D01*
X112856000Y-56690000D01*
X112866000Y-56688000D01*
X112872000Y-56688000D01*
X112877000Y-56687000D01*
X112887000Y-56687000D01*
X112892000Y-56688000D01*
G36*
X112492000Y-56038000D02*
G01*
X112498000Y-56038000D01*
X112508000Y-56040000D01*
X112523000Y-56046000D01*
X112527000Y-56048000D01*
X112532000Y-56050000D01*
X112536000Y-56053000D01*
X112541000Y-56056000D01*
X112545000Y-56059000D01*
X112549000Y-56063000D01*
X112553000Y-56066000D01*
X112556000Y-56070000D01*
X112560000Y-56074000D01*
X112563000Y-56078000D01*
X112566000Y-56083000D01*
X112569000Y-56087000D01*
X112571000Y-56092000D01*
X112573000Y-56096000D01*
X112579000Y-56111000D01*
X112581000Y-56121000D01*
X112581000Y-56127000D01*
X112582000Y-56132000D01*
X112582000Y-57362000D01*
X112382000Y-57362000D01*
X112382000Y-56132000D01*
X112383000Y-56127000D01*
X112383000Y-56121000D01*
X112385000Y-56111000D01*
X112391000Y-56096000D01*
X112393000Y-56092000D01*
X112395000Y-56087000D01*
X112398000Y-56083000D01*
X112401000Y-56078000D01*
X112404000Y-56074000D01*
X112408000Y-56070000D01*
X112411000Y-56066000D01*
X112415000Y-56063000D01*
X112419000Y-56059000D01*
X112423000Y-56056000D01*
X112428000Y-56053000D01*
X112432000Y-56050000D01*
X112437000Y-56048000D01*
X112441000Y-56046000D01*
X112456000Y-56040000D01*
X112466000Y-56038000D01*
X112472000Y-56038000D01*
X112477000Y-56037000D01*
X112487000Y-56037000D01*
X112492000Y-56038000D01*
G37*
X112492000Y-56038000D02*
X112498000Y-56038000D01*
X112508000Y-56040000D01*
X112523000Y-56046000D01*
X112527000Y-56048000D01*
X112532000Y-56050000D01*
X112536000Y-56053000D01*
X112541000Y-56056000D01*
X112545000Y-56059000D01*
X112549000Y-56063000D01*
X112553000Y-56066000D01*
X112556000Y-56070000D01*
X112560000Y-56074000D01*
X112563000Y-56078000D01*
X112566000Y-56083000D01*
X112569000Y-56087000D01*
X112571000Y-56092000D01*
X112573000Y-56096000D01*
X112579000Y-56111000D01*
X112581000Y-56121000D01*
X112581000Y-56127000D01*
X112582000Y-56132000D01*
X112582000Y-57362000D01*
X112382000Y-57362000D01*
X112382000Y-56132000D01*
X112383000Y-56127000D01*
X112383000Y-56121000D01*
X112385000Y-56111000D01*
X112391000Y-56096000D01*
X112393000Y-56092000D01*
X112395000Y-56087000D01*
X112398000Y-56083000D01*
X112401000Y-56078000D01*
X112404000Y-56074000D01*
X112408000Y-56070000D01*
X112411000Y-56066000D01*
X112415000Y-56063000D01*
X112419000Y-56059000D01*
X112423000Y-56056000D01*
X112428000Y-56053000D01*
X112432000Y-56050000D01*
X112437000Y-56048000D01*
X112441000Y-56046000D01*
X112456000Y-56040000D01*
X112466000Y-56038000D01*
X112472000Y-56038000D01*
X112477000Y-56037000D01*
X112487000Y-56037000D01*
X112492000Y-56038000D01*
G36*
X114482000Y-55862000D02*
G01*
X113002000Y-55862000D01*
X112997000Y-55861000D01*
X112991000Y-55861000D01*
X112981000Y-55859000D01*
X112966000Y-55853000D01*
X112962000Y-55851000D01*
X112957000Y-55849000D01*
X112953000Y-55846000D01*
X112948000Y-55843000D01*
X112944000Y-55840000D01*
X112940000Y-55836000D01*
X112936000Y-55833000D01*
X112933000Y-55829000D01*
X112929000Y-55825000D01*
X112926000Y-55821000D01*
X112923000Y-55816000D01*
X112920000Y-55812000D01*
X112918000Y-55807000D01*
X112916000Y-55803000D01*
X112910000Y-55788000D01*
X112908000Y-55778000D01*
X112908000Y-55772000D01*
X112907000Y-55767000D01*
X112907000Y-55707000D01*
X112908000Y-55702000D01*
X112908000Y-55696000D01*
X112910000Y-55686000D01*
X112916000Y-55671000D01*
X112918000Y-55667000D01*
X112920000Y-55662000D01*
X112923000Y-55658000D01*
X112926000Y-55653000D01*
X112929000Y-55649000D01*
X112933000Y-55645000D01*
X112936000Y-55641000D01*
X112940000Y-55638000D01*
X112944000Y-55634000D01*
X112948000Y-55631000D01*
X112953000Y-55628000D01*
X112957000Y-55625000D01*
X112962000Y-55623000D01*
X112966000Y-55621000D01*
X112981000Y-55615000D01*
X112991000Y-55613000D01*
X112997000Y-55613000D01*
X113002000Y-55612000D01*
X113832000Y-55612000D01*
X113832000Y-55357000D01*
X113833000Y-55352000D01*
X113833000Y-55346000D01*
X113835000Y-55336000D01*
X113841000Y-55321000D01*
X113843000Y-55317000D01*
X113845000Y-55312000D01*
X113848000Y-55308000D01*
X113851000Y-55303000D01*
X113854000Y-55299000D01*
X113858000Y-55295000D01*
X113861000Y-55291000D01*
X113865000Y-55288000D01*
X113869000Y-55284000D01*
X113873000Y-55281000D01*
X113878000Y-55278000D01*
X113882000Y-55275000D01*
X113887000Y-55273000D01*
X113891000Y-55271000D01*
X113906000Y-55265000D01*
X113916000Y-55263000D01*
X113922000Y-55263000D01*
X113927000Y-55262000D01*
X114482000Y-55262000D01*
X114482000Y-55862000D01*
G37*
X114482000Y-55862000D02*
X113002000Y-55862000D01*
X112997000Y-55861000D01*
X112991000Y-55861000D01*
X112981000Y-55859000D01*
X112966000Y-55853000D01*
X112962000Y-55851000D01*
X112957000Y-55849000D01*
X112953000Y-55846000D01*
X112948000Y-55843000D01*
X112944000Y-55840000D01*
X112940000Y-55836000D01*
X112936000Y-55833000D01*
X112933000Y-55829000D01*
X112929000Y-55825000D01*
X112926000Y-55821000D01*
X112923000Y-55816000D01*
X112920000Y-55812000D01*
X112918000Y-55807000D01*
X112916000Y-55803000D01*
X112910000Y-55788000D01*
X112908000Y-55778000D01*
X112908000Y-55772000D01*
X112907000Y-55767000D01*
X112907000Y-55707000D01*
X112908000Y-55702000D01*
X112908000Y-55696000D01*
X112910000Y-55686000D01*
X112916000Y-55671000D01*
X112918000Y-55667000D01*
X112920000Y-55662000D01*
X112923000Y-55658000D01*
X112926000Y-55653000D01*
X112929000Y-55649000D01*
X112933000Y-55645000D01*
X112936000Y-55641000D01*
X112940000Y-55638000D01*
X112944000Y-55634000D01*
X112948000Y-55631000D01*
X112953000Y-55628000D01*
X112957000Y-55625000D01*
X112962000Y-55623000D01*
X112966000Y-55621000D01*
X112981000Y-55615000D01*
X112991000Y-55613000D01*
X112997000Y-55613000D01*
X113002000Y-55612000D01*
X113832000Y-55612000D01*
X113832000Y-55357000D01*
X113833000Y-55352000D01*
X113833000Y-55346000D01*
X113835000Y-55336000D01*
X113841000Y-55321000D01*
X113843000Y-55317000D01*
X113845000Y-55312000D01*
X113848000Y-55308000D01*
X113851000Y-55303000D01*
X113854000Y-55299000D01*
X113858000Y-55295000D01*
X113861000Y-55291000D01*
X113865000Y-55288000D01*
X113869000Y-55284000D01*
X113873000Y-55281000D01*
X113878000Y-55278000D01*
X113882000Y-55275000D01*
X113887000Y-55273000D01*
X113891000Y-55271000D01*
X113906000Y-55265000D01*
X113916000Y-55263000D01*
X113922000Y-55263000D01*
X113927000Y-55262000D01*
X114482000Y-55262000D01*
X114482000Y-55862000D01*
G36*
X113382000Y-54742000D02*
G01*
X113381000Y-54747000D01*
X113381000Y-54753000D01*
X113379000Y-54763000D01*
X113373000Y-54778000D01*
X113371000Y-54782000D01*
X113369000Y-54787000D01*
X113366000Y-54791000D01*
X113363000Y-54796000D01*
X113360000Y-54800000D01*
X113356000Y-54804000D01*
X113353000Y-54808000D01*
X113349000Y-54811000D01*
X113345000Y-54815000D01*
X113341000Y-54818000D01*
X113336000Y-54821000D01*
X113332000Y-54824000D01*
X113327000Y-54826000D01*
X113323000Y-54828000D01*
X113308000Y-54834000D01*
X113298000Y-54836000D01*
X113292000Y-54836000D01*
X113287000Y-54837000D01*
X112877000Y-54837000D01*
X112872000Y-54836000D01*
X112866000Y-54836000D01*
X112856000Y-54834000D01*
X112841000Y-54828000D01*
X112837000Y-54826000D01*
X112832000Y-54824000D01*
X112828000Y-54821000D01*
X112823000Y-54818000D01*
X112819000Y-54815000D01*
X112815000Y-54811000D01*
X112811000Y-54808000D01*
X112808000Y-54804000D01*
X112804000Y-54800000D01*
X112801000Y-54796000D01*
X112798000Y-54791000D01*
X112795000Y-54787000D01*
X112793000Y-54782000D01*
X112791000Y-54778000D01*
X112785000Y-54763000D01*
X112783000Y-54753000D01*
X112783000Y-54747000D01*
X112782000Y-54742000D01*
X112782000Y-53762000D01*
X113382000Y-53762000D01*
X113382000Y-54742000D01*
G37*
X113382000Y-54742000D02*
X113381000Y-54747000D01*
X113381000Y-54753000D01*
X113379000Y-54763000D01*
X113373000Y-54778000D01*
X113371000Y-54782000D01*
X113369000Y-54787000D01*
X113366000Y-54791000D01*
X113363000Y-54796000D01*
X113360000Y-54800000D01*
X113356000Y-54804000D01*
X113353000Y-54808000D01*
X113349000Y-54811000D01*
X113345000Y-54815000D01*
X113341000Y-54818000D01*
X113336000Y-54821000D01*
X113332000Y-54824000D01*
X113327000Y-54826000D01*
X113323000Y-54828000D01*
X113308000Y-54834000D01*
X113298000Y-54836000D01*
X113292000Y-54836000D01*
X113287000Y-54837000D01*
X112877000Y-54837000D01*
X112872000Y-54836000D01*
X112866000Y-54836000D01*
X112856000Y-54834000D01*
X112841000Y-54828000D01*
X112837000Y-54826000D01*
X112832000Y-54824000D01*
X112828000Y-54821000D01*
X112823000Y-54818000D01*
X112819000Y-54815000D01*
X112815000Y-54811000D01*
X112811000Y-54808000D01*
X112808000Y-54804000D01*
X112804000Y-54800000D01*
X112801000Y-54796000D01*
X112798000Y-54791000D01*
X112795000Y-54787000D01*
X112793000Y-54782000D01*
X112791000Y-54778000D01*
X112785000Y-54763000D01*
X112783000Y-54753000D01*
X112783000Y-54747000D01*
X112782000Y-54742000D01*
X112782000Y-53762000D01*
X113382000Y-53762000D01*
X113382000Y-54742000D01*
G36*
X111507000Y-56550000D02*
G01*
X111395000Y-56662000D01*
X110882000Y-56662000D01*
X110882000Y-56462000D01*
X111507000Y-56462000D01*
X111507000Y-56550000D01*
G37*
X111507000Y-56550000D02*
X111395000Y-56662000D01*
X110882000Y-56662000D01*
X110882000Y-56462000D01*
X111507000Y-56462000D01*
X111507000Y-56550000D01*
G36*
X111507000Y-54574000D02*
G01*
X111507000Y-54662000D01*
X110882000Y-54662000D01*
X110882000Y-54462000D01*
X111395000Y-54462000D01*
X111507000Y-54574000D01*
G37*
X111507000Y-54574000D02*
X111507000Y-54662000D01*
X110882000Y-54662000D01*
X110882000Y-54462000D01*
X111395000Y-54462000D01*
X111507000Y-54574000D01*
G36*
X111467000Y-55263000D02*
G01*
X111473000Y-55263000D01*
X111483000Y-55265000D01*
X111498000Y-55271000D01*
X111502000Y-55273000D01*
X111507000Y-55275000D01*
X111511000Y-55278000D01*
X111516000Y-55281000D01*
X111520000Y-55284000D01*
X111524000Y-55288000D01*
X111528000Y-55291000D01*
X111531000Y-55295000D01*
X111535000Y-55299000D01*
X111538000Y-55303000D01*
X111541000Y-55308000D01*
X111544000Y-55312000D01*
X111546000Y-55317000D01*
X111548000Y-55321000D01*
X111554000Y-55336000D01*
X111556000Y-55346000D01*
X111556000Y-55352000D01*
X111557000Y-55357000D01*
X111557000Y-55367000D01*
X111556000Y-55372000D01*
X111556000Y-55378000D01*
X111554000Y-55388000D01*
X111548000Y-55403000D01*
X111546000Y-55407000D01*
X111544000Y-55412000D01*
X111541000Y-55416000D01*
X111538000Y-55421000D01*
X111535000Y-55425000D01*
X111531000Y-55429000D01*
X111528000Y-55433000D01*
X111524000Y-55436000D01*
X111520000Y-55440000D01*
X111516000Y-55443000D01*
X111511000Y-55446000D01*
X111507000Y-55449000D01*
X111502000Y-55451000D01*
X111498000Y-55453000D01*
X111483000Y-55459000D01*
X111473000Y-55461000D01*
X111467000Y-55461000D01*
X111462000Y-55462000D01*
X110882000Y-55462000D01*
X110882000Y-55262000D01*
X111462000Y-55262000D01*
X111467000Y-55263000D01*
G37*
X111467000Y-55263000D02*
X111473000Y-55263000D01*
X111483000Y-55265000D01*
X111498000Y-55271000D01*
X111502000Y-55273000D01*
X111507000Y-55275000D01*
X111511000Y-55278000D01*
X111516000Y-55281000D01*
X111520000Y-55284000D01*
X111524000Y-55288000D01*
X111528000Y-55291000D01*
X111531000Y-55295000D01*
X111535000Y-55299000D01*
X111538000Y-55303000D01*
X111541000Y-55308000D01*
X111544000Y-55312000D01*
X111546000Y-55317000D01*
X111548000Y-55321000D01*
X111554000Y-55336000D01*
X111556000Y-55346000D01*
X111556000Y-55352000D01*
X111557000Y-55357000D01*
X111557000Y-55367000D01*
X111556000Y-55372000D01*
X111556000Y-55378000D01*
X111554000Y-55388000D01*
X111548000Y-55403000D01*
X111546000Y-55407000D01*
X111544000Y-55412000D01*
X111541000Y-55416000D01*
X111538000Y-55421000D01*
X111535000Y-55425000D01*
X111531000Y-55429000D01*
X111528000Y-55433000D01*
X111524000Y-55436000D01*
X111520000Y-55440000D01*
X111516000Y-55443000D01*
X111511000Y-55446000D01*
X111507000Y-55449000D01*
X111502000Y-55451000D01*
X111498000Y-55453000D01*
X111483000Y-55459000D01*
X111473000Y-55461000D01*
X111467000Y-55461000D01*
X111462000Y-55462000D01*
X110882000Y-55462000D01*
X110882000Y-55262000D01*
X111462000Y-55262000D01*
X111467000Y-55263000D01*
G36*
X111467000Y-56063000D02*
G01*
X111473000Y-56063000D01*
X111483000Y-56065000D01*
X111498000Y-56071000D01*
X111502000Y-56073000D01*
X111507000Y-56075000D01*
X111511000Y-56078000D01*
X111516000Y-56081000D01*
X111520000Y-56084000D01*
X111524000Y-56088000D01*
X111528000Y-56091000D01*
X111531000Y-56095000D01*
X111535000Y-56099000D01*
X111538000Y-56103000D01*
X111541000Y-56108000D01*
X111544000Y-56112000D01*
X111546000Y-56117000D01*
X111548000Y-56121000D01*
X111554000Y-56136000D01*
X111556000Y-56146000D01*
X111556000Y-56152000D01*
X111557000Y-56157000D01*
X111557000Y-56167000D01*
X111556000Y-56172000D01*
X111556000Y-56178000D01*
X111554000Y-56188000D01*
X111548000Y-56203000D01*
X111546000Y-56207000D01*
X111544000Y-56212000D01*
X111541000Y-56216000D01*
X111538000Y-56221000D01*
X111535000Y-56225000D01*
X111531000Y-56229000D01*
X111528000Y-56233000D01*
X111524000Y-56236000D01*
X111520000Y-56240000D01*
X111516000Y-56243000D01*
X111511000Y-56246000D01*
X111507000Y-56249000D01*
X111502000Y-56251000D01*
X111498000Y-56253000D01*
X111483000Y-56259000D01*
X111473000Y-56261000D01*
X111467000Y-56261000D01*
X111462000Y-56262000D01*
X110882000Y-56262000D01*
X110882000Y-56062000D01*
X111462000Y-56062000D01*
X111467000Y-56063000D01*
G37*
X111467000Y-56063000D02*
X111473000Y-56063000D01*
X111483000Y-56065000D01*
X111498000Y-56071000D01*
X111502000Y-56073000D01*
X111507000Y-56075000D01*
X111511000Y-56078000D01*
X111516000Y-56081000D01*
X111520000Y-56084000D01*
X111524000Y-56088000D01*
X111528000Y-56091000D01*
X111531000Y-56095000D01*
X111535000Y-56099000D01*
X111538000Y-56103000D01*
X111541000Y-56108000D01*
X111544000Y-56112000D01*
X111546000Y-56117000D01*
X111548000Y-56121000D01*
X111554000Y-56136000D01*
X111556000Y-56146000D01*
X111556000Y-56152000D01*
X111557000Y-56157000D01*
X111557000Y-56167000D01*
X111556000Y-56172000D01*
X111556000Y-56178000D01*
X111554000Y-56188000D01*
X111548000Y-56203000D01*
X111546000Y-56207000D01*
X111544000Y-56212000D01*
X111541000Y-56216000D01*
X111538000Y-56221000D01*
X111535000Y-56225000D01*
X111531000Y-56229000D01*
X111528000Y-56233000D01*
X111524000Y-56236000D01*
X111520000Y-56240000D01*
X111516000Y-56243000D01*
X111511000Y-56246000D01*
X111507000Y-56249000D01*
X111502000Y-56251000D01*
X111498000Y-56253000D01*
X111483000Y-56259000D01*
X111473000Y-56261000D01*
X111467000Y-56261000D01*
X111462000Y-56262000D01*
X110882000Y-56262000D01*
X110882000Y-56062000D01*
X111462000Y-56062000D01*
X111467000Y-56063000D01*
G36*
X114482000Y-56662000D02*
G01*
X113994000Y-56662000D01*
X113832000Y-56500000D01*
X113832000Y-56312000D01*
X113002000Y-56312000D01*
X112997000Y-56311000D01*
X112991000Y-56311000D01*
X112981000Y-56309000D01*
X112966000Y-56303000D01*
X112962000Y-56301000D01*
X112957000Y-56299000D01*
X112953000Y-56296000D01*
X112948000Y-56293000D01*
X112944000Y-56290000D01*
X112940000Y-56286000D01*
X112936000Y-56283000D01*
X112933000Y-56279000D01*
X112929000Y-56275000D01*
X112926000Y-56271000D01*
X112923000Y-56266000D01*
X112920000Y-56262000D01*
X112918000Y-56257000D01*
X112916000Y-56253000D01*
X112910000Y-56238000D01*
X112908000Y-56228000D01*
X112908000Y-56222000D01*
X112907000Y-56217000D01*
X112907000Y-56157000D01*
X112908000Y-56152000D01*
X112908000Y-56146000D01*
X112910000Y-56136000D01*
X112916000Y-56121000D01*
X112918000Y-56117000D01*
X112920000Y-56112000D01*
X112923000Y-56108000D01*
X112926000Y-56103000D01*
X112929000Y-56099000D01*
X112933000Y-56095000D01*
X112936000Y-56091000D01*
X112940000Y-56088000D01*
X112944000Y-56084000D01*
X112948000Y-56081000D01*
X112953000Y-56078000D01*
X112957000Y-56075000D01*
X112962000Y-56073000D01*
X112966000Y-56071000D01*
X112981000Y-56065000D01*
X112991000Y-56063000D01*
X112997000Y-56063000D01*
X113002000Y-56062000D01*
X114482000Y-56062000D01*
X114482000Y-56662000D01*
G37*
X114482000Y-56662000D02*
X113994000Y-56662000D01*
X113832000Y-56500000D01*
X113832000Y-56312000D01*
X113002000Y-56312000D01*
X112997000Y-56311000D01*
X112991000Y-56311000D01*
X112981000Y-56309000D01*
X112966000Y-56303000D01*
X112962000Y-56301000D01*
X112957000Y-56299000D01*
X112953000Y-56296000D01*
X112948000Y-56293000D01*
X112944000Y-56290000D01*
X112940000Y-56286000D01*
X112936000Y-56283000D01*
X112933000Y-56279000D01*
X112929000Y-56275000D01*
X112926000Y-56271000D01*
X112923000Y-56266000D01*
X112920000Y-56262000D01*
X112918000Y-56257000D01*
X112916000Y-56253000D01*
X112910000Y-56238000D01*
X112908000Y-56228000D01*
X112908000Y-56222000D01*
X112907000Y-56217000D01*
X112907000Y-56157000D01*
X112908000Y-56152000D01*
X112908000Y-56146000D01*
X112910000Y-56136000D01*
X112916000Y-56121000D01*
X112918000Y-56117000D01*
X112920000Y-56112000D01*
X112923000Y-56108000D01*
X112926000Y-56103000D01*
X112929000Y-56099000D01*
X112933000Y-56095000D01*
X112936000Y-56091000D01*
X112940000Y-56088000D01*
X112944000Y-56084000D01*
X112948000Y-56081000D01*
X112953000Y-56078000D01*
X112957000Y-56075000D01*
X112962000Y-56073000D01*
X112966000Y-56071000D01*
X112981000Y-56065000D01*
X112991000Y-56063000D01*
X112997000Y-56063000D01*
X113002000Y-56062000D01*
X114482000Y-56062000D01*
X114482000Y-56662000D01*
G36*
X111467000Y-55663000D02*
G01*
X111473000Y-55663000D01*
X111483000Y-55665000D01*
X111498000Y-55671000D01*
X111502000Y-55673000D01*
X111507000Y-55675000D01*
X111511000Y-55678000D01*
X111516000Y-55681000D01*
X111520000Y-55684000D01*
X111524000Y-55688000D01*
X111528000Y-55691000D01*
X111531000Y-55695000D01*
X111535000Y-55699000D01*
X111538000Y-55703000D01*
X111541000Y-55708000D01*
X111544000Y-55712000D01*
X111546000Y-55717000D01*
X111548000Y-55721000D01*
X111554000Y-55736000D01*
X111556000Y-55746000D01*
X111556000Y-55752000D01*
X111557000Y-55757000D01*
X111557000Y-55767000D01*
X111556000Y-55772000D01*
X111556000Y-55778000D01*
X111554000Y-55788000D01*
X111548000Y-55803000D01*
X111546000Y-55807000D01*
X111544000Y-55812000D01*
X111541000Y-55816000D01*
X111538000Y-55821000D01*
X111535000Y-55825000D01*
X111531000Y-55829000D01*
X111528000Y-55833000D01*
X111524000Y-55836000D01*
X111520000Y-55840000D01*
X111516000Y-55843000D01*
X111511000Y-55846000D01*
X111507000Y-55849000D01*
X111502000Y-55851000D01*
X111498000Y-55853000D01*
X111483000Y-55859000D01*
X111473000Y-55861000D01*
X111467000Y-55861000D01*
X111462000Y-55862000D01*
X110882000Y-55862000D01*
X110882000Y-55662000D01*
X111462000Y-55662000D01*
X111467000Y-55663000D01*
G37*
X111467000Y-55663000D02*
X111473000Y-55663000D01*
X111483000Y-55665000D01*
X111498000Y-55671000D01*
X111502000Y-55673000D01*
X111507000Y-55675000D01*
X111511000Y-55678000D01*
X111516000Y-55681000D01*
X111520000Y-55684000D01*
X111524000Y-55688000D01*
X111528000Y-55691000D01*
X111531000Y-55695000D01*
X111535000Y-55699000D01*
X111538000Y-55703000D01*
X111541000Y-55708000D01*
X111544000Y-55712000D01*
X111546000Y-55717000D01*
X111548000Y-55721000D01*
X111554000Y-55736000D01*
X111556000Y-55746000D01*
X111556000Y-55752000D01*
X111557000Y-55757000D01*
X111557000Y-55767000D01*
X111556000Y-55772000D01*
X111556000Y-55778000D01*
X111554000Y-55788000D01*
X111548000Y-55803000D01*
X111546000Y-55807000D01*
X111544000Y-55812000D01*
X111541000Y-55816000D01*
X111538000Y-55821000D01*
X111535000Y-55825000D01*
X111531000Y-55829000D01*
X111528000Y-55833000D01*
X111524000Y-55836000D01*
X111520000Y-55840000D01*
X111516000Y-55843000D01*
X111511000Y-55846000D01*
X111507000Y-55849000D01*
X111502000Y-55851000D01*
X111498000Y-55853000D01*
X111483000Y-55859000D01*
X111473000Y-55861000D01*
X111467000Y-55861000D01*
X111462000Y-55862000D01*
X110882000Y-55862000D01*
X110882000Y-55662000D01*
X111462000Y-55662000D01*
X111467000Y-55663000D01*
G36*
X112182000Y-54742000D02*
G01*
X112181000Y-54747000D01*
X112181000Y-54753000D01*
X112179000Y-54763000D01*
X112173000Y-54778000D01*
X112171000Y-54782000D01*
X112169000Y-54787000D01*
X112166000Y-54791000D01*
X112163000Y-54796000D01*
X112160000Y-54800000D01*
X112156000Y-54804000D01*
X112153000Y-54808000D01*
X112149000Y-54811000D01*
X112145000Y-54815000D01*
X112141000Y-54818000D01*
X112136000Y-54821000D01*
X112132000Y-54824000D01*
X112127000Y-54826000D01*
X112123000Y-54828000D01*
X112108000Y-54834000D01*
X112098000Y-54836000D01*
X112092000Y-54836000D01*
X112087000Y-54837000D01*
X112027000Y-54837000D01*
X112022000Y-54836000D01*
X112016000Y-54836000D01*
X112006000Y-54834000D01*
X111991000Y-54828000D01*
X111987000Y-54826000D01*
X111982000Y-54824000D01*
X111978000Y-54821000D01*
X111973000Y-54818000D01*
X111969000Y-54815000D01*
X111965000Y-54811000D01*
X111961000Y-54808000D01*
X111958000Y-54804000D01*
X111954000Y-54800000D01*
X111951000Y-54796000D01*
X111948000Y-54791000D01*
X111945000Y-54787000D01*
X111943000Y-54782000D01*
X111941000Y-54778000D01*
X111935000Y-54763000D01*
X111933000Y-54753000D01*
X111933000Y-54747000D01*
X111932000Y-54742000D01*
X111932000Y-54362000D01*
X111694000Y-54362000D01*
X111582000Y-54250000D01*
X111582000Y-53762000D01*
X112182000Y-53762000D01*
X112182000Y-54742000D01*
G37*
X112182000Y-54742000D02*
X112181000Y-54747000D01*
X112181000Y-54753000D01*
X112179000Y-54763000D01*
X112173000Y-54778000D01*
X112171000Y-54782000D01*
X112169000Y-54787000D01*
X112166000Y-54791000D01*
X112163000Y-54796000D01*
X112160000Y-54800000D01*
X112156000Y-54804000D01*
X112153000Y-54808000D01*
X112149000Y-54811000D01*
X112145000Y-54815000D01*
X112141000Y-54818000D01*
X112136000Y-54821000D01*
X112132000Y-54824000D01*
X112127000Y-54826000D01*
X112123000Y-54828000D01*
X112108000Y-54834000D01*
X112098000Y-54836000D01*
X112092000Y-54836000D01*
X112087000Y-54837000D01*
X112027000Y-54837000D01*
X112022000Y-54836000D01*
X112016000Y-54836000D01*
X112006000Y-54834000D01*
X111991000Y-54828000D01*
X111987000Y-54826000D01*
X111982000Y-54824000D01*
X111978000Y-54821000D01*
X111973000Y-54818000D01*
X111969000Y-54815000D01*
X111965000Y-54811000D01*
X111961000Y-54808000D01*
X111958000Y-54804000D01*
X111954000Y-54800000D01*
X111951000Y-54796000D01*
X111948000Y-54791000D01*
X111945000Y-54787000D01*
X111943000Y-54782000D01*
X111941000Y-54778000D01*
X111935000Y-54763000D01*
X111933000Y-54753000D01*
X111933000Y-54747000D01*
X111932000Y-54742000D01*
X111932000Y-54362000D01*
X111694000Y-54362000D01*
X111582000Y-54250000D01*
X111582000Y-53762000D01*
X112182000Y-53762000D01*
X112182000Y-54742000D01*
G36*
X111467000Y-54863000D02*
G01*
X111473000Y-54863000D01*
X111483000Y-54865000D01*
X111498000Y-54871000D01*
X111502000Y-54873000D01*
X111507000Y-54875000D01*
X111511000Y-54878000D01*
X111516000Y-54881000D01*
X111520000Y-54884000D01*
X111524000Y-54888000D01*
X111528000Y-54891000D01*
X111531000Y-54895000D01*
X111535000Y-54899000D01*
X111538000Y-54903000D01*
X111541000Y-54908000D01*
X111544000Y-54912000D01*
X111546000Y-54917000D01*
X111548000Y-54921000D01*
X111554000Y-54936000D01*
X111556000Y-54946000D01*
X111556000Y-54952000D01*
X111557000Y-54957000D01*
X111557000Y-54967000D01*
X111556000Y-54972000D01*
X111556000Y-54978000D01*
X111554000Y-54988000D01*
X111548000Y-55003000D01*
X111546000Y-55007000D01*
X111544000Y-55012000D01*
X111541000Y-55016000D01*
X111538000Y-55021000D01*
X111535000Y-55025000D01*
X111531000Y-55029000D01*
X111528000Y-55033000D01*
X111524000Y-55036000D01*
X111520000Y-55040000D01*
X111516000Y-55043000D01*
X111511000Y-55046000D01*
X111507000Y-55049000D01*
X111502000Y-55051000D01*
X111498000Y-55053000D01*
X111483000Y-55059000D01*
X111473000Y-55061000D01*
X111467000Y-55061000D01*
X111462000Y-55062000D01*
X110882000Y-55062000D01*
X110882000Y-54862000D01*
X111462000Y-54862000D01*
X111467000Y-54863000D01*
G37*
X111467000Y-54863000D02*
X111473000Y-54863000D01*
X111483000Y-54865000D01*
X111498000Y-54871000D01*
X111502000Y-54873000D01*
X111507000Y-54875000D01*
X111511000Y-54878000D01*
X111516000Y-54881000D01*
X111520000Y-54884000D01*
X111524000Y-54888000D01*
X111528000Y-54891000D01*
X111531000Y-54895000D01*
X111535000Y-54899000D01*
X111538000Y-54903000D01*
X111541000Y-54908000D01*
X111544000Y-54912000D01*
X111546000Y-54917000D01*
X111548000Y-54921000D01*
X111554000Y-54936000D01*
X111556000Y-54946000D01*
X111556000Y-54952000D01*
X111557000Y-54957000D01*
X111557000Y-54967000D01*
X111556000Y-54972000D01*
X111556000Y-54978000D01*
X111554000Y-54988000D01*
X111548000Y-55003000D01*
X111546000Y-55007000D01*
X111544000Y-55012000D01*
X111541000Y-55016000D01*
X111538000Y-55021000D01*
X111535000Y-55025000D01*
X111531000Y-55029000D01*
X111528000Y-55033000D01*
X111524000Y-55036000D01*
X111520000Y-55040000D01*
X111516000Y-55043000D01*
X111511000Y-55046000D01*
X111507000Y-55049000D01*
X111502000Y-55051000D01*
X111498000Y-55053000D01*
X111483000Y-55059000D01*
X111473000Y-55061000D01*
X111467000Y-55061000D01*
X111462000Y-55062000D01*
X110882000Y-55062000D01*
X110882000Y-54862000D01*
X111462000Y-54862000D01*
X111467000Y-54863000D01*
G36*
X112092000Y-56688000D02*
G01*
X112098000Y-56688000D01*
X112108000Y-56690000D01*
X112123000Y-56696000D01*
X112127000Y-56698000D01*
X112132000Y-56700000D01*
X112136000Y-56703000D01*
X112141000Y-56706000D01*
X112145000Y-56709000D01*
X112149000Y-56713000D01*
X112153000Y-56716000D01*
X112156000Y-56720000D01*
X112160000Y-56724000D01*
X112163000Y-56728000D01*
X112166000Y-56733000D01*
X112169000Y-56737000D01*
X112171000Y-56742000D01*
X112173000Y-56746000D01*
X112179000Y-56761000D01*
X112181000Y-56771000D01*
X112181000Y-56777000D01*
X112182000Y-56782000D01*
X112182000Y-57362000D01*
X111982000Y-57362000D01*
X111982000Y-56782000D01*
X111983000Y-56777000D01*
X111983000Y-56771000D01*
X111985000Y-56761000D01*
X111991000Y-56746000D01*
X111993000Y-56742000D01*
X111995000Y-56737000D01*
X111998000Y-56733000D01*
X112001000Y-56728000D01*
X112004000Y-56724000D01*
X112008000Y-56720000D01*
X112011000Y-56716000D01*
X112015000Y-56713000D01*
X112019000Y-56709000D01*
X112023000Y-56706000D01*
X112028000Y-56703000D01*
X112032000Y-56700000D01*
X112037000Y-56698000D01*
X112041000Y-56696000D01*
X112056000Y-56690000D01*
X112066000Y-56688000D01*
X112072000Y-56688000D01*
X112077000Y-56687000D01*
X112087000Y-56687000D01*
X112092000Y-56688000D01*
G37*
X112092000Y-56688000D02*
X112098000Y-56688000D01*
X112108000Y-56690000D01*
X112123000Y-56696000D01*
X112127000Y-56698000D01*
X112132000Y-56700000D01*
X112136000Y-56703000D01*
X112141000Y-56706000D01*
X112145000Y-56709000D01*
X112149000Y-56713000D01*
X112153000Y-56716000D01*
X112156000Y-56720000D01*
X112160000Y-56724000D01*
X112163000Y-56728000D01*
X112166000Y-56733000D01*
X112169000Y-56737000D01*
X112171000Y-56742000D01*
X112173000Y-56746000D01*
X112179000Y-56761000D01*
X112181000Y-56771000D01*
X112181000Y-56777000D01*
X112182000Y-56782000D01*
X112182000Y-57362000D01*
X111982000Y-57362000D01*
X111982000Y-56782000D01*
X111983000Y-56777000D01*
X111983000Y-56771000D01*
X111985000Y-56761000D01*
X111991000Y-56746000D01*
X111993000Y-56742000D01*
X111995000Y-56737000D01*
X111998000Y-56733000D01*
X112001000Y-56728000D01*
X112004000Y-56724000D01*
X112008000Y-56720000D01*
X112011000Y-56716000D01*
X112015000Y-56713000D01*
X112019000Y-56709000D01*
X112023000Y-56706000D01*
X112028000Y-56703000D01*
X112032000Y-56700000D01*
X112037000Y-56698000D01*
X112041000Y-56696000D01*
X112056000Y-56690000D01*
X112066000Y-56688000D01*
X112072000Y-56688000D01*
X112077000Y-56687000D01*
X112087000Y-56687000D01*
X112092000Y-56688000D01*
G36*
X111782000Y-57362000D02*
G01*
X111582000Y-57362000D01*
X111582000Y-56849000D01*
X111694000Y-56737000D01*
X111782000Y-56737000D01*
X111782000Y-57362000D01*
G37*
X111782000Y-57362000D02*
X111582000Y-57362000D01*
X111582000Y-56849000D01*
X111694000Y-56737000D01*
X111782000Y-56737000D01*
X111782000Y-57362000D01*
G36*
X113782000Y-54212000D02*
G01*
X114032000Y-54462000D01*
X114482000Y-54462000D01*
X114482000Y-54662000D01*
X113677000Y-54662000D01*
X113672000Y-54661000D01*
X113666000Y-54661000D01*
X113656000Y-54659000D01*
X113641000Y-54653000D01*
X113637000Y-54651000D01*
X113632000Y-54649000D01*
X113628000Y-54646000D01*
X113623000Y-54643000D01*
X113619000Y-54640000D01*
X113615000Y-54636000D01*
X113611000Y-54633000D01*
X113608000Y-54629000D01*
X113604000Y-54625000D01*
X113601000Y-54621000D01*
X113598000Y-54616000D01*
X113595000Y-54612000D01*
X113593000Y-54607000D01*
X113591000Y-54603000D01*
X113585000Y-54588000D01*
X113583000Y-54578000D01*
X113583000Y-54572000D01*
X113582000Y-54567000D01*
X113582000Y-53762000D01*
X113782000Y-53762000D01*
X113782000Y-54212000D01*
G37*
X113782000Y-54212000D02*
X114032000Y-54462000D01*
X114482000Y-54462000D01*
X114482000Y-54662000D01*
X113677000Y-54662000D01*
X113672000Y-54661000D01*
X113666000Y-54661000D01*
X113656000Y-54659000D01*
X113641000Y-54653000D01*
X113637000Y-54651000D01*
X113632000Y-54649000D01*
X113628000Y-54646000D01*
X113623000Y-54643000D01*
X113619000Y-54640000D01*
X113615000Y-54636000D01*
X113611000Y-54633000D01*
X113608000Y-54629000D01*
X113604000Y-54625000D01*
X113601000Y-54621000D01*
X113598000Y-54616000D01*
X113595000Y-54612000D01*
X113593000Y-54607000D01*
X113591000Y-54603000D01*
X113585000Y-54588000D01*
X113583000Y-54578000D01*
X113583000Y-54572000D01*
X113582000Y-54567000D01*
X113582000Y-53762000D01*
X113782000Y-53762000D01*
X113782000Y-54212000D01*
G36*
X113292000Y-56688000D02*
G01*
X113298000Y-56688000D01*
X113308000Y-56690000D01*
X113323000Y-56696000D01*
X113327000Y-56698000D01*
X113332000Y-56700000D01*
X113336000Y-56703000D01*
X113341000Y-56706000D01*
X113345000Y-56709000D01*
X113349000Y-56713000D01*
X113353000Y-56716000D01*
X113356000Y-56720000D01*
X113360000Y-56724000D01*
X113363000Y-56728000D01*
X113366000Y-56733000D01*
X113369000Y-56737000D01*
X113371000Y-56742000D01*
X113373000Y-56746000D01*
X113379000Y-56761000D01*
X113381000Y-56771000D01*
X113381000Y-56777000D01*
X113382000Y-56782000D01*
X113382000Y-57362000D01*
X113182000Y-57362000D01*
X113182000Y-56782000D01*
X113183000Y-56777000D01*
X113183000Y-56771000D01*
X113185000Y-56761000D01*
X113191000Y-56746000D01*
X113193000Y-56742000D01*
X113195000Y-56737000D01*
X113198000Y-56733000D01*
X113201000Y-56728000D01*
X113204000Y-56724000D01*
X113208000Y-56720000D01*
X113211000Y-56716000D01*
X113215000Y-56713000D01*
X113219000Y-56709000D01*
X113223000Y-56706000D01*
X113228000Y-56703000D01*
X113232000Y-56700000D01*
X113237000Y-56698000D01*
X113241000Y-56696000D01*
X113256000Y-56690000D01*
X113266000Y-56688000D01*
X113272000Y-56688000D01*
X113277000Y-56687000D01*
X113287000Y-56687000D01*
X113292000Y-56688000D01*
G37*
X113292000Y-56688000D02*
X113298000Y-56688000D01*
X113308000Y-56690000D01*
X113323000Y-56696000D01*
X113327000Y-56698000D01*
X113332000Y-56700000D01*
X113336000Y-56703000D01*
X113341000Y-56706000D01*
X113345000Y-56709000D01*
X113349000Y-56713000D01*
X113353000Y-56716000D01*
X113356000Y-56720000D01*
X113360000Y-56724000D01*
X113363000Y-56728000D01*
X113366000Y-56733000D01*
X113369000Y-56737000D01*
X113371000Y-56742000D01*
X113373000Y-56746000D01*
X113379000Y-56761000D01*
X113381000Y-56771000D01*
X113381000Y-56777000D01*
X113382000Y-56782000D01*
X113382000Y-57362000D01*
X113182000Y-57362000D01*
X113182000Y-56782000D01*
X113183000Y-56777000D01*
X113183000Y-56771000D01*
X113185000Y-56761000D01*
X113191000Y-56746000D01*
X113193000Y-56742000D01*
X113195000Y-56737000D01*
X113198000Y-56733000D01*
X113201000Y-56728000D01*
X113204000Y-56724000D01*
X113208000Y-56720000D01*
X113211000Y-56716000D01*
X113215000Y-56713000D01*
X113219000Y-56709000D01*
X113223000Y-56706000D01*
X113228000Y-56703000D01*
X113232000Y-56700000D01*
X113237000Y-56698000D01*
X113241000Y-56696000D01*
X113256000Y-56690000D01*
X113266000Y-56688000D01*
X113272000Y-56688000D01*
X113277000Y-56687000D01*
X113287000Y-56687000D01*
X113292000Y-56688000D01*
G36*
X114482000Y-55062000D02*
G01*
X113902000Y-55062000D01*
X113897000Y-55061000D01*
X113891000Y-55061000D01*
X113881000Y-55059000D01*
X113866000Y-55053000D01*
X113862000Y-55051000D01*
X113857000Y-55049000D01*
X113853000Y-55046000D01*
X113848000Y-55043000D01*
X113844000Y-55040000D01*
X113840000Y-55036000D01*
X113836000Y-55033000D01*
X113833000Y-55029000D01*
X113829000Y-55025000D01*
X113826000Y-55021000D01*
X113823000Y-55016000D01*
X113820000Y-55012000D01*
X113818000Y-55007000D01*
X113816000Y-55003000D01*
X113810000Y-54988000D01*
X113808000Y-54978000D01*
X113808000Y-54972000D01*
X113807000Y-54967000D01*
X113807000Y-54957000D01*
X113808000Y-54952000D01*
X113808000Y-54946000D01*
X113810000Y-54936000D01*
X113816000Y-54921000D01*
X113818000Y-54917000D01*
X113820000Y-54912000D01*
X113823000Y-54908000D01*
X113826000Y-54903000D01*
X113829000Y-54899000D01*
X113833000Y-54895000D01*
X113836000Y-54891000D01*
X113840000Y-54888000D01*
X113844000Y-54884000D01*
X113848000Y-54881000D01*
X113853000Y-54878000D01*
X113857000Y-54875000D01*
X113862000Y-54873000D01*
X113866000Y-54871000D01*
X113881000Y-54865000D01*
X113891000Y-54863000D01*
X113897000Y-54863000D01*
X113902000Y-54862000D01*
X114482000Y-54862000D01*
X114482000Y-55062000D01*
G37*
X114482000Y-55062000D02*
X113902000Y-55062000D01*
X113897000Y-55061000D01*
X113891000Y-55061000D01*
X113881000Y-55059000D01*
X113866000Y-55053000D01*
X113862000Y-55051000D01*
X113857000Y-55049000D01*
X113853000Y-55046000D01*
X113848000Y-55043000D01*
X113844000Y-55040000D01*
X113840000Y-55036000D01*
X113836000Y-55033000D01*
X113833000Y-55029000D01*
X113829000Y-55025000D01*
X113826000Y-55021000D01*
X113823000Y-55016000D01*
X113820000Y-55012000D01*
X113818000Y-55007000D01*
X113816000Y-55003000D01*
X113810000Y-54988000D01*
X113808000Y-54978000D01*
X113808000Y-54972000D01*
X113807000Y-54967000D01*
X113807000Y-54957000D01*
X113808000Y-54952000D01*
X113808000Y-54946000D01*
X113810000Y-54936000D01*
X113816000Y-54921000D01*
X113818000Y-54917000D01*
X113820000Y-54912000D01*
X113823000Y-54908000D01*
X113826000Y-54903000D01*
X113829000Y-54899000D01*
X113833000Y-54895000D01*
X113836000Y-54891000D01*
X113840000Y-54888000D01*
X113844000Y-54884000D01*
X113848000Y-54881000D01*
X113853000Y-54878000D01*
X113857000Y-54875000D01*
X113862000Y-54873000D01*
X113866000Y-54871000D01*
X113881000Y-54865000D01*
X113891000Y-54863000D01*
X113897000Y-54863000D01*
X113902000Y-54862000D01*
X114482000Y-54862000D01*
X114482000Y-55062000D01*
G36*
X112582000Y-54742000D02*
G01*
X112581000Y-54747000D01*
X112581000Y-54753000D01*
X112579000Y-54763000D01*
X112573000Y-54778000D01*
X112571000Y-54782000D01*
X112569000Y-54787000D01*
X112566000Y-54791000D01*
X112563000Y-54796000D01*
X112560000Y-54800000D01*
X112556000Y-54804000D01*
X112553000Y-54808000D01*
X112549000Y-54811000D01*
X112545000Y-54815000D01*
X112541000Y-54818000D01*
X112536000Y-54821000D01*
X112532000Y-54824000D01*
X112527000Y-54826000D01*
X112523000Y-54828000D01*
X112508000Y-54834000D01*
X112498000Y-54836000D01*
X112492000Y-54836000D01*
X112487000Y-54837000D01*
X112477000Y-54837000D01*
X112472000Y-54836000D01*
X112466000Y-54836000D01*
X112456000Y-54834000D01*
X112441000Y-54828000D01*
X112437000Y-54826000D01*
X112432000Y-54824000D01*
X112428000Y-54821000D01*
X112423000Y-54818000D01*
X112419000Y-54815000D01*
X112415000Y-54811000D01*
X112411000Y-54808000D01*
X112408000Y-54804000D01*
X112404000Y-54800000D01*
X112401000Y-54796000D01*
X112398000Y-54791000D01*
X112395000Y-54787000D01*
X112393000Y-54782000D01*
X112391000Y-54778000D01*
X112385000Y-54763000D01*
X112383000Y-54753000D01*
X112383000Y-54747000D01*
X112382000Y-54742000D01*
X112382000Y-53762000D01*
X112582000Y-53762000D01*
X112582000Y-54742000D01*
G37*
X112582000Y-54742000D02*
X112581000Y-54747000D01*
X112581000Y-54753000D01*
X112579000Y-54763000D01*
X112573000Y-54778000D01*
X112571000Y-54782000D01*
X112569000Y-54787000D01*
X112566000Y-54791000D01*
X112563000Y-54796000D01*
X112560000Y-54800000D01*
X112556000Y-54804000D01*
X112553000Y-54808000D01*
X112549000Y-54811000D01*
X112545000Y-54815000D01*
X112541000Y-54818000D01*
X112536000Y-54821000D01*
X112532000Y-54824000D01*
X112527000Y-54826000D01*
X112523000Y-54828000D01*
X112508000Y-54834000D01*
X112498000Y-54836000D01*
X112492000Y-54836000D01*
X112487000Y-54837000D01*
X112477000Y-54837000D01*
X112472000Y-54836000D01*
X112466000Y-54836000D01*
X112456000Y-54834000D01*
X112441000Y-54828000D01*
X112437000Y-54826000D01*
X112432000Y-54824000D01*
X112428000Y-54821000D01*
X112423000Y-54818000D01*
X112419000Y-54815000D01*
X112415000Y-54811000D01*
X112411000Y-54808000D01*
X112408000Y-54804000D01*
X112404000Y-54800000D01*
X112401000Y-54796000D01*
X112398000Y-54791000D01*
X112395000Y-54787000D01*
X112393000Y-54782000D01*
X112391000Y-54778000D01*
X112385000Y-54763000D01*
X112383000Y-54753000D01*
X112383000Y-54747000D01*
X112382000Y-54742000D01*
X112382000Y-53762000D01*
X112582000Y-53762000D01*
X112582000Y-54742000D01*
G36*
X115622000Y-66274000D02*
G01*
X115198000Y-66274000D01*
X115198000Y-65642000D01*
X115622000Y-65642000D01*
X115622000Y-66274000D01*
G37*
X115622000Y-66274000D02*
X115198000Y-66274000D01*
X115198000Y-65642000D01*
X115622000Y-65642000D01*
X115622000Y-66274000D01*
G36*
X114642000Y-66274000D02*
G01*
X114218000Y-66274000D01*
X114218000Y-65642000D01*
X114642000Y-65642000D01*
X114642000Y-66274000D01*
G37*
X114642000Y-66274000D02*
X114218000Y-66274000D01*
X114218000Y-65642000D01*
X114642000Y-65642000D01*
X114642000Y-66274000D01*
D11*
X168200000Y-63800000D03*
X168200000Y-68200000D03*
D12*
X101574500Y-50038000D03*
X103149500Y-50038000D03*
D13*
X162433000Y-72325000D03*
D14*
X162433000Y-72825000D03*
D13*
X162433000Y-73325000D03*
D15*
X163068000Y-73260000D03*
D13*
X163703000Y-73325000D03*
D14*
X163703000Y-72825000D03*
D13*
X163703000Y-72325000D03*
D15*
X163068000Y-72390000D03*
D16*
X114780000Y-60452000D03*
X113820000Y-60452000D03*
D17*
X107186000Y-54864000D03*
X108206000Y-54864000D03*
D18*
X118322000Y-55637000D03*
X118322000Y-54087000D03*
D19*
X112511000Y-48514000D03*
X114061000Y-48514000D03*
D17*
X107186000Y-53594000D03*
X108206000Y-53594000D03*
D20*
X116622000Y-57137000D03*
X116622000Y-58687000D03*
D18*
X116622000Y-55637000D03*
X116622000Y-54087000D03*
D21*
X119207000Y-51662000D03*
X117057000Y-51662000D03*
D22*
X162562000Y-70104000D03*
X161542000Y-70104000D03*
D23*
X112336000Y-50546000D03*
X114236000Y-50546000D03*
D24*
X120582000Y-53582000D03*
X120582000Y-54542000D03*
D22*
X114810000Y-58928000D03*
X113790000Y-58928000D03*
D25*
X160274000Y-72159000D03*
X160274000Y-71139000D03*
D22*
X124970000Y-77978000D03*
X123950000Y-77978000D03*
D17*
X110996000Y-80264000D03*
X112016000Y-80264000D03*
D22*
X157990000Y-72644000D03*
X156970000Y-72644000D03*
D24*
X160274000Y-73455000D03*
X160274000Y-74415000D03*
D22*
X114810000Y-61722000D03*
X113790000Y-61722000D03*
D12*
X101574500Y-48006000D03*
X103149500Y-48006000D03*
D22*
X119890000Y-77978000D03*
X118870000Y-77978000D03*
D24*
X110492000Y-50038000D03*
X110492000Y-50998000D03*
D25*
X114554000Y-76710000D03*
X114554000Y-75690000D03*
D26*
X161989000Y-75713000D03*
X163639000Y-75713000D03*
D24*
X109982000Y-52860000D03*
X109982000Y-53820000D03*
D27*
X115570000Y-64938000D03*
X114920000Y-64938000D03*
X114270000Y-64938000D03*
D28*
X114270000Y-66978000D03*
X114920000Y-66978000D03*
X115570000Y-66978000D03*
M02*
