M48
; DRILL file {KiCad (6.0.7-1)-1} date Tuesday, January 10, 2023 at 02:36:55 PM
; FORMAT={-:-/ absolute / metric / decimal}
; #@! TF.CreationDate,2023-01-10T14:36:55-05:00
; #@! TF.GenerationSoftware,Kicad,Pcbnew,(6.0.7-1)-1
; #@! TF.FileFunction,Plated,1,2,PTH
FMAT,2
METRIC
; #@! TA.AperFunction,Plated,PTH,ViaDrill
T1C0.300
; #@! TA.AperFunction,Plated,PTH,ViaDrill
T2C0.400
; #@! TA.AperFunction,Plated,PTH,ComponentDrill
T3C0.400
; #@! TA.AperFunction,Plated,PTH,ComponentDrill
T4C0.600
; #@! TA.AperFunction,Plated,PTH,ComponentDrill
T5C1.000
; #@! TA.AperFunction,Plated,PTH,ComponentDrill
T6C1.300
; #@! TA.AperFunction,Plated,PTH,ComponentDrill
T7C1.800
%
G90
G05
T1
X89.154Y-72.136
X96.8Y-64.05
X100.584Y-48.006
X100.584Y-50.038
X106.426Y-53.594
X106.426Y-54.61
X107.442Y-78.232
X108.966Y-52.832
X110.49Y-49.276
X113.03Y-80.264
X113.082Y-52.812
X113.282Y-51.8
X113.792Y-59.69
X114.3Y-57.912
X114.554Y-74.168
X115.2Y-51.8
X115.316Y-57.912
X115.6Y-59.8
X115.6Y-60.8
X115.6Y-61.8
X116.182Y-51.662
X116.332Y-63.246
X116.6Y-59.8
X116.6Y-60.8
X116.6Y-61.8
X117.094Y-66.802
X117.348Y-62.484
X117.6Y-59.8
X117.6Y-60.8
X118.872Y-68.072
X119.636Y-53.594
X119.636Y-54.61
X155.702Y-72.644
X159.004Y-72.644
X163.068Y-71.374
X163.322Y-70.358
X164.592Y-72.644
X164.592Y-73.681
X164.6Y-75.713
X165.4Y-75.713
X166.116Y-70.104
X166.2Y-75.713
T2
X87.0Y-47.0
X87.0Y-49.75
X87.0Y-52.5
X87.0Y-55.25
X87.0Y-58.0
X87.0Y-74.4
X87.0Y-77.15
X87.0Y-79.9
X87.0Y-82.65
X90.0Y-47.0
X90.0Y-49.75
X90.0Y-52.5
X90.0Y-55.25
X90.0Y-58.0
X90.0Y-74.4
X90.0Y-77.15
X90.0Y-79.9
X90.0Y-82.65
X93.0Y-47.0
X93.0Y-49.75
X93.0Y-52.5
X93.0Y-55.25
X93.0Y-58.0
X97.2Y-84.8
X100.2Y-84.8
X103.2Y-84.8
X106.2Y-84.8
X109.2Y-84.8
X112.071Y-55.612
X112.2Y-84.8
X114.4Y-52.8
X115.2Y-84.8
X115.4Y-48.6
X115.4Y-49.6
X115.4Y-50.6
X115.4Y-52.8
X118.2Y-84.8
X121.2Y-84.8
X123.6Y-47.0
X123.6Y-50.0
X123.6Y-53.4
X123.6Y-56.15
X123.6Y-58.9
X123.6Y-61.65
X123.6Y-64.4
X123.6Y-67.15
X123.6Y-73.8
X123.6Y-76.55
X123.6Y-82.05
X124.2Y-84.8
X126.6Y-47.0
X126.6Y-50.0
X126.6Y-53.4
X126.6Y-56.15
X126.6Y-58.9
X126.6Y-61.65
X126.6Y-64.4
X126.6Y-67.15
X126.6Y-73.8
X126.6Y-76.55
X126.6Y-79.3
X126.6Y-82.05
X126.6Y-84.8
X129.6Y-47.0
X129.6Y-50.0
X129.6Y-53.4
X129.6Y-56.15
X129.6Y-58.9
X129.6Y-61.65
X129.6Y-64.4
X129.6Y-67.15
X129.6Y-73.8
X129.6Y-76.55
X129.6Y-79.3
X129.6Y-82.05
X129.6Y-84.8
X132.6Y-47.0
X132.6Y-50.0
X132.6Y-53.4
X132.6Y-56.15
X132.6Y-58.9
X132.6Y-61.65
X132.6Y-64.4
X132.6Y-67.15
X132.6Y-73.8
X132.6Y-76.55
X132.6Y-79.3
X132.6Y-82.05
X132.6Y-84.8
X135.6Y-47.0
X135.6Y-50.0
X135.6Y-53.4
X135.6Y-56.15
X135.6Y-58.9
X135.6Y-61.65
X135.6Y-64.4
X135.6Y-67.15
X135.6Y-73.8
X135.6Y-76.55
X135.6Y-79.3
X135.6Y-82.05
X135.6Y-84.8
X138.6Y-47.0
X138.6Y-50.0
X138.6Y-53.4
X138.6Y-56.15
X138.6Y-58.9
X138.6Y-61.65
X138.6Y-64.4
X138.6Y-67.15
X138.6Y-73.8
X138.6Y-76.55
X138.6Y-79.3
X138.6Y-82.05
X138.6Y-84.8
X141.6Y-47.0
X141.6Y-50.0
X141.6Y-53.4
X141.6Y-56.15
X141.6Y-58.9
X141.6Y-61.65
X141.6Y-64.4
X141.6Y-67.15
X141.6Y-73.8
X141.6Y-76.55
X141.6Y-79.3
X141.6Y-82.05
X141.6Y-84.8
X144.6Y-47.0
X144.6Y-50.0
X144.6Y-53.4
X144.6Y-56.15
X144.6Y-58.9
X144.6Y-61.65
X144.6Y-64.4
X144.6Y-67.15
X144.6Y-73.8
X144.6Y-76.55
X144.6Y-79.3
X144.6Y-82.05
X144.6Y-84.8
X147.6Y-47.0
X147.6Y-50.0
X147.6Y-53.4
X147.6Y-56.15
X147.6Y-58.9
X147.6Y-61.65
X147.6Y-64.4
X147.6Y-67.15
X147.6Y-73.8
X147.6Y-76.55
X147.6Y-79.3
X147.6Y-82.05
X147.6Y-84.8
X150.6Y-47.0
X150.6Y-50.0
X150.6Y-53.4
X150.6Y-56.15
X150.6Y-58.9
X150.6Y-61.65
X150.6Y-64.4
X150.6Y-67.15
X150.6Y-73.8
X150.6Y-76.55
X150.6Y-79.3
X150.6Y-82.05
X150.6Y-84.8
X153.6Y-47.0
X153.6Y-50.0
X153.6Y-53.4
X153.6Y-56.15
X153.6Y-58.9
X153.6Y-61.65
X153.6Y-64.4
X153.6Y-67.15
X153.6Y-73.8
X153.6Y-76.55
X153.6Y-79.3
X153.6Y-82.05
X153.6Y-84.8
X156.6Y-47.0
X156.6Y-50.0
X156.6Y-53.4
X156.6Y-56.15
X156.6Y-58.9
X156.6Y-61.65
X156.6Y-64.4
X156.6Y-67.15
X156.6Y-73.8
X156.6Y-76.55
X156.6Y-79.3
X156.6Y-82.05
X156.6Y-84.8
X159.6Y-47.0
X159.6Y-50.0
X159.6Y-82.05
X159.6Y-84.8
X162.6Y-47.0
X162.6Y-50.0
X162.6Y-82.05
X162.6Y-84.8
X165.6Y-47.0
X165.6Y-50.0
X165.6Y-82.05
X165.6Y-84.8
X168.6Y-47.0
X168.6Y-50.0
X168.6Y-82.05
X168.6Y-84.8
X171.6Y-47.0
X171.6Y-50.0
X171.6Y-82.05
X171.6Y-84.8
X174.6Y-47.0
X174.6Y-50.0
X174.6Y-51.8
X174.6Y-54.55
X174.6Y-57.3
X174.6Y-74.3
X174.6Y-77.05
X174.6Y-79.8
X174.6Y-82.05
X174.6Y-84.8
X177.6Y-47.0
X177.6Y-50.0
X177.6Y-51.8
X177.6Y-54.55
X177.6Y-57.3
X177.6Y-74.3
X177.6Y-77.05
X177.6Y-79.8
X177.6Y-82.05
X177.6Y-84.8
X180.6Y-47.0
X180.6Y-50.0
X180.6Y-51.8
X180.6Y-54.55
X180.6Y-57.3
X180.6Y-74.3
X180.6Y-77.05
X180.6Y-79.8
X180.6Y-82.05
X180.6Y-84.8
T3
X90.675Y-63.025
X90.675Y-63.875
X90.675Y-64.725
X90.675Y-65.575
X90.675Y-66.425
X90.675Y-67.275
X90.675Y-68.125
X90.675Y-68.975
X92.025Y-63.025
X92.025Y-63.875
X92.025Y-64.725
X92.025Y-65.575
X92.025Y-66.425
X92.025Y-67.275
X92.025Y-68.125
X92.025Y-68.975
T5
X93.472Y-79.761
X93.472Y-82.301
T6
X177.338Y-61.0
X177.338Y-66.0
X177.338Y-71.0
T7
X98.3Y-56.35
X98.3Y-75.65
X169.7Y-56.35
X169.7Y-75.65
T4
X88.065Y-61.675G85X87.265Y-61.675
G05
X88.065Y-70.325G85X87.265Y-70.325
G05
X91.795Y-61.675G85X90.295Y-61.675
G05
X91.795Y-70.325G85X90.295Y-70.325
G05
T0
M30
